<?xml version="1.0" encoding="utf-8"?>
<!-- Generator: Adobe Illustrator 28.0.0, SVG Export Plug-In . SVG Version: 6.00 Build 0)  -->
<svg version="1.1" id="Capa_1" xmlns="http://www.w3.org/2000/svg" xmlns:xlink="http://www.w3.org/1999/xlink" x="0px" y="0px"
	 viewBox="0 0 583.82 1026.82" style="enable-background:new 0 0 583.82 1026.82;" xml:space="preserve">
<style type="text/css">
	.st0{opacity:0.3;}
	.st1{fill:#6F6F6F;}
	.st2{fill:url(#XMLID_00000064356359824311746150000011987248242214901688_);}
	.st3{fill:#FFFFFF;}
</style>
<g>
	<g id="XMLID_199_" class="st0">
		<path id="XMLID_00000150075265957916237360000004842525967045410963_" class="st1" d="M556.89,117.41h-28.13v-13.28
			c0-13.96-10.88-25.28-24.28-25.28h-36.29C423.09,31.91,360.8,2.88,291.98,2.88c-68.81,0-131.11,29.04-176.21,75.98H79.49
			c-13.41,0-24.28,11.32-24.28,25.28v13.28H27.07c-13.41,0-24.28,11.32-24.28,25.28v741.17c0,13.96,10.87,25.28,24.28,25.28h28.14
			v13.28c0,13.96,10.87,25.28,24.28,25.28h36.28c45.09,46.94,107.39,75.98,176.21,75.98c68.82,0,131.11-29.04,176.21-75.98h36.29
			c13.41,0,24.28-11.32,24.28-25.28v-13.28h28.13c13.41,0,24.28-11.31,24.28-25.28V142.69C581.17,128.73,570.3,117.41,556.89,117.41
			z"/>
	</g>
	<g id="XMLID_133_">
		
			<linearGradient id="XMLID_00000075864028529910490580000006392290251116458171_" gradientUnits="userSpaceOnUse" x1="2.7881" y1="-14611.7393" x2="581.1746" y2="-14611.7393" gradientTransform="matrix(1 0 0 -1 0 -14098.4668)">
			<stop  offset="0" style="stop-color:#FFFFFF"/>
			<stop  offset="1" style="stop-color:#E8E8E8"/>
		</linearGradient>
		<path id="XMLID_129_" style="fill:url(#XMLID_00000075864028529910490580000006392290251116458171_);" d="M556.89,117.41h-28.13
			v-13.28c0-13.96-10.88-25.28-24.28-25.28h-36.29C423.09,31.91,360.8,2.88,291.98,2.88c-68.81,0-131.11,29.04-176.21,75.98H79.49
			c-13.41,0-24.28,11.32-24.28,25.28v13.28H27.07c-13.41,0-24.28,11.32-24.28,25.28v741.17c0,13.96,10.87,25.28,24.28,25.28h28.14
			v13.28c0,13.96,10.87,25.28,24.28,25.28h36.28c45.09,46.94,107.39,75.98,176.21,75.98c68.82,0,131.11-29.04,176.21-75.98h36.29
			c13.41,0,24.28-11.32,24.28-25.28v-13.28h28.13c13.41,0,24.28-11.31,24.28-25.28V142.69C581.17,128.73,570.3,117.41,556.89,117.41
			z"/>
		<path id="XMLID_130_" class="st3" d="M291.98,1025.44c-66.79,0-129.58-26.97-176.91-75.98H79.49c-14.33,0-25.99-12.13-25.99-27.04
			V910.9H27.07c-14.33,0-25.98-12.13-25.98-27.04V142.69c0-14.91,11.66-27.05,25.98-27.05h26.43v-11.51
			c0-14.91,11.66-27.05,25.99-27.05h35.58c47.33-49,110.13-75.98,176.91-75.98c66.78,0,129.58,26.97,176.91,75.98h35.58
			c14.33,0,25.98,12.13,25.98,27.05v11.51h26.43c14.33,0,25.99,12.13,25.99,27.05v741.17c0,14.91-11.66,27.04-25.99,27.04h-26.43
			v11.51c0,14.91-11.66,27.04-25.98,27.04h-35.58C421.56,998.46,358.77,1025.44,291.98,1025.44z M27.07,119.18
			c-12.45,0-22.58,10.54-22.58,23.51v741.17c0,12.96,10.13,23.51,22.58,23.51h29.84v15.05c0,12.96,10.13,23.51,22.58,23.51h36.99
			l0.5,0.52c46.74,48.66,108.89,75.46,175,75.46c66.11,0,128.26-26.8,175.01-75.46l0.5-0.52h36.99c12.45,0,22.58-10.54,22.58-23.51
			v-15.05h29.83c12.45,0,22.59-10.54,22.59-23.51V142.69c0-12.96-10.13-23.51-22.59-23.51h-29.83v-15.05
			c0-12.96-10.13-23.51-22.58-23.51h-36.99l-0.5-0.52C420.24,31.44,358.09,4.65,291.98,4.65c-66.11,0-128.26,26.8-175,75.46
			l-0.5,0.52H79.49c-12.45,0-22.58,10.54-22.58,23.51v15.05H27.07z"/>
	</g>
</g>
</svg>
