<?xml version="1.0" encoding="utf-8"?>
<!-- Generator: Adobe Illustrator 28.0.0, SVG Export Plug-In . SVG Version: 6.00 Build 0)  -->
<svg version="1.1" id="Capa_1" xmlns="http://www.w3.org/2000/svg" xmlns:xlink="http://www.w3.org/1999/xlink" x="0px" y="0px"
	 viewBox="0 0 97.69 97.69" style="enable-background:new 0 0 97.69 97.69;" xml:space="preserve">
<style type="text/css">
	.st0{fill:#F8764B;}
</style>
<g>
	<path class="st0" d="M27.33,66.23c-1.55,0.77-3.38,0.77-4.93,0c-0.78-0.39-1.74-0.07-2.13,0.71c-0.39,0.79-0.07,1.74,0.71,2.13
		c2.45,1.22,5.32,1.22,7.77,0c0.78-0.39,1.1-1.35,0.71-2.13C29.06,66.16,28.11,65.84,27.33,66.23z"/>
	<path class="st0" d="M94.84,8.93H66.27V5.76C66.26,3.14,64.13,1.01,61.5,1h-1.31c-2.63,0.01-4.76,2.14-4.76,4.77v3.16H31.35
		c-0.88,0-1.59,0.71-1.59,1.59v4.76h-3.17c-0.88,0-1.59,0.71-1.59,1.59v42.79c-0.45,0.14-0.91,0.23-1.38,0.26
		c-1.53-3-1.9-6.47-1.01-9.72l1.22-4.52c0.2-0.83-0.3-1.68-1.13-1.9s-1.68,0.25-1.93,1.07L19.92,48l-0.66-1.66
		c-1.67-4.17-5.42-7.15-9.86-7.85l-6.37-0.98c-0.59-0.09-1.19,0.16-1.54,0.65s-0.39,1.14-0.1,1.67l3.47,6.45
		c1.65,3.06,4.48,5.31,7.82,6.23l6.28,1.72c0.04,1.48,0.28,2.95,0.72,4.36c-0.07-0.07-0.16-0.12-0.23-0.19L19,57.95
		c-1.92-1.93-4.53-3.01-7.25-3c-5.1,0.02-9.41,3.76-10.16,8.8C0.16,73.66,2.57,83.72,8.31,91.9L9,92.89
		c1.43,2.05,3.77,3.29,6.27,3.33s4.87-1.12,6.37-3.12L22,92.62c0.31-0.38,0.78-0.61,1.27-0.61s0.96,0.22,1.27,0.61l0.36,0.48
		c1.48,1.96,3.79,3.12,6.25,3.12h63.69c0.88,0,1.59-0.71,1.59-1.59V10.52C96.42,9.64,95.71,8.93,94.84,8.93z M58.6,5.76
		c0-0.88,0.71-1.59,1.59-1.59h1.31c0.88,0,1.59,0.71,1.59,1.59v3.17H58.6V5.76z M57.01,12.11h14.02v4.76c0,0.88-0.71,1.59-1.59,1.59
		H53.57c-0.88,0-1.59-0.71-1.59-1.59V12.1L57.01,12.11z M32.94,12.11h15.87v3.17H32.94V12.11z M13.52,49.45
		c-2.51-0.69-4.63-2.38-5.87-4.67l-1.96-3.65l3.22,0.5c3.33,0.52,6.14,2.76,7.4,5.88l1.21,3.03L13.52,49.45z M27.44,91.2l-0.36-0.48
		c-0.9-1.2-2.31-1.9-3.81-1.9s-2.91,0.71-3.81,1.9L19.1,91.2c-0.89,1.19-2.3,1.88-3.78,1.85c-1.48-0.02-2.87-0.76-3.72-1.98
		l-0.69-0.99c-5.28-7.52-7.49-16.77-6.18-25.87c0.51-3.48,3.49-6.07,7.01-6.08c1.88,0,3.68,0.74,5.01,2.07l0.46,0.45
		c2.58,2.61,6.56,3.26,9.84,1.6c0.2-0.06,0.39-0.16,0.55-0.29c0.64-0.36,1.22-0.8,1.75-1.31l0.46-0.45c1.32-1.33,3.12-2.08,5-2.07
		c3.52,0.02,6.5,2.6,7.01,6.08c1.31,9.1-0.9,18.35-6.18,25.87l-0.69,0.99c-0.85,1.22-2.24,1.95-3.72,1.98
		C29.74,93.07,28.33,92.38,27.44,91.2L27.44,91.2z M46.53,74.7c0.93,0.93,0.93,2.44,0,3.37c-0.62,0.57-1.48,0.79-2.3,0.58
		c0.36-1.52,0.63-3.05,0.81-4.6C45.6,74.09,46.12,74.32,46.53,74.7L46.53,74.7z M44.18,61.18c-0.42-0.97-0.98-1.88-1.68-2.68
		c0.08-0.48,0.31-0.92,0.65-1.27c0.95-0.88,2.42-0.88,3.37,0c0.93,0.93,0.93,2.44,0,3.37C45.9,61.19,45.01,61.41,44.18,61.18
		L44.18,61.18z M37.42,93.05c0.04-0.05,0.08-0.1,0.12-0.16l0.69-0.99c2.19-3.13,3.91-6.56,5.11-10.19c2.43,0.67,5-0.37,6.27-2.54
		s0.93-4.93-0.84-6.72c-0.94-0.91-2.17-1.46-3.47-1.58c0.08-2.14-0.02-4.29-0.29-6.41c2.21-0.07,4.16-1.45,4.98-3.5
		s0.33-4.4-1.22-5.96c-2.21-2.06-5.65-2.06-7.86,0c-0.39,0.41-0.72,0.87-0.97,1.38c-3.74-2.21-8.46-1.8-11.77,1.02V18.45H49.1
		c0.67,1.9,2.46,3.17,4.47,3.17h15.87c2.01-0.01,3.8-1.28,4.47-3.17H86.9v74.59H37.42V93.05z M93.25,93.05h-3.17V16.87
		c0-0.88-0.71-1.59-1.59-1.59H74.2v-3.17h19.04v80.94H93.25z"/>
	<path class="st0" d="M44.84,35.91c-3.07,0-5.55,2.49-5.55,5.55c0,3.07,2.49,5.55,5.55,5.55s5.55-2.49,5.55-5.55
		C50.4,38.4,47.91,35.91,44.84,35.91z M44.84,43.85c-1.32,0-2.38-1.07-2.38-2.38c0-1.32,1.07-2.38,2.38-2.38
		c1.32,0,2.38,1.07,2.38,2.38S46.16,43.85,44.84,43.85z"/>
	<path class="st0" d="M53.57,27.18h17.46v3.17H53.57V27.18z"/>
	<path class="st0" d="M53.57,39.09h23.81v3.17H53.57V39.09z"/>
	<path class="st0" d="M80.55,39.09h3.17v3.17h-3.17V39.09z"/>
	<path class="st0" d="M53.57,56.54h23.81v3.17H53.57V56.54z"/>
	<path class="st0" d="M80.55,56.54h3.17v3.17h-3.17V56.54z"/>
	<path class="st0" d="M53.57,74h23.81v3.17H53.57V74z"/>
	<path class="st0" d="M80.55,74h3.17v3.17h-3.17V74z"/>
	<path class="st0" d="M55.16,86.7h3.17v3.17h-3.17C55.16,89.87,55.16,86.7,55.16,86.7z"/>
	<path class="st0" d="M61.51,86.7h3.17v3.17h-3.17C61.51,89.87,61.51,86.7,61.51,86.7z"/>
	<path class="st0" d="M67.86,86.7h3.17v3.17h-3.17V86.7z"/>
	<path class="st0" d="M82.14,21.63h-4.76v3.17h3.17v3.17h3.17v-4.76C83.73,22.34,83.02,21.63,82.14,21.63z"/>
	<path class="st0" d="M42.46,21.63h3.17v3.17h-3.17V21.63z"/>
	<path class="st0" d="M36.11,21.63h3.17v3.17h-3.17V21.63z"/>
	<path class="st0" d="M80.55,86.7h-3.17v3.17h4.76c0.88,0,1.59-0.71,1.59-1.59v-4.76h-3.17v3.18H80.55z"/>
</g>
</svg>
