<?xml version="1.0" encoding="utf-8"?>
<!-- Generator: Adobe Illustrator 28.0.0, SVG Export Plug-In . SVG Version: 6.00 Build 0)  -->
<svg version="1.1" id="Capa_1" xmlns="http://www.w3.org/2000/svg" xmlns:xlink="http://www.w3.org/1999/xlink" x="0px" y="0px"
	 viewBox="0 0 29.94 31.24" style="enable-background:new 0 0 29.94 31.24;" xml:space="preserve">
<style type="text/css">
	.st0{fill:#FFF080;}
	.st1{fill-rule:evenodd;clip-rule:evenodd;fill:#FFF080;}
</style>
<g>
	<g>
		<g>
			<g>
				<path class="st0" d="M14.96,0C6.74,0,0.05,6.69,0.05,14.92c0,3.81,1.42,7.41,4.02,10.19l-2.3,5.12c-0.1,0.23-0.07,0.5,0.09,0.69
					c0.13,0.15,0.32,0.24,0.51,0.24c0.05,0,0.1-0.01,0.15-0.02l8.11-1.95c1.42,0.42,2.87,0.64,4.33,0.64
					c8.23,0,14.92-6.69,14.92-14.92S23.19,0,14.96,0z M14.96,28.51c-1.37,0-2.73-0.21-4.07-0.62c-0.09-0.04-0.19-0.05-0.26-0.05
					v0.01c-0.05,0-0.09,0.01-0.14,0.02l-6.97,1.67l1.93-4.3c0.11-0.25,0.06-0.54-0.13-0.74c-2.55-2.57-3.95-5.97-3.95-9.58
					c0-7.49,6.1-13.59,13.59-13.59s13.59,6.1,13.59,13.59S22.46,28.51,14.96,28.51z"/>
				<path class="st1" d="M21.99,18.42c-0.37-0.19-2.21-1.09-2.55-1.22c-0.34-0.12-0.59-0.19-0.84,0.19
					c-0.25,0.37-0.97,1.22-1.18,1.47c-0.22,0.25-0.44,0.28-0.81,0.09c-0.37-0.19-1.58-0.58-3.01-1.86
					c-1.11-0.99-1.86-2.21-2.08-2.59c-0.22-0.37,0-0.56,0.16-0.76c0.4-0.5,0.81-1.03,0.93-1.28s0.06-0.47-0.03-0.65
					c-0.09-0.19-0.84-2.03-1.15-2.78c-0.3-0.73-0.61-0.63-0.84-0.64c-0.22-0.01-0.47-0.01-0.72-0.01s-0.65,0.09-1,0.47
					c-0.34,0.37-1.31,1.28-1.31,3.12s1.34,3.62,1.53,3.87c0.19,0.25,2.64,4.02,6.38,5.64c0.89,0.39,1.59,0.62,2.13,0.79
					c0.9,0.28,1.71,0.24,2.35,0.15c0.72-0.11,2.21-0.9,2.52-1.78c0.31-0.87,0.31-1.62,0.22-1.78C22.61,18.7,22.36,18.61,21.99,18.42
					z"/>
			</g>
		</g>
	</g>
</g>
</svg>
