<?xml version="1.0" encoding="utf-8"?>
<!-- Generator: Adobe Illustrator 28.0.0, SVG Export Plug-In . SVG Version: 6.00 Build 0)  -->
<svg version="1.1" id="Capa_1" xmlns="http://www.w3.org/2000/svg" xmlns:xlink="http://www.w3.org/1999/xlink" x="0px" y="0px"
	 viewBox="0 0 29.94 31.24" style="enable-background:new 0 0 29.94 31.24;" xml:space="preserve">
<style type="text/css">
	.st0{fill:#FFF080;}
</style>
<g>
	<g>
		<g>
			<path class="st0" d="M28.63,7H1.29C0.61,7,0.07,7.57,0.07,8.29v17.56c0,0.71,0.55,1.29,1.23,1.29h27.33
				c0.68,0,1.23-0.58,1.23-1.29V8.29C29.85,7.57,29.3,7,28.63,7z M1.29,8.01h27.33c0.11,0,0.21,0.08,0.25,0.19l-13.92,9.14L1.04,8.2
				C1.08,8.09,1.18,8.01,1.29,8.01z M1.03,9.36l10.01,6.57L1.03,24.28V9.36z M28.89,25.84c0,0.15-0.12,0.28-0.26,0.28H1.29
				c-0.15,0-0.26-0.12-0.26-0.28v-0.27l10.88-9.03l2.79,1.84c0.16,0.1,0.36,0.1,0.51,0l2.8-1.84l10.88,9.03V25.84z M28.89,24.28
				l-10.04-8.32l10.04-6.54V24.28z"/>
		</g>
	</g>
</g>
</svg>
