<?xml version="1.0" encoding="utf-8"?>
<!-- Generator: Adobe Illustrator 28.0.0, SVG Export Plug-In . SVG Version: 6.00 Build 0)  -->
<svg version="1.1" id="Capa_1" xmlns="http://www.w3.org/2000/svg" xmlns:xlink="http://www.w3.org/1999/xlink" x="0px" y="0px"
	 viewBox="0 0 97.69 97.69" style="enable-background:new 0 0 97.69 97.69;" xml:space="preserve">
<style type="text/css">
	.st0{fill:#F8764B;}
</style>
<g>
	<g>
		<path class="st0" d="M73.31,13.76V0.71h-42.8v13.05L13.46,30.65V60.4h76.62V30.65L73.31,13.76z M15.72,32.25h6.91v-2.26h-5.29
			l14.77-14.63h22.06V13.1h-21.4V2.97h38.27V13.1H56.42v2.26H69.5L54.82,29.99H24.89v2.26h29.27v7.87h-21.4V55.9h21.39v2.24H15.72
			V32.25z M35.03,53.63V42.38h36.02v11.25H35.03z M87.82,58.14h-31.4V55.9h16.89V40.12H56.42v-8.53l14.63-14.58v14.11H68.8v2.26
			h6.76v-2.26h-2.25V16.97l14.51,14.61C87.82,31.58,87.82,58.14,87.82,58.14z"/>
		<path class="st0" d="M54.16,44.63h2.26v6.76h-2.26V44.63z"/>
		<path class="st0" d="M41.78,44.63h10.13v2.26H41.78V44.63z"/>
		<path class="st0" d="M37.27,49.13h14.64v2.26H37.27V49.13z"/>
		<path class="st0" d="M66.55,44.63h2.25v2.26h-2.25V44.63z"/>
		<path class="st0" d="M65.43,8.03c0-1.55-1.27-2.82-2.82-2.82h-21.4c-1.56,0-2.82,1.26-2.82,2.82s1.27,2.82,2.82,2.82h21.4
			C64.17,10.86,65.43,9.59,65.43,8.03z M40.66,8.03c0-0.31,0.25-0.56,0.56-0.56h21.4c0.31,0,0.56,0.25,0.56,0.56
			c0,0.31-0.25,0.56-0.56,0.56h-21.4C40.91,8.59,40.66,8.34,40.66,8.03z"/>
		<path class="st0" d="M18.13,34.49h11.26v2.26H18.13V34.49z"/>
		<path class="st0" d="M18.13,39h6.76v2.26h-6.76V39z"/>
		<path class="st0" d="M18.13,43.5h2.25v2.26h-2.25V43.5z"/>
		<path class="st0" d="M49.66,34.49h2.25v2.26h-2.25V34.49z"/>
		<path class="st0" d="M83.44,53.63h2.25v2.26h-2.25V53.63z"/>
		<path class="st0" d="M18.13,53.63h2.25v2.26h-2.25V53.63z"/>
	</g>
	<g transform="translate(1 1)">
		<g>
			<g>
				<path class="st0" d="M72.81,70.74c-1.96-2.61-3.92-2.61-8.7-0.11l-9.36,5.76c-1.31,0.76-4.24,0.98-6.96,0.98
					c0.54-0.98,0.33-2.18-0.65-3.59c-1.74-2.5-4.68-4.03-7.83-4.03h-4.24c-2.29,0-4.46-0.65-6.2-1.96
					c-3.93-2.94-10.06,0.26-13.05,2.17V67.7H8.18v28.28h7.62v-3.26h14.14c2.18,0,4.46-0.22,6.64-0.33l14.14-2.18
					c0.54,0,1.09-0.11,1.52-0.22c1.31-0.22,2.5-0.87,3.59-1.85L72.26,75.1C73.57,74.01,73.78,72.05,72.81,70.74z M13.62,93.81h-3.26
					V69.87h3.26v1.63v21.21V93.81z M70.96,73.68L54.42,86.52l-0.11,0.11c-0.76,0.65-1.52,1.09-2.39,1.2h-0.11
					c-0.44,0.11-0.76,0.11-1.2,0.11l-14.36,2.18c-2.07,0.33-4.24,0.43-6.31,0.43H15.8V72.59c2.61-1.85,8.7-5.33,11.75-2.94
					c2.07,1.52,4.79,2.39,7.51,2.39h4.24c2.5,0,4.79,1.09,6.2,3.26c0.44,0.65,0.54,1.31,0.44,1.52c-0.33,0.54-1.63,0.76-3.05,0.87
					c-0.15,0-0.29,0-0.44,0c-0.28,0-0.54,0-0.76,0H31.9c-3.37,0-5.44,1.63-5.44,4.35c0,0.65,0.44,1.09,1.09,1.09
					s1.09-0.44,1.09-1.09c0-0.54,0-2.18,3.26-2.18h9.68c0.23,0,0.51,0,0.87,0c0.16,0,0.34,0,0.54,0c0.11,0,0.33,0,0.54,0
					c5.11,0.11,9.9,0,12.4-1.3l9.36-5.77c4.57-2.28,5-1.74,5.87-0.44C71.39,72.7,71.39,73.35,70.96,73.68z"/>
			</g>
		</g>
	</g>
</g>
</svg>
