<?xml version="1.0" encoding="utf-8"?>
<!-- Generator: Adobe Illustrator 28.0.0, SVG Export Plug-In . SVG Version: 6.00 Build 0)  -->
<svg version="1.1" id="Capa_1" xmlns="http://www.w3.org/2000/svg" xmlns:xlink="http://www.w3.org/1999/xlink" x="0px" y="0px"
	 viewBox="0 0 97.69 97.69" style="enable-background:new 0 0 97.69 97.69;" xml:space="preserve">
<style type="text/css">
	.st0{fill:#F8764B;}
</style>
<g>
	<g>
		<g>
			<path class="st0" d="M90.99,85.27H64.12v-0.52l9.82-4.21c0.18-0.08,0.34-0.19,0.48-0.32l2.3-2.3l6.77,3.91
				c0.24,0.14,0.5,0.2,0.77,0.2c0.13,0,0.27-0.01,0.4-0.05c0.39-0.11,0.73-0.36,0.93-0.72l3.07-5.32
				c11.83-20.5,6.07-46.39-12.57-60.11c1.04-0.52,1.94-1.33,2.57-2.4c0.82-1.42,1.04-3.07,0.61-4.66c-0.42-1.58-1.44-2.91-2.86-3.73
				c-2.94-1.69-6.7-0.68-8.39,2.25c-0.61,1.05-0.88,2.24-0.81,3.42C46,1.43,20.7,9.38,8.87,29.88L5.8,35.2
				c-0.42,0.73-0.17,1.67,0.56,2.1l34,19.63c-0.46,0.21-0.9,0.45-1.32,0.73c-6.8,0.23-12.35,4.82-13.19,10.72H14.99
				c-0.6,0-1.14,0.35-1.39,0.89s-0.17,1.18,0.22,1.64l7.68,9.11c0.17,0.2,0.38,0.35,0.62,0.44l11.3,4.33v0.48H6.54
				c-2.96,0-5.37,2.41-5.37,5.37s2.41,5.37,5.37,5.37h84.45c2.96,0,5.37-2.41,5.37-5.37C96.36,87.68,93.95,85.27,90.99,85.27z
				 M70.66,8.82c0.57-0.98,1.6-1.54,2.66-1.54c0.52,0,1.05,0.14,1.53,0.41c0.71,0.41,1.22,1.07,1.43,1.86s0.1,1.62-0.31,2.33
				c-0.41,0.71-1.07,1.22-1.86,1.43c-0.8,0.21-1.62,0.1-2.33-0.31c-0.71-0.41-1.22-1.07-1.43-1.86
				C70.15,10.36,70.25,9.53,70.66,8.82z M9.22,35.4l2.3-3.99c5.74-9.95,15.01-17.06,26.1-20.03s22.68-1.45,32.62,4.29
				c20.53,11.85,27.59,38.2,15.74,58.73l-2.3,3.99L9.22,35.4z M35.9,61.26c-0.6,1.22-0.95,2.59-0.95,4.04h3.07
				c0-3.39,2.75-6.14,6.14-6.14v-0.05l16.04,9.26H28.97C29.62,65.08,32.31,62.38,35.9,61.26z M23.58,77.73l-5.29-6.28h47.23
				l8.44,4.87l-1.51,1.51l-10.48,4.49c-0.57,0.24-0.93,0.8-0.93,1.41v1.53H36.48v-1.53c0-0.63-0.39-1.2-0.99-1.43L23.58,77.73z
				 M90.99,92.94H6.54c-1.27,0-2.3-1.03-2.3-2.3s1.03-2.3,2.3-2.3h28.41h27.64H91c1.27,0,2.3,1.03,2.3,2.3S92.26,92.94,90.99,92.94z
				"/>
		</g>
	</g>
	<g>
		<g>
			<rect x="64.12" y="60.7" class="st0" width="3.07" height="3.07"/>
		</g>
	</g>
	<g>
		<g>
			<rect x="71.8" y="65.31" class="st0" width="3.07" height="3.07"/>
		</g>
	</g>
	<g>
		<g>
			<rect x="79.47" y="69.92" class="st0" width="3.07" height="3.07"/>
		</g>
	</g>
	<g>
		<g>
			<path class="st0" d="M18.06,8.5c-3.39,0-6.14-2.75-6.14-6.14c0-0.85-0.69-1.53-1.53-1.53c-0.85,0-1.54,0.69-1.54,1.53
				c0,3.39-2.75,6.14-6.14,6.14c-0.85,0-1.53,0.69-1.53,1.54s0.69,1.53,1.53,1.53c3.39,0,6.14,2.75,6.14,6.14
				c0,0.85,0.69,1.53,1.54,1.53s1.53-0.69,1.53-1.53c0-3.39,2.75-6.14,6.14-6.14c0.85,0,1.54-0.69,1.54-1.53
				C19.59,9.19,18.91,8.5,18.06,8.5z M10.38,12.62c-0.68-1.03-1.56-1.91-2.59-2.59c1.03-0.68,1.91-1.57,2.59-2.59
				c0.68,1.02,1.56,1.91,2.59,2.59C11.95,10.72,11.06,11.6,10.38,12.62z"/>
		</g>
	</g>
	<g>
		<g>
			<path class="st0" d="M21.13,54.56c-3.39,0-6.14-2.76-6.14-6.14c0-0.85-0.69-1.54-1.54-1.54s-1.54,0.69-1.54,1.54
				c0,3.39-2.75,6.14-6.14,6.14c-0.85,0-1.54,0.69-1.54,1.53c0,0.85,0.69,1.54,1.54,1.54c3.39,0,6.14,2.76,6.14,6.14
				c0,0.85,0.69,1.54,1.54,1.54s1.54-0.69,1.54-1.54c0-3.39,2.76-6.14,6.14-6.14c0.85,0,1.54-0.69,1.54-1.54
				C22.67,55.25,21.98,54.56,21.13,54.56z M13.45,58.68c-0.68-1.03-1.56-1.91-2.59-2.59c1.03-0.68,1.91-1.56,2.59-2.59
				c0.68,1.03,1.57,1.91,2.59,2.59C15.02,56.77,14.13,57.66,13.45,58.68z"/>
		</g>
	</g>
	<g>
		<g>
			<path class="st0" d="M42.62,29.99c-3.39,0-6.14-2.76-6.14-6.14c0-0.85-0.69-1.53-1.53-1.53s-1.54,0.69-1.54,1.53
				c0,3.39-2.76,6.14-6.14,6.14c-0.85,0-1.54,0.69-1.54,1.54s0.69,1.53,1.54,1.53c3.39,0,6.14,2.75,6.14,6.14
				c0,0.85,0.69,1.54,1.54,1.54s1.53-0.69,1.53-1.54c0-3.39,2.76-6.14,6.14-6.14c0.85,0,1.54-0.69,1.54-1.53
				C44.16,30.68,43.47,29.99,42.62,29.99z M34.95,34.12c-0.68-1.02-1.56-1.91-2.59-2.59c1.03-0.68,1.91-1.57,2.59-2.59
				c0.68,1.03,1.56,1.91,2.59,2.59C36.51,32.21,35.63,33.09,34.95,34.12z"/>
		</g>
	</g>
</g>
</svg>
