<?xml version="1.0" encoding="utf-8"?>
<!-- Generator: Adobe Illustrator 28.0.0, SVG Export Plug-In . SVG Version: 6.00 Build 0)  -->
<svg version="1.1" id="Capa_1" xmlns="http://www.w3.org/2000/svg" xmlns:xlink="http://www.w3.org/1999/xlink" x="0px" y="0px"
	 viewBox="0 0 79.37 79.26" style="enable-background:new 0 0 79.37 79.26;" xml:space="preserve">
<style type="text/css">
	.st0{fill:#32B846;}
	.st1{fill:none;}
	.st2{fill:#FFFFFF;}
</style>
<g>
	<g>
		<g>
			<path class="st0" d="M39.68,79.26c-6.95,0-13.76-1.84-19.79-5.33L4.43,79.26l3.18-16.37C2.63,56.06,0,48.03,0,39.58
				C0,17.7,17.8-0.11,39.68-0.11s39.69,17.8,39.69,39.68C79.37,61.46,61.57,79.26,39.68,79.26z"/>
		</g>
	</g>
	<g>
		<g>
			<path class="st1" d="M39.68,15.58c-13.25,0-24,10.74-24,24c0,5.57,1.91,10.68,5.1,14.75l-1.6,8.26l7.79-2.69
				c3.69,2.31,8.04,3.67,12.71,3.67c13.25,0,24-10.74,24-24C63.68,26.33,52.94,15.58,39.68,15.58z"/>
			<path class="st2" d="M39.68,65.5c-4.54,0-8.99-1.2-12.93-3.48l-10.1,3.48l2.08-10.7c-3.25-4.46-4.97-9.71-4.97-15.23
				c0-14.3,11.63-25.93,25.93-25.93s25.93,11.63,25.93,25.93C65.61,53.87,53.98,65.5,39.68,65.5z M27.22,57.78L28,58.27
				c3.52,2.21,7.56,3.37,11.68,3.37c12.17,0,22.07-9.9,22.07-22.07S51.85,17.5,39.68,17.5s-22.07,9.9-22.07,22.07
				c0,4.95,1.62,9.64,4.69,13.57l0.54,0.69l-1.13,5.84L27.22,57.78z"/>
		</g>
		<path class="st2" d="M26.6,29.62c0,0,1.52-2.66,2.76-2.81s2.84-0.15,3.27,0.66s2.35,5.52,2.35,5.52s0.33,0.81-0.18,1.6
			c-0.51,0.78-1.65,1.92-1.65,1.92s-0.63,0.81,0,1.67c0.63,0.86,1.62,2.44,3.65,4.47c2.03,2.03,5.92,3.48,5.92,3.48
			s0.56,0.08,0.91-0.28c0.35-0.35,2.28-2.76,2.28-2.76s0.62-0.8,1.64-0.33c1.03,0.47,5.47,2.68,5.47,2.68s0.52,0.19,0.52,0.97
			c0,0.78-0.32,2.71-0.97,3.35c-0.65,0.65-2.55,2.65-5.4,2.65c-2.85,0-9.65-2.32-13.27-5.94s-6.84-7.29-7.6-10.64
			C25.56,32.5,25.66,30.99,26.6,29.62z"/>
	</g>
</g>
</svg>
