<?xml version="1.0" encoding="utf-8"?>
<!-- Generator: Adobe Illustrator 28.0.0, SVG Export Plug-In . SVG Version: 6.00 Build 0)  -->
<svg version="1.1" id="Capa_1" xmlns="http://www.w3.org/2000/svg" xmlns:xlink="http://www.w3.org/1999/xlink" x="0px" y="0px"
	 viewBox="0 0 29.94 31.24" style="enable-background:new 0 0 29.94 31.24;" xml:space="preserve">
<style type="text/css">
	.st0{fill:#FFF080;}
</style>
<g>
	<g>
		<path class="st0" d="M14.99,30.66c-0.82-0.88-1.61-1.7-2.38-2.54c-2.37-2.61-4.58-5.36-6.41-8.38c-1.04-1.72-1.97-3.51-2.45-5.48
			C3.1,11.54,3.57,8.95,4.92,6.53c1.81-3.23,4.59-5.17,8.24-5.8c6.09-1.05,12.03,3.17,13.15,9.26c0.43,2.34,0.01,4.52-0.95,6.64
			c-1.19,2.66-2.81,5.05-4.57,7.35c-1.71,2.23-3.57,4.34-5.53,6.36C15.18,30.43,15.11,30.52,14.99,30.66z M14.97,29.15
			c0.13-0.14,0.22-0.23,0.31-0.32c1.57-1.83,3.19-3.63,4.7-5.51c1.71-2.13,3.22-4.42,4.36-6.92c0.9-1.97,1.35-4,0.95-6.19
			c-0.98-5.49-6.38-9.37-11.9-8.45c-3.53,0.59-6.15,2.5-7.77,5.69c-1.19,2.36-1.48,4.83-0.6,7.39c0.5,1.47,1.2,2.84,1.99,4.16
			c1.63,2.71,3.57,5.18,5.63,7.56C13.39,27.43,14.18,28.27,14.97,29.15z"/>
		<path class="st0" d="M14.98,4.78c4.04,0,7.34,3.29,7.33,7.32c-0.01,4.02-3.29,7.31-7.31,7.32c-4.04,0.01-7.34-3.27-7.35-7.31
			C7.64,8.08,10.94,4.78,14.98,4.78z M15,18.38c3.48-0.02,6.28-2.85,6.26-6.32c-0.02-3.46-2.84-6.25-6.3-6.24
			c-3.45,0.01-6.25,2.84-6.24,6.3C8.72,15.58,11.55,18.4,15,18.38z"/>
	</g>
</g>
</svg>
