<?xml version="1.0" encoding="utf-8"?>
<!-- Generator: Adobe Illustrator 28.0.0, SVG Export Plug-In . SVG Version: 6.00 Build 0)  -->
<svg version="1.1" id="Capa_1" xmlns="http://www.w3.org/2000/svg" xmlns:xlink="http://www.w3.org/1999/xlink" x="0px" y="0px"
	 viewBox="0 0 216 140.41" style="enable-background:new 0 0 216 140.41;" xml:space="preserve">
<style type="text/css">
	.st0{fill:#FFFFFF;}
</style>
<g>
	<path class="st0" d="M14.49,109.84c0.01,0,0.02,0,0.03,0c0,0,0,0,0,0c0.22-0.22,1.72-2.44,4.47-6.62c0.1-0.15,0.2-0.3,0.3-0.45
		c0.13-0.21,0.31-0.47,0.51-0.79l15.15-23.47c0.41-0.6,0.76-1.15,1.09-1.7c0.09-0.13,2.19-3.29,2.42-3.56
		c0.06-0.07,0.07-0.14,0.03-0.19c-0.05-0.07-0.27-0.25-1.31-0.25c-0.27,0-0.55-0.01-0.82-0.02c-0.25-0.01-0.5-0.01-0.73-0.01
		c-0.59,0-1.23,0.05-1.5,0.4c-0.4,0.53-4.68,7.13-5.98,9.14l-0.06,0.09c-0.87,1.29-1.86,2.81-2.71,4.16
		c-0.88,1.38-1.6,2.54-1.88,2.99l-5.25,8.43c-0.01,0.02-1.03,1.63-1.03,1.63c-0.61,0.96-1.1,1.74-1.41,2.22l-0.02,0.04
		c-0.3,0.47-0.58,0.91-0.84,1.36c-2.02,3.22-2.95,4.71-3,4.82c-0.01,0.03-0.04,0.08-0.08,0.15c-0.22,0.33-0.27,0.55,0.06,0.76
		C12.43,109.28,14.06,109.84,14.49,109.84"/>
	<path class="st0" d="M113.54,90.21c-0.45,0-0.82,0.29-0.83,0.66l0,0.04l-1.08,2.45l0,0.01c0.01,0.34,0.35,0.58,0.84,0.58l3.57,0.09
		c0.45,0,0.82-0.3,0.84-0.66l0-0.04l1.08-2.45l0-0.02c-0.01-0.37-0.38-0.67-0.84-0.67H113.54z"/>
	<path class="st0" d="M71.38,102.32c-0.3,0.32-0.58,0.65-0.86,0.97c-0.07,0.08-0.14,0.17-0.21,0.25l-0.09,0.12
		c-0.64,0.78-1.2,1.54-1.71,2.31c-0.11,0.17-0.22,0.35-0.33,0.53c-2.46,3.87-2.94,7.01-1.4,9.1c1.23,1.66,3.79,2.58,7.38,2.66
		c0.18,0.01,0.36,0.01,0.54,0.01c1.66,0,3.54-0.17,5.58-0.5l0.16-0.02c0.12-0.02,0.23-0.04,0.34-0.06l0.06-0.01
		c0.6-0.11,1.21-0.25,1.88-0.44c0.34-0.09,0.66-0.2,0.98-0.33c1.96-0.7,3.91-1.75,5.78-3.12l0.57-0.41l-0.08,0.62
		c-0.08,0.63-0.08,1.82,0.77,2.71l0.05,0.07l0.24,0.35l0.34,0.27c0.01,0.01,0.03,0.02,0.05,0.03c0.02,0.01,0.05,0.03,0.06,0.04
		l0.34,0.24l0.36,0.15c0.52,0.22,1.16,0.37,1.9,0.44l0.09-0.01h0.03c0.07,0.01,0.14,0.01,0.23,0.01c0.98,0,3.06-0.42,5.94-3.22
		l0.19-0.18l0.25-0.26c0.15-0.15,0.29-0.31,0.44-0.46l0.31-0.34l0.26-0.3c0.13-0.16,0.27-0.31,0.4-0.48l0.94-1.13l-0.41,1.33
		c-0.29,0.93-0.62,2.68,0.46,3.87c0.76,0.84,2.09,1.27,3.96,1.27c0.22,0,0.45,0,0.7-0.02c0.23-0.01,0.6-0.03,1.03-0.2l0.1-0.04
		l0.01-0.01l0.02-0.01c0.37-0.17,0.71-0.43,0.99-0.76l0.01-0.01l0.01-0.01c0.05-0.05,0.12-0.11,0.19-0.2l0.02-0.02l0.05-0.04
		c0.29-0.24,3.39-4.07,6.38-7.78c2.83-3.51,5.77-7.13,6.63-8.11l0.24-0.26c0.33-0.36,0.64-0.68,0.92-0.97l0.24-0.24
		c0.97-0.92,1.41-1.02,1.66-1.02c0.38,0,0.63,0.3,0.73,0.91c0.06,0.53-0.05,1.13-0.28,1.6c-0.36,0.74-2.2,4.23-5.64,10.68
		l-1.97,3.69h0.02l-0.51,0.97c-0.07,0.14-0.07,0.31,0.01,0.47c0.11,0.21,0.34,0.38,0.62,0.48l3.16-0.04l0.05,0.02
		c0.14,0.04,0.29,0.06,0.46,0.06c0.37-0.01,0.67-0.16,0.79-0.39l0.06-0.12l0.02-0.02c0.86-0.99,3.38-4.11,6.05-7.41l0.1-0.12
		c2.81-3.48,5.72-7.09,6.59-8.06l0.35-0.38c0.29-0.31,0.56-0.59,0.83-0.86c0.07-0.08,0.15-0.15,0.22-0.23
		c0.97-0.92,1.42-1.02,1.67-1.02c0.38,0,0.62,0.3,0.72,0.91c0.06,0.53-0.05,1.13-0.28,1.6c-0.5,1.03-3.75,7.13-5.64,10.68
		c-0.99,1.86-1.78,3.33-1.97,3.69h0.02l-0.51,0.97c-0.08,0.17-0.06,0.36,0.06,0.54c0.12,0.18,0.32,0.33,0.58,0.41l3.16-0.04
		l0.05,0.02c0.14,0.04,0.29,0.06,0.44,0.06l0,0l0.03,0v0l0.07,0c0.34-0.02,0.62-0.17,0.72-0.39l0.31-0.65l0.02-0.02
		c1.05-1.24,3.38-4.12,5.84-7.17l0.03-0.04c2.83-3.5,5.75-7.11,6.61-8.08l0.24-0.25c0.34-0.36,0.64-0.68,0.93-0.97
		c0.08-0.08,0.16-0.17,0.23-0.24c0.97-0.92,1.41-1.02,1.67-1.02c0.38,0,0.63,0.3,0.72,0.91c0.06,0.53-0.04,1.13-0.28,1.6
		c-0.47,0.96-3.33,6.34-5.64,10.68c-0.95,1.78-1.71,3.19-1.94,3.64l-0.03,0.05h0.02l-0.51,0.97c-0.17,0.35,0.12,0.77,0.64,0.95
		l3.16-0.04l0.05,0.02c0.14,0.04,0.29,0.06,0.46,0.06c0.37,0,0.67-0.15,0.79-0.39l1.69-3.44c0.02-0.04,0.03-0.09,0.04-0.13l0-0.03
		l3.26-6.78c0.02-0.03,1.76-3.74,2.38-6.51c0.08-0.26,0.12-0.49,0.14-0.74c0.12-0.83,0.09-1.43-0.11-1.77l-0.01-0.03l-0.01-0.03
		c-0.06-0.23-0.13-0.45-0.22-0.65c-0.11-0.24-0.24-0.46-0.4-0.66c-0.19-0.23-0.42-0.43-0.67-0.59c-0.25-0.16-0.56-0.29-0.88-0.37
		c-0.05-0.01-0.16-0.04-0.16-0.04l-0.02-0.01c-0.03-0.01-0.26-0.08-0.7-0.08c-0.77,0-2.05,0.24-3.77,1.42l-9.73,11.88l0.89-1.93
		c0.29-0.63,1.76-3.91,2.32-6.39c0.08-0.27,0.13-0.49,0.14-0.75c0.13-0.83,0.09-1.43-0.11-1.77l-0.02-0.03l-0.01-0.03
		c-0.05-0.23-0.13-0.45-0.22-0.65c-0.11-0.24-0.24-0.46-0.4-0.66c-0.18-0.23-0.41-0.43-0.67-0.59c-0.25-0.16-0.56-0.29-0.86-0.37
		l-0.17-0.04l-0.02,0c-0.04-0.01-0.28-0.08-0.7-0.08c-0.77,0-2.06,0.24-3.78,1.42l-10.09,12.32l1.19-2.48
		c0.07-0.16,1.77-3.8,2.38-6.51c0.08-0.26,0.13-0.49,0.15-0.75c0.12-0.83,0.09-1.43-0.11-1.77l-0.01-0.02l-0.01-0.03
		c-0.06-0.23-0.13-0.45-0.22-0.65c-0.1-0.24-0.24-0.46-0.41-0.66c-0.19-0.23-0.42-0.43-0.67-0.59c-0.25-0.16-0.55-0.29-0.87-0.37
		c-0.05-0.01-0.1-0.02-0.15-0.03l-0.02,0l-0.02,0c-0.02-0.01-0.26-0.09-0.69-0.09c-0.77,0-2.06,0.25-3.77,1.42l-11.53,14.08
		l-0.08,0.09c0,0-0.04,0.06-0.07,0.1l-1.94,2.36c-1.11,1.22-2.02,1.98-2.7,2.23c-0.15,0.05-0.29,0.09-0.4,0.1l-0.03,0l-0.02,0
		c-0.22-0.01-0.4-0.08-0.54-0.22c-0.82-0.78,0.08-3.33,0.18-3.54c0.37-0.74,2.26-4.22,5.79-10.63l0.7-1.28
		c0.41-0.74,0.75-1.36,1-1.82c0.14-0.23,0.49-0.83,0.72-1.35l0.1-0.18c0.03-0.06,0.05-0.12,0.05-0.2l0.01-0.03v-0.01
		c0.04-0.15,0.02-0.27-0.06-0.39c-0.17-0.22-0.54-0.31-0.58-0.32l-0.02,0l-0.03-0.01h-0.28c-0.71-0.02-2.44-0.08-3.15-0.08
		c-0.11,0-0.19,0-0.24,0c-0.15,0-0.28,0.03-0.41,0.07c-0.13,0.04-0.19,0.09-0.19,0.09l-0.02,0.02c-0.08,0.06-0.14,0.12-0.18,0.2
		l-1.74,3.42c-0.02,0.04-0.04,0.09-0.04,0.14l-0.01,0.03l-3.36,6.75c0,0.01-0.34,0.69-0.76,1.69l-0.01,0.01l-0.36,0.6
		c-0.26,0.36-0.51,0.7-0.76,1.02l0.03-0.01l-0.66,0.78c-0.37,0.44-0.85,1-1.23,1.42l-0.03,0.05l-0.02,0.02
		c-0.12,0.13-0.23,0.25-0.35,0.36l-0.22,0.22c-2.35,2.33-3.76,2.59-4.14,2.61l-0.02,0l-0.02,0c-0.71-0.04-1.21-0.48-1.31-1.13
		l0-0.02c-0.06-0.53,0.05-1.12,0.28-1.59c0.49-1.02,3.75-7.13,5.64-10.68l3.37-6.23l0.05-0.03c0.32-0.23,0.65-0.48,1.01-0.77
		c1.82-1.43,5.29-4.29,8.15-7.49c4-4.12,6.36-7.51,7.03-10.06c0.6-2.34,0.4-4.05-0.6-5.08c-0.63-0.65-1.55-1-2.69-1.02
		c-0.13-0.01-0.26-0.02-0.39-0.02c-1.29,0-5.8,0.56-9.57,7.73c-1.77,3.23-7.61,14.5-12.06,23.47c-0.96,1.93-1.8,3.64-2.5,5.1
		l-0.02,0.03l-0.02,0.03c-0.29,0.32-0.59,0.66-0.93,1.02l-0.04,0.03c-1.12,1.21-2.35,2.32-3.66,3.3l-0.35,0.25
		c-0.13,0.09-0.26,0.19-0.4,0.28c-3.83,2.46-7.26,3.7-10.19,3.7c-0.17,0-0.34-0.01-0.53-0.01l-0.12,0l-0.51-0.06
		c-1.08-0.13-2.08-0.43-3.05-0.94c-1.59-0.83-2.21-2.02-1.85-3.58c0-0.03,0.01-0.05,0.01-0.06c0.08-0.51,0.23-1.04,0.45-1.62
		c0.36-0.94,0.87-1.91,1.56-2.97c0.54-0.84,1.17-1.67,1.86-2.49c0.59-0.69,1.21-1.36,1.81-1.94c3.11-2.65,6.75-4.52,9.99-5.12
		l0.01-0.01l0.16-0.01c0.24-0.02,0.48-0.03,0.69-0.03c1.82,0,2.46,0.66,2.69,1.22l0,0.02l0,0.02c0.1,0.53-0.03,1.12-0.17,1.47
		c-0.01,0.02-0.02,0.05-0.03,0.07c-0.58,1.16-2.48,2.46-4.08,3.14c-0.32,0.12-0.64,0.23-0.96,0.34c-1.38,0.35-6.4,1.3-6.97,1.41
		l-2.2,0.41c-0.23,0.04-0.42,0.18-0.52,0.38l-0.04,0.08l0,0.02l-0.01,0.05c0,0-0.01,0.04-0.01,0.04l-0.01,0.08
		c-0.13,0.64-0.49,2.72-0.52,2.9c0.06,0.2,0.19,0.38,0.36,0.51l0.04,0.03l0.02,0.04c0.04,0.06,0.16,0.07,0.22,0.08l0.03,0l0.03,0.01
		c0.06,0.01,0.12,0.02,0.18,0.02c0.05,0,0.1-0.01,0.14-0.01l0.09-0.02l0.03,0c0.88-0.08,2.18-0.42,2.57-0.53l2.6-0.55
		c0.18-0.03,0.85-0.14,1.79-0.38l0.1-0.02l0.16-0.04c3.31-0.87,9.01-3,9.96-7.59l0.02-0.06c0.35-1.36,0.08-2.65-0.76-3.73
		c-1-1.13-2.84-1.7-5.47-1.7c-2.25,0-4.39,0.43-4.97,0.59c-4.04,0.94-7.73,3.26-10.97,6.91L71.38,102.32z M108.57,87.67l5.16-9.93
		c0.34-0.53,0.63-1.04,0.92-1.55c0.33-0.59,0.64-1.15,0.99-1.62c0.17-0.22,0.36-0.43,0.56-0.6l0.04-0.04l0.06-0.02
		c0.16-0.06,0.75-0.25,1.32-0.25c0.48,0,0.84,0.13,1.06,0.4c0.44,0.52,0.31,1.53-0.38,3.01c-1.52,3.28-5.44,9.02-8.73,12.82
		c-0.99,1.02-2.02,2.02-3.07,2.97l-0.02,0.02l-0.02,0.01c-0.1,0.06-0.2,0.13-0.29,0.19l-1,0.68L108.57,87.67z"/>
	<path class="st0" d="M37.43,118.75c1.17-0.15,2.32-0.34,3.46-0.57c2.17-0.44,4.28-1.04,6.32-1.77c3.8-1.37,7.33-3.24,10.43-5.54
		c2.26-1.67,4.3-3.58,6.06-5.68c0.93-0.99,1.59-1.8,1.96-2.29l-0.05,0.01l0.58-0.73c0.15-0.18,0.3-0.37,0.44-0.56
		c1.16-1.51,2.2-3.04,3.08-4.55c0.8-1.35,1.48-2.71,2.03-4.04c0.46-1.08,0.84-2.17,1.14-3.22c0.2-0.72,0.37-1.43,0.5-2.11
		c0.09-0.48,0.12-0.74,0.12-0.75c0-0.04,0.05-0.3,0.1-0.75c0.06-0.53,0.12-1.25,0.12-2.16c0-1.18-0.1-2.29-0.32-3.4
		c-0.3-1.52-0.81-2.97-1.52-4.31c-0.89-1.68-2.1-3.2-3.59-4.52c-1.05-0.94-2.28-1.78-3.65-2.53c-0.45-0.24-0.95-0.48-1.56-0.76
		l-0.16-0.07c-0.2-0.09-0.4-0.18-0.6-0.26c-1.04-0.42-2.16-0.78-3.33-1.08c-0.78-0.2-1.59-0.37-2.43-0.52
		c-3.51-0.77-7.21-1.16-10.98-1.16c-9.36,0-18.9,2.37-28.35,7.05l-0.03,0.01c-0.32,0.16-0.64,0.32-0.96,0.48
		c-2.23,1.15-4.33,2.37-6.24,3.63c-1.01,0.66-1.9,1.3-2.73,1.95c-0.45,0.34-0.86,0.69-1.25,1.02c-0.04,0.04-0.08,0.08-0.13,0.11
		c-0.15,0.14-0.31,0.27-0.46,0.41c-0.1,0.09-0.19,0.17-0.28,0.26l-0.17,0.16c-0.4,0.39-0.75,0.77-1.04,1.14
		c-0.3,0.37-0.55,0.74-0.74,1.07c-0.18,0.33-0.32,0.66-0.4,0.95c-0.08,0.28-0.11,0.56-0.1,0.82c0.02,0.3,0.1,0.6,0.24,0.86
		c0.05,0.09,0.1,0.18,0.16,0.27l0.02,0.02l0.01,0.03c0.07,0.19,0.84,1.83,5.39,1.83c0.31,0,0.63-0.01,0.96-0.02
		c2.3-0.11,4.44-0.35,6.38-0.73c0.04,0,0.08-0.01,0.11-0.02c0.23-0.04,0.46-0.09,0.68-0.15c0.59-0.14,1.01-0.25,1.27-0.33
		c-0.67-0.08-1.32-0.17-1.98-0.27c-0.84-0.13-1.47-0.25-2.03-0.38c-0.36-0.08-0.66-0.17-0.92-0.26c-0.32-0.11-0.58-0.23-0.75-0.34
		c-0.09-0.06-0.17-0.12-0.22-0.19c-0.06-0.07-0.08-0.13-0.1-0.17c-0.01-0.04-0.03-0.11-0.03-0.21c0-0.07,0.01-0.18,0.05-0.33
		c0.03-0.12,0.1-0.31,0.25-0.56c0.14-0.24,0.33-0.52,0.56-0.81c0.26-0.31,0.56-0.64,0.89-0.97l0.4-0.38
		c0.17-0.16,0.35-0.32,0.53-0.48c0.35-0.3,0.73-0.61,1.15-0.94c0.12-0.09,0.25-0.19,0.38-0.29c0.68-0.51,1.42-1.03,2.22-1.56
		c0.19-0.12,0.37-0.24,0.56-0.36l0.04-0.03c0.62-0.35,15.28-8.57,28.2-8.57c5.93,0,10.58,1.74,13.83,5.18
		c0.76,0.85,1.41,1.78,1.93,2.75c0.63,1.19,1.09,2.48,1.36,3.85c0.2,1.01,0.29,2.02,0.29,3.09c0,0.86-0.07,1.55-0.12,1.99
		c-0.03,0.26-0.05,0.45-0.07,0.57l-0.03,0.17c-0.01,0.09-0.05,0.31-0.11,0.66c-0.12,0.65-0.27,1.3-0.46,1.97
		c-0.28,1-0.64,2.02-1.07,3.03c-0.53,1.26-1.18,2.55-1.93,3.83c-0.85,1.44-1.84,2.91-2.95,4.35c-1.27,1.65-2.63,3.19-4.02,4.57
		c-0.61,0.61-1.24,1.19-1.88,1.75c-1.07,0.94-2.18,1.8-3.31,2.59c-0.25,0.17-0.49,0.33-0.75,0.5c-0.08,0.05-0.37,0.21-0.37,0.21
		c-1.32,0.73-2.73,1.38-4.21,1.94c-3.16,1.2-6.68,2.01-10.52,2.41l-0.02,0l-0.18,0c-0.17,0-0.35,0.01-0.53,0.01
		c-11.81,0-23.26-4.87-25.44-5.84l-0.02-0.01l-0.02-0.01c-0.22-0.15-0.29-0.16-0.29-0.16l-0.07,0.03l-0.07,0c-0.13,0-0.27,0-0.42,0
		c-0.69,0-1.66,0.04-3.01,0.11c4.42,3.98,10.01,6.99,16.19,8.72c4.06,1.14,8.32,1.72,12.65,1.72C33.5,119.12,35.48,119,37.43,118.75
		"/>
	<path class="st0" d="M209.45,117.44c-0.36-2-1.18-4.15-2.44-6.41c-4.26-7.98-2.87-14.06-1.92-15.25c0.2-0.25,0.4-0.59,0.26-0.84
		c-0.14-0.24-0.58-0.27-0.56-0.27h-5.26c-0.29,0-0.53,0.06-0.71,0.19l-0.05,0.04l-0.04,0.04c-0.09,0.09-0.13,0.17-0.14,0.2
		l-0.01,0.02l-0.45,0.68c-0.06,0.09-0.97,1.39-1.79,2.56l-0.12,0.17c-0.95,1.18-9.34,11.61-11.93,14.28
		c-0.07,0.07-1.7,1.74-2.55,2.12c-0.26,0.12-0.47,0.17-0.69,0.17c-0.13,0-0.26-0.02-0.37-0.05c-0.34-0.05-0.55-0.34-0.65-0.89
		l-0.02-0.11c-0.04-0.51,0.07-1.07,0.3-1.51c0.53-1.03,3.98-7.13,5.99-10.68c1.06-1.86,1.88-3.33,2.09-3.69h-0.02l0.54-0.97
		c0.07-0.14,0.07-0.3-0.01-0.45c-0.11-0.21-0.34-0.39-0.65-0.49l-3.38-0.06l-0.04-0.01c-0.03-0.01-0.07-0.01-0.13-0.01
		c-0.06,0-0.13,0-0.21,0.01c-0.06,0.01-0.12,0.02-0.17,0.02c-0.07,0-0.5,0.06-0.63,0.31l-0.77,1.34l-0.28-0.42
		c-0.13-0.2-0.29-0.39-0.41-0.55l-0.18-0.23c-0.02-0.03-0.04-0.05-0.07-0.09c-1.32-1.62-3.18-2.44-5.55-2.44
		c-1.83,0-3.59,0.5-4.76,0.92c-0.46,0.16-0.88,0.33-1.26,0.5c-0.15,0.07-0.28,0.14-0.39,0.2c-1.91,1-8.41,4.82-11.98,11.9
		l-0.06,0.12c-0.02,0.04-0.04,0.08-0.06,0.12c-0.12,0.24-0.23,0.47-0.33,0.71c-0.16,0.36-0.29,0.73-0.4,1.09
		c-0.87,2.61-0.62,4.76,0.74,6.21c1.17,1.25,3.12,1.93,5.51,1.93c0.93,0,1.88-0.1,2.85-0.3l0.02,0l0.02,0
		c0.08-0.01,0.16-0.02,0.23-0.03c0.23-0.03,0.46-0.07,0.7-0.11c0.21-0.04,0.4-0.08,0.57-0.13c0.55-0.13,0.9-0.25,1.03-0.3
		c0,0,0.02-0.01,0.07-0.02c0.09-0.03,0.28-0.09,0.57-0.21c0.56-0.22,1.12-0.49,1.66-0.81c0.73-0.42,1.49-0.96,2.18-1.55
		c0.64-0.54,1.33-1.2,2.03-1.96l0.86-0.93l-0.34,1.13c-0.04,0.14-0.08,0.27-0.11,0.39c-0.34,1.42-0.59,3.93,1.59,4.7l0.02,0
		l0.05,0.03c0.03,0.01,0.09,0.04,0.26,0.08l0.05,0.01c0.7,0.12,1.97,0.14,2.49,0.14c0.39,0,0.75-0.01,0.98-0.02
		c1.02-0.06,1.73-0.18,2.11-0.36l0.03-0.01l0.02-0.01c0.88-0.25,1.92-0.89,3.09-1.9c0.61-0.48,3.06-3.17,3.08-3.2l6.03-6.47
		c0.08-0.09,0.3-0.33,0.57-0.64c0.79-0.91,2.11-2.43,2.92-3.05c0.22-0.22,0.5-0.46,0.85-0.46c0.09,0,0.18,0.02,0.26,0.05l0.14,0.06
		l0.02,0.13c0.23,1.37,2.18,7.33,3.35,10.92c0.33,1.02,0.6,1.84,0.75,2.29c0.55,1.74,0.76,3.25,0.62,4.51l-0.01,0.03
		c-1.03,4.18-5.31,4.48-5.48,4.49l-0.04,0c-0.59,0.06-1.2,0.07-1.83,0.08l-0.16,0c-0.12,0-0.24,0-0.36,0c-1.06,0-2.14-0.08-3.2-0.2
		c-0.35-0.08-17.05-3.68-65.71-5.13c-28.62-0.85-56.24,3.2-74.34,6.74h0c-0.01,0-0.04,0.01-0.06,0.01
		c-6.45,1.26-11.69,2.46-15.32,3.34c-5.03,0.93-4.51-1.74-3.96-3.09c-0.15,0.3-0.33,0.67-0.54,1.1c0.18-0.58,0.51-1.21,0.89-1.82
		c-0.03,0.04-0.19,0.32-0.35,0.72c0.23-0.47,0.37-0.75,0.35-0.72c1.06-1.68,2.52-3.25,2.52-3.25c-0.35,0.1-0.91,0.28-1.67,0.55
		c-0.3,0.11-0.59,0.21-0.87,0.33c-0.05,0.02-0.09,0.04-0.13,0.06c-2.42,0.97-4.91,2.22-7.42,3.72c-0.02,0.01-0.04,0.03-0.06,0.04
		c-0.01-0.07-0.09-0.02-0.3,0.18c-0.23,0.14-0.45,0.28-0.66,0.43c-3.79,2.56-3.96,4.51-3.81,5.31c-0.01,0.01-0.02,0.03-0.04,0.04
		c2.22,9.32,16.04,5.34,16.04,5.34c1.92-0.41,3.22-0.88,3.22-0.88c10.41-2.97,30.89-10.18,67.3-13.6
		c48.8-4.59,84.93,2.87,84.93,2.87c0.67,0.13,1.34,0.25,2.03,0.33c0.1,0.01,0.2,0.02,0.3,0.04c0.87,0.1,1.76,0.17,2.65,0.17H199
		c0.12,0,0.24,0,0.37-0.01l0.13,0.01c0,0,0.13-0.01,0.35-0.03c0.47-0.03,1.03-0.09,1.6-0.18c0.27-0.04,0.54-0.09,0.82-0.14
		c0.95-0.18,1.9-0.42,2.64-0.71c0.21-0.05,0.42-0.09,0.63-0.14l-0.04-0.07c0.74-0.29,1.43-0.64,2.03-1.04
		c0.91-0.6,1.98-2.79,2.1-3.57C209.8,120.15,209.74,118.85,209.45,117.44 M173.95,110.76l-0.23,0.26c-0.74,0.82-1.44,1.51-2.08,2.05
		c-0.61,0.52-1.25,0.97-1.85,1.31c-0.44,0.25-0.88,0.46-1.33,0.65c-0.23,0.09-0.39,0.14-0.47,0.17l-0.05,0.02
		c-0.22,0.08-0.49,0.15-0.78,0.23c-0.13,0.03-0.28,0.06-0.44,0.09c-0.16,0.03-0.34,0.06-0.52,0.09c-0.35,0.04-0.63,0.06-0.91,0.06
		c-0.11,0-0.22,0-0.33-0.01c-0.49-0.03-0.92-0.12-1.28-0.29c-0.42-0.19-0.77-0.47-1.03-0.85c-0.27-0.4-0.47-0.9-0.56-1.48
		c-0.09-0.56-0.08-1.19,0.02-1.83c0.05-0.32,0.12-0.64,0.22-0.97c0.09-0.31,0.21-0.63,0.36-0.97c0.27-0.62,0.62-1.28,1.05-1.97
		c0.77-1.24,1.75-2.51,2.9-3.79c1.08-1.2,2.24-2.31,3.44-3.29c0.44-0.36,0.89-0.71,1.34-1.03l0.03-0.02l0.05-0.04
		c2.31-1.8,4.21-2.64,5.97-2.64c1.37,0,2.57,0.48,3.94,1.2c0.48,0.25,0.79,0.6,0.92,1.03l0.03,0.09L173.95,110.76z"/>
	<path class="st0" d="M184.73,89.68c-0.45,0-6.38,3.61-6.38,3.61c0.01,0.28,0.35,0.47,0.84,0.47l3.57,0.08c0.45,0,6.38-3.6,6.38-3.6
		l0-0.01c-0.01-0.3-0.38-0.55-0.84-0.55H184.73z"/>
	<path class="st0" d="M85.63,21.72c-6.16-2.78-7.83-6.41-5.26-11.43l2.99-5.83l-1.3,1.52c-0.3,0.35-7.19,8.55-4.11,14.01
		c1.82,3.23,4.07,4.7,6.05,6c2.69,1.76,4.81,3.15,4.75,8.21l-0.01,1.16l0.48-1.09C89.27,34.18,93.14,25.11,85.63,21.72"/>
	<path class="st0" d="M88.71,20.78c2.21,1.29,4.5,2.62,4.95,5.83l0.17,1.22l0.3-1.2c0.02-0.06,1.5-6.13-3.42-7.71
		c-3.91-1.25-5.25-3.39-4.19-6.7l1.25-3.89l-0.8,0.98c-0.15,0.19-3.67,4.57-2.06,8.14C85.59,18.96,87.11,19.84,88.71,20.78"/>
	<path class="st0" d="M84.29,38.01c-0.5-0.8-0.54-1.7-0.11-2.7c1.66-3.84,0.82-8.47-4-9.86l-4.18-1.21c-0.19-0.06-0.3-0.09-0.3-0.09
		l-0.16,0.37l0.29,0.09c1.23,0.37,7.3,2.34,6.33,5.07c-0.61,1.72-2.24,6.3,0.09,8.95c1.13,1.28,3.03,1.98,5.67,2.07l1.99,0.07
		l-1.91-0.45C88,40.3,85.32,39.65,84.29,38.01"/>
	<path class="st0" d="M149.98,29.29c0.05,0.12,0.09,0.24,0.13,0.35c-0.13-0.38-0.27-0.73-0.41-1.03c-0.04-0.1-0.08-0.19-0.12-0.27
		C149.72,28.65,149.85,28.97,149.98,29.29"/>
	<path class="st0" d="M161.35,6.55c4.8-1.51,12.79-1.05,15.45,2.92c1.27,1.89,0.59,3.89,0.31,4.41c-0.09,0.17-0.16,0.17-0.14,0.86
		c0,0.14,1-0.73,1.55-1.51c0.57-0.82,1.64-1.33,2.67-1.68c2.23-0.75,4.88-0.21,6.79,0.85c2.2,1.22,3.54,4.27,2.84,5.98
		c-0.83,2.04-3.37,4.11-5.5,5.14c0,0.4-0.07,1-0.15,1.89c2.47-0.76,5.63-3.11,6.1-6.04c0.26-1.67,0.11-3.62-0.33-5.25
		c-0.8-3.03-3.03-5.14-6.86-5.48c-0.83-0.07-1.66-0.01-2.44,0.2c-3.11,0.83-3.23,2.39-3.76,3.11c0.62-1.69,0.38-2.43-0.07-3.41
		c-1.53-3.34-5.98-5.04-9.67-5.45c-9.52-1.04-21.31,8.66-23.69,15.76c-0.27,0.81,0.23,1.43,0.29,1.83
		C146.8,14.47,154.23,8.79,161.35,6.55"/>
	<path class="st0" d="M189.27,32.07c0.11,0.02,0.22,0.04,0.33,0.06c-0.01-0.01-0.02-0.02-0.03-0.03
		C189.47,32.1,189.37,32.08,189.27,32.07"/>
	<path class="st0" d="M91.82,38.68c-0.07,0.02-0.14,0.03-0.19,0.04C91.69,38.7,91.75,38.69,91.82,38.68"/>
	<path class="st0" d="M191.64,34.09C191.64,34.08,191.64,34.08,191.64,34.09c0.07-0.2,0.06-0.4,0-0.61
		c-0.02,0.1-0.03,0.19-0.03,0.29C191.65,33.89,191.66,34,191.64,34.09"/>
	<path class="st0" d="M174.44,46.72c-0.02-0.06-0.04-0.12-0.06-0.17c0.01,0.03,0.01,0.07,0.01,0.1c-0.29-0.41-0.49-0.87-0.58-1.4
		c0.03,0.21-0.03,0.42,0,0.63c0.09,0.56,0.31,1.05,0.63,1.48c1.1,2.99,9.73,6.25,11.09,2.11c0-0.03,0-0.06,0-0.09
		c0.77-0.16,1.45-0.37,2.01-0.61c0.11-0.05-0.1-0.59,0-0.63C184.29,49.54,176.74,49.78,174.44,46.72 M185.24,49.44
		c-1.51,2.39-6.32,1.23-9.02-0.71C178.65,49.91,182.42,49.98,185.24,49.44"/>
	<path class="st0" d="M172.37,39.54c-0.02-0.04-0.03-0.11-0.04-0.21C172.33,39.43,172.33,39.49,172.37,39.54"/>
	<path class="st0" d="M178.66,37.47c-1.31-0.55-2.66-0.51-4.03-0.16c-0.62,0.16-1.88,0.51-2.24,1.01c-0.06,0.08-0.11,0.68-0.08,1.02
		c0.01-0.09,0.02-0.2,0.02-0.31v0.54c0-0.01,0.02-0.02,0.01-0.03c0.01,0.01,0.03,0.03,0.03,0.04c0,0,0.01,0.01,0.02,0.01
		c0,0,0-0.01,0-0.01c0.33-0.45,1.41-0.74,1.97-0.92c1.41-0.46,2.95-0.5,4.3,0.08C178.46,38.65,178.88,37.56,178.66,37.47"/>
	<path class="st0" d="M180.63,47.3c0.87,0.92,3.72,0.59,4.46-0.41c0.1-0.13,0.28-0.74,0.31-0.74h-0.39v0.64
		c0-0.53,0.12-1.25-0.07-1.65c0.02,0.05,0.1,0.09,0.09,0.15c-0.55-2.05-1.6-4.43-1.28-6.48c0.81-1.51,3.66-0.95,5.2-0.57
		c-0.13-0.03,0.16-1.23,0.01-1.27c-1.63-0.39-4.67-1.01-5.3,0.82c-0.08,0.24-0.01,0.52,0.02,0.78c-0.34,2.54,0.97,5.31,1.52,7.74
		c-0.01,0.01-0.01,0.01-0.01,0.02c-0.13,0.37-0.51,0.61-0.92,0.76c-0.93,0.35-2.97,0.29-3.65-0.42
		C180.75,46.79,180.5,47.16,180.63,47.3"/>
	<path class="st0" d="M174.99,40.54c0.41,0.23,1.17,0.25,1.52,0.03c0.16-0.1,0.18-0.29,0.18-0.46c0.02,0,0.02-0.09,0-0.29
		c0.01-0.22,0.02-0.44-0.13-0.63c-0.28-0.35-0.95-0.32-1.33-0.12c-0.45,0.24-0.43,0.78-0.39,1.2l-0.6,0.06L174.99,40.54z
		 M174.89,40.14C174.89,40.32,174.86,40.26,174.89,40.14 M174.86,39.81c0.01,0.05,0.01,0.09,0.01,0.14c0,0.06-0.01,0.11-0.01,0.15
		C174.87,40,174.87,39.9,174.86,39.81"/>
	<path class="st0" d="M185.57,40.31c0.41,0.23,1.16,0.25,1.52,0.03c0.17-0.1,0.19-0.29,0.19-0.46c0.01,0,0.01-0.09,0-0.29
		c0.01-0.22,0.02-0.44-0.14-0.63c-0.28-0.35-0.95-0.32-1.33-0.12c-0.45,0.24-0.43,0.78-0.39,1.2l-0.61,0.06L185.57,40.31z
		 M185.47,39.9C185.47,40.08,185.44,40.03,185.47,39.9 M185.45,39.58c0,0.05,0.01,0.1,0.01,0.14c0,0.06-0.01,0.11-0.01,0.15
		C185.45,39.77,185.46,39.67,185.45,39.58"/>
	<path class="st0" d="M164.17,42.54c0.47-0.26,0.84-0.32,1.15-0.28c0.86,0.12,1.13,1.11,1.13,1.11c-0.01-0.63-0.33-1.15-0.81-1.47
		c-0.63-0.43-1.52-0.51-2.21,0c-1.06,0.77-1.1,1.82-0.16,3.37c0.14,0.23,0.3,0.47,0.48,0.72c1.41,1.95,3.07,0,2.71,0.34
		c-0.36,0.33-1.08,0.52-1.81-0.19c-0.33-0.32-0.79-0.9-1.04-1.52C163.28,43.85,163.28,43.03,164.17,42.54"/>
	<path class="st0" d="M200.17,77.36c0-0.01,0.01-0.01,0.01-0.02C200.23,77.25,200.2,77.27,200.17,77.36"/>
	<path class="st0" d="M214.71,78.14c0-0.01-0.14-0.01-0.14-0.02c0.01-0.42-0.14-1.1-0.46-2.15c-0.02-0.32-0.04-0.62-0.11-0.9
		c-0.12-0.48-0.52-0.84-0.69-1.1c-0.02-0.06-0.06-0.13-0.07-0.19c-0.02-0.11-0.04-0.24-0.07-0.39c0-0.06-0.01-0.13-0.04-0.2
		c-0.08-0.38-0.24-0.82-0.66-1.14c-0.17-0.13-0.28-0.24-0.36-0.34c-0.05-0.09-0.21-0.57-0.44-0.68c-0.01,0-0.02,0-0.02-0.01
		c-0.13-0.1-0.6-0.21-0.65-0.22c0,0-0.01,0-0.01,0c-0.16-0.03-0.42-0.01-0.44-0.01h-0.18v-0.06c0,0.02-2.54,0.48-2.64,0.5
		c0.48-0.83,0-3.59-0.07-4.1c-0.23-1.68-1.13-1.67-2.69-1.13c-0.93,0.32-2.13,0.95-3.44,4.94c-0.81,1.69-1.64,3.05-3.01,3.79
		c0-0.12,0-0.24-0.04-0.35c-0.12-0.34-0.55-1.52-0.99-1.31c0-0.01,0-0.01-0.01-0.01c-3-0.12-7.82,1.89-11.36,1.5
		c-0.12-0.56,0-1.39,0.36-2.58c0-0.03,1.55-5.7,1.55-5.72c0.96-4.36-2.34-6.28-2.47-6.38c0,0-3.31-2.09-4.14-2.54
		c0.21-0.4,0.57-0.74,0.69-1.17c1.37-0.02,2.69-0.26,3.81-0.88c0.79-0.43,1.85-2.08,2.25-2.73c1.38-2.3,2.24-4.84,3.08-7.32
		c0.9-3.54-1.09-3.74-1.98-5.58c-0.47-0.98,1.92-2.07,1.62-3.11c-0.35-1.22-0.71-1.75-1.05-2.11c0.56,0,1.39-0.16,1.79-0.97
		c0.1-0.25,0.47-0.77-0.26-1.18c-6.02-3.36-6.38-6.2-6.19-7.22c-0.32,0.97-0.43,2.5,0.84,4.04c0.99,1.19,3.54,2.23,4.7,3.48
		c-0.11,0-0.18,0-0.2-0.01c-4.56-0.55-10.72,0.68-12.18,1.09c-3.19,0.93-5.42,1.62-8.04,2.82c-3.13,1.63-5.23,3.37-6.65,5
		c1.01-0.44,2.1,0.01,2.66,0.62c0.36-0.38,0.73-0.75,1.11-1.1c1.19-1.05,2.69-2.13,4.57-3.15c2.16-1.05,5.32-2.39,9.15-3.4
		c0.52-0.12,0.99-0.24,1.43-0.35c1.65-0.38,3.41-0.7,5.25-0.9c0.11,0.15,0.57,0.81,1.04,1.56c0.44,0.94,0.81,1.77,0.55,3.06
		c-0.1,0.54-1.23,1.23-1.3,1.94c-0.12,1.05,1.68,1.8,1.99,3.01c0.91,3.52-1.72,7.33-3.58,10.44c-0.9,1.51-1.14,2.4-3.58,2.64
		c-2.79,0.27-5.93-0.7-8.5-1.49c-1.93-0.6-5.34-2.13-6.65-2.75c-0.82-0.38-0.77-0.46-1.02-2.52c0,0-0.22,2.43,0.7,2.74
		c0.34,0.18,2.64,1.26,3.57,1.65c1.72,0.71,3.44,1.28,4.48,1.59c0.96,0.28,2.03,0.56,3.15,0.77c-0.23,0.01-0.44,0.03-0.52,0.05
		c-0.72,0.13-1.44,0.5-1.82,0.99c-0.26,0.3-0.43,0.66-0.53,1.06c-0.23-0.01-0.46-0.02-0.68-0.04c0.31-0.68,0.59-1.51,0.39-2.2
		c-0.18-0.65-0.86-0.87-1.6-1.06c-1.09-0.27-6.06-1.73-6.06-1.73c0.49,0.2,3.57,1.25,4.07,1.41c0.38,0.12,0.93,0.28,1.35,0.41
		c1.44,0.47,1.22,2,0.51,3.04c-4.18-0.46-8.05-1.78-11.06-4.37c-0.12-0.78,0.29-1.68,0.21-2.6c0.01,0.09,3.81,1.63,4.92,2.11
		c-0.5-0.21-2.22-1.19-3.63-1.92l0.17,0.06c-0.68-1.68-0.87-4.06-0.96-4.95c-0.11-0.13-0.21-0.27-0.3-0.4
		c-0.62-0.85-0.89-1.68-0.84-2.39c-1.66,2.7-1.55,4.78-1.56,5.02c0,0.06-0.8-1.33-1.08-2.04c-0.23-0.58-0.49-1.24-0.8-1.84
		c-0.63-1.22-1.57-1.87-2.12-2.16c0.17-0.19,0.33-0.38,0.49-0.57c1.69-2.16,1.97-4.87,2.5-7.34c0.62-2.9,2.22-5.26,4.95-7.19
		c5.35-3.8,12.15-3.84,20.23-2.31c-0.25-0.05-3.45-2.91-9.47-3.07c0.41-0.58,1.44-2.34,0.25-4.18c0.67,2.08-2.38,3.88-2.38,3.88
		c-0.09,0.05-0.14,0.14-0.16,0.25c-1.47,0.05-2.95,0.33-5.01,1c-3.54,1.16-5.7,3.11-7.06,5.6l-0.43,1.02c0,0-4.66,2.66-6.63-0.42
		c0.86,2.67,4.29,3.02,5.63,3.33c-0.11,0.42-0.2,0.86-0.29,1.28c-1.02,5.12-4.38,10.12-11.07,10.8c-8.1,0.83-9.25-4.13-9.12-5.95
		l1.63-0.17c-0.07-0.38-0.11-0.69-0.14-0.87c4.5-0.23,11.09-0.35,11.09-0.35s0.19-5.75,0-6.68c-0.07,0.01-0.63,0.09-1.6,0.22
		c-1.36-4.07-3.64-7.93-6.98-11.17c-5.36-5.21-13.25-7.27-21.39-6.9c-0.02,0-0.05,0-0.07,0c0.11-1.06,0.28-2.15,0.77-3.14
		c0.01,0.04,0.06-0.22,0.51-0.94c2.61-4.16-14.77,1.15-14.77,1.15c1.18,1.14,2.98,2.8,4.23,4.36c-6.92,1.88-12.92,5.53-16.52,10.96
		c-2.6,3.92-4.25,8.96-3.97,13.69c-0.05,0.01-0.1,0.02-0.16,0.04c0.05-0.01,0.1-0.03,0.16-0.04c0,0.02,0,0.03,0.01,0.05
		c-0.09,0.01-0.22,0.01-0.35,0.01c-0.46,0-1.06,0.01-1.02,0.25c0,0,2.1,4.76,2.15,4.88l20.14-3.08c0,0.35,0.07,0.68,0.29,0.8
		c0.38,0.21,1.16,0.07,1.59,0.07c0.55,0,0.83,0.42,1.36,0.54c0.66,0.15,1.48,0.12,2.16,0.07c0.09-0.01,0.19,0.17,0.28,0.39
		c-1.74-0.12-5.11-0.23-4.97,1.49l-0.02-0.01c0,0,0.11,8.82,1.33,15.71c0.03,0.18,0.04,0.37,0.07,0.55
		c0.58,3.75,1.55,10.21,6.91,11.28c4.86,0.98,10.77-1,15.36-2.15c2.55-0.64,10.11-3.07,11.76-0.49c-1.17,3.24-4.59,5.79-7.07,8.39
		c-2.88,3-4.52,6.3-5.43,10.03c-0.21,0.84,0.03,4.08-0.17,4.91c0.93-3.77,2.78-9.26,5.61-12.33c2.75-2.99,6.78-5.74,7.4-9.65
		c0.22-1.36,0.37-3.59-0.85-4.62c-1.87-1.59-7.76,0.3-9.93,0.83c-4.96,1.21-15.36,5.31-19.26,0.68c-1.95-2.31-2.48-5.33-2.48-8.22v0
		c-1.59-4.08-1.61-11.2-1.68-13.63c1.64,1.1,5.71,1.1,7.27,1.13c3.02,0.05,5.94-0.36,8.72-1.35c1.07,0.09,1.28,1.15,1.28,2.4
		c-0.42,2.97-1.99,5.09-1.99,8.98h0c0,0,0.19,0.72,0.31,1.07c0.01,0.03,0.36-0.13,0.36-0.09v0.19c0-0.05-0.28-0.1-0.28-0.15
		c0.08,0.37,0.14,0.7,0.63,0.98c1.53,0.88,3.94,0.66,6.01,0.35c1.77-0.17,3.58-0.47,5.15-0.78c6.47-1.12,16.64-3.21,19.47-3.8
		c0.09,0.06,0.18,0.12,0.29,0.17c2.87,2.18,6.41,3.36,10.34,3.85c1.44,0.18,2.91,0.23,4.37,0.24c0.75,0,1.11,0.04,1.9,0.25
		c2.94,0.76,0.24,3.65-0.59,4.64c-7.04,8.41-16.14,17.58-16.6,28c-0.02,0.39,0.8-2.54,0.85-2.87c1.75-11.17,11.98-17.83,19.13-26.93
		c1.52-1.93-0.22-2.99-2.36-3.42c0.46-0.05,0.89-0.13,1.27-0.24c0.97,0.53,1.61,0.81,1.98,1.08c0,0,1.57,0.87,2,2.08
		c1.08,2.08,0.42,4.62,0.42,4.62c-0.16,1.31-1.82,4.95-1.85,5.02c-0.51,1.69-0.5,3.2,0.07,3.85c0.01,0.04,0.03,0.07,0.05,0.1
		c3.06,2.81,9.54-0.24,13.54-0.41c-0.05,0.22-0.11,0.38-0.16,0.89h0c-0.04,0-0.05,0.2-0.04,0.41c-0.16,1.47-0.17,3.72,0.82,5.76
		c0.66,1.36,1.21,2.15,1.62,2.6c-4.41,1.09-9.19,1.51-13.74,1.49c-3.55-0.02-9.97-0.58-11.09-3.99c2.17-2.44,4.32-4.85,5.98-7.56
		c0.43-0.7-0.42-1.92,0-2.6c-1.49,2.43-3.57,4.59-5.54,6.8c0,0-0.01,0-0.01,0.01c-1.49,1.68-2.91,3.38-3.95,5.26
		c-0.16,0.29-1.35,1.93-0.75,3.36c0.48,1.15-0.03,3.57-0.03,4.57c0.58,0.03,1.06,0.07,1.1,0.02c0.12-0.13-0.23-2.48-0.32-4.35
		c-0.08-1.77,2.21-4.04,2.8-4.7c0.2-0.22,0.39-0.45,0.59-0.67c1.24,8.15,20.23,5.09,26.56,3.25c0.18,0.03,0.36,0.03,0.54-0.05
		c0.84-0.34,0.87-1.29,0.82-2.05c0.25-0.06,0.49-0.12,0.69-0.16c0.66,0.3,1.21,0.21,2.07,0c0.76-0.19,1.5-0.52,2.27-0.66
		c0.12,0.08,0.26,0.14,0.42,0.19c0,0,0.01,0,0.01,0c0.38,0.17,0.9,0.18,1.34,0.22c0.91,0.07,2.14,0.29,2.98-0.08
		c0.52-0.23,1.66-0.66,1.66-1.16v0C213.55,81.12,214.87,79.46,214.71,78.14 M117.53,7.58c0.97-0.17,5.02-0.39,3.58,1.06
		c-1.21,1.15-4.14,1.41-5.61,1.51c-0.56,0.04-2.65-0.01-4.13-0.19C106.98,9.43,117.55,7.58,117.53,7.58 M110.91,10.44
		c0.42,0.09,0.87,0.14,1.12,0.2c2.22,0.5,6.78,0.42,8.78-1.17c-0.36,1.06-0.58,2.17-0.67,3.19c-2.42,0.2-4.8,0.6-7.09,1.18
		C112.49,12.65,111.77,11.5,110.91,10.44 M102.34,20.98c6.92-4.81,17.44-6.65,26.28-5.61c10.28,1.21,17.2,7.82,20.57,15.39
		c-10.96,1.51-53.38,7.34-56.8,7.81C91.48,32.25,96.82,24.82,102.34,20.98 M91.55,38.74C91.47,38.76,91.45,38.76,91.55,38.74
		 M94.67,42.65c0-0.06-0.81-2.1-0.8-2.15c0.1-0.03,23.44-5.05,51.31-7.12c0.19-0.02,4.38-0.46,4.38-0.46
		c0.02,0.07,0.29,3.16,0.29,3.16c-1.19,0.03-21.91,1.69-36.82,3.79c0-0.01,0-0.02,0-0.03c0,0.01,0,0.02-0.01,0.03
		c-2.08,0.29-4.04,0.59-5.83,0.9C101.65,41.71,97.03,42.17,94.67,42.65 M118.63,45.06c0.03-0.46-0.21-0.91-0.21-1.29v0.17v0.1
		c0,0.17,0.23,0.33,0.22,0.5c0-0.02,0.11,0.31,0.09,0.52c-1.7-0.14-3.5-0.42-4.41-0.97c1.17-0.58,3.5-0.23,4.55-0.15
		c-0.01,0-0.24-0.1-0.23-0.24c0,0.02-0.22,0.05-0.22,0.07v-0.23c0-0.38,0.67,0.02,0.63,0.02h-0.09c-0.05,0-0.3-2.19-0.63-2.17
		c-1.07,0.07-2.29-0.12-3.09-0.77l14.73-2.37c0.06,0.36,0.33,1.72-3.11,1.47c-1.68-0.12-0.74,2.68-0.56,5.22
		c-1.41,0.18-2.97,0.25-4.41,0.26C121.38,45.21,120.01,45.18,118.63,45.06 M130.97,43.85c0,0,0.01-0.02,0.01-0.02
		c-0.02,0.01,0.1,0.01,0.08,0.02c-0.03,0,0.05-0.01,0.05-0.01v0.04c-1.59,0.34-2.08,0.6-3.09,0.79c0.03-1.75,0.09-3.23,0.34-3.53
		c0.01-0.01,0-0.01,0.02-0.02c0.39,0.03,0.72,0.05,1.01,0.05c0.1,0,0.18,0,0.27,0c0.12,0,0.23,0,0.33,0
		c0.74-0.03,1.2-0.17,1.48-0.45c0.23-0.22,0.33-0.52,0.31-0.96c-0.01-0.07-0.01-0.15-0.02-0.23c-0.01-0.08-0.02-0.16-0.04-0.25
		l7.28-0.78c-0.86,2.02,0.2,4.94,1.67,6.39c4.17,4.09,10.84,2.01,14.78-1.29c2.18-0.53,4.46,5.32,4.95,5.85
		c0.44,0,2.6-0.83,2.64-0.87l0.6,2.14c-0.41-0.2-0.78-0.37-1.02-0.46c-0.09-0.03-0.48,0.27-0.46,0.59c0.05,0.68-0.15,1.61-0.51,2.11
		c-1.48,0.27-23.85,4.4-26.72,4.6c-3.04,0.21-4.22-0.33-4.16-1.46c-0.01-0.01-0.01-0.01-0.02-0.02c0.01-0.12,0.02-0.29,0.03-0.41
		c0.02-0.12,0.05-0.24,0.07-0.36c0.12-0.51,0.26-1.03,0.4-1.54c0.32-1.19,0.64-2.37,0.91-3.57
		C132.43,48.94,133.53,44.1,130.97,43.85 M178.35,58.06c-0.36-0.04-0.73-0.06-1.07-0.06c-0.35-0.77,0.4-1.58,1.31-1.85
		c0.59-0.1,1.25-0.02,1.87,0.03c0.38,0.03,1.39-0.13,1.13,0.36c-0.15,0.28-0.34,0.5-0.5,0.75
		C180.19,57.57,179.28,57.88,178.35,58.06 M213.05,74.78c0.1,0.06,0.2,0.12,0.29,0.19c0.07,0.08,0.14,0.19,0.21,0.32
		c0.14,0.43,0.27,0.96,0.24,1.38c-0.02,0.09-0.04,0.17-0.06,0.26c-0.08,0.22-0.13,0.35-0.15,0.42c-0.06,0.15-0.13,0.29-0.21,0.43
		c-0.43,0.76-1.08,1.43-1.72,1.69c-0.99,0.4-2.27,0.17-3.33,0.2c-1.21,0.03-2.26,0.07-2.54-0.94c-0.02-0.25,0.04-0.4,0.16-0.55
		c1.14,0.33,3.01,0.11,3.76,0.05c2.17-0.2,2.95-1.86,3.27-3.46C212.99,74.77,213.02,74.78,213.05,74.78 M212.26,72.98
		c0.03,0.02,0.06,0.05,0.08,0.08c0.11,0.12,0.25,0.29,0.37,0.53c0.02,0.06,0.41,0.13,0.43,0.19c0.08,0.24,0.41,0.53,0.41,0.89v0
		c0,0.1-0.39,0.14-0.39,0.15c-0.37,1.27-1.3,2.46-2.93,2.72c-0.95,0.16-4.43,0.55-4.88-0.59c-0.13-0.6,0.11-0.9,0.58-1.08
		c0.01,0,0.01,0,0.02,0.01c0.59,0.19,1.34,0.18,1.96,0.11c0.53-0.03,0.73-0.1,1.22-0.2c0.47-0.1,1.25-0.94,1.25-1.4v0
		c0-0.07,0.45-0.12,0.49-0.17c0.17-0.17,0.48-0.36,0.59-0.56c0.13-0.18,0.36-0.37,0.46-0.53C212,72.99,212.18,72.95,212.26,72.98
		 M198.18,74.91c-0.33,0.14-0.69,0.26-1.08,0.33c0.01-0.13,0.02-0.24,0.03-0.29c0.05-0.22,0.15-0.43,0.34-0.58c0.01,0,0.01,0,0.02,0
		c0,0,0-0.01,0-0.02c0.01,0,0.01-0.01,0.02-0.02C197.75,74.18,197.99,74.53,198.18,74.91 M200.31,83.35
		c-0.02-0.02-0.04-0.04-0.07-0.05c0.37-0.1,0.99-0.29,1.6-0.45C201.7,83.45,201.2,83.87,200.31,83.35 M204.42,82.07
		c-1.75,0.69-2.89-0.73-2.89-1.01c0.03-1.04,0.6-1.23-0.47-2.07c-1.1-0.65-0.98-1.4-0.89-1.64c-0.26,0.45-0.35,0.69,0.25,1.56
		c0.01,0.01,0.01,0.01,0.02,0.02c0.27,0.49,0.48,0.94,0.61,1.5c-0.01,0.17-0.17,0.33-0.17,0.48v0.06c0-0.02,0.18-0.04,0.18-0.05
		c0.04,0.38,0.28,0.73,0.66,1.06c-0.75,0.2-1.5,0.37-2.37,0.55c-0.48-0.55-0.83-1.21-1.13-1.78c-0.52-0.97-0.8-2.04-0.98-3.12
		c-0.02-0.09-0.03-0.18-0.04-0.26c-0.01-0.07-0.01-0.14-0.02-0.21c3.35-0.73,5.41-4.49,6.26-6.91c0.43-1.21,0.7-2.36,2.13-3.09
		c2.07-1.05,1.69,2.48,1.43,3.59c-0.21,0.91-0.61,1.28-0.6,1.4c0.35-0.03,1.64-0.36,2.39-0.5c0.08-0.01,2.76-0.41,2.96,0.39
		c0.16,0.65-0.45,1.38-0.7,1.65c-0.06,0.06-0.11,0.12-0.18,0.18c-0.52,0.47-0.92,1.15-1.7,1.32c-0.74,0.15-3.16,0.57-3.84-0.09
		c-0.16-0.15-0.23-0.36-0.13-0.78c0.01-0.05,0.03-0.08,0.05-0.12c0.68-0.73,2.69-0.15,3.22-1.22c0.09-0.19-0.09-0.47,0-0.65
		c-0.46,0.94-2.04,0.71-2.91,1.09l0-0.01c0,0-0.99,0.22-0.59,1.62c0.05,0.24,0.18,0.42,0.35,0.56l-0.01,0c0,0-0.42,0.25-0.59,0.8
		c-0.18,0.55-0.15,1.07,0.23,1.55c0.38,0.47,0.38,0.42,0.36,0.91c-0.02,0.49,0.26,1.41,0.92,1.51c0.14,0.02,0.23,0.07,0.32,0.13
		c-0.12,0.14-0.12,0.53,0.07,0.91C205.86,81.56,205.19,81.77,204.42,82.07 M201.27,80.66c-0.01-0.04-0.02-0.08-0.02-0.11v-0.01
		c0,0.02,0.02,0.05,0.02,0.08C201.27,80.63,201.27,80.65,201.27,80.66 M211.83,81.49c-0.76,0.55-1.7,0.3-2.61,0.24
		c-1-0.06-1.97-0.07-2.13-0.92c0.03-0.16,0.08-0.31,0.16-0.45c0.4,0.01,0.81-0.02,1.07-0.03c1.05-0.04,2.09,0.09,3.12-0.13
		c0.98-0.21,2.11-1.15,2.11-2.08v0.02c0,0,0.29-0.76,0.46-0.68c0.04,0.04,0.08,0.08,0.11,0.12c0.01,0.01,0.01,0.03,0.02,0.05
		c0.04,0.16,0.06,0.3,0.06,0.44C213.9,79.32,212.94,80.68,211.83,81.49"/>
	<path class="st0" d="M169.41,72.03c0.1-0.07,0.16-0.14,0.21-0.22c0.39-0.49,0.54-1.17,0.31-1.65c-0.04-0.08-0.29-0.03-0.29,0.05
		c-0.01,0-0.03-0.01-0.04-0.01c-0.01-0.04-0.11-0.07-0.2-0.04c-0.64,0.24-1.15,0.68-1.42,1.2c-0.12,0.23-0.42,0.89,0.07,1.01
		C168.6,72.5,169.06,72.33,169.41,72.03"/>
	<path class="st0" d="M164.85,78.88c0.1-0.07,0.16-0.14,0.21-0.22c0.4-0.49,0.54-1.17,0.31-1.65c-0.04-0.08-0.29-0.02-0.3,0.05
		c-0.01,0-0.02-0.01-0.03-0.01c-0.01-0.04-0.11-0.07-0.2-0.04c-0.63,0.24-1.14,0.68-1.42,1.2c-0.12,0.23-0.42,0.89,0.07,1.01
		C164.04,79.34,164.5,79.18,164.85,78.88"/>
	<path class="st0" d="M161.27,84.52c-0.01,0-0.02,0-0.04-0.01c0-0.04-0.11-0.07-0.2-0.04c-0.63,0.24-1.15,0.68-1.42,1.2
		c-0.12,0.23-0.42,0.89,0.07,1c0.54,0.13,1.01-0.04,1.35-0.34c0.1-0.07,0.17-0.14,0.21-0.22c0.4-0.49,0.54-1.17,0.31-1.65
		C161.53,84.39,161.28,84.45,161.27,84.52"/>
</g>
</svg>
