<?xml version="1.0" encoding="utf-8"?>
<!-- Generator: Adobe Illustrator 28.0.0, SVG Export Plug-In . SVG Version: 6.00 Build 0)  -->
<svg version="1.1" id="Capa_1" xmlns="http://www.w3.org/2000/svg" xmlns:xlink="http://www.w3.org/1999/xlink" x="0px" y="0px"
	 viewBox="0 0 286.94 177.2" style="enable-background:new 0 0 286.94 177.2;" xml:space="preserve">
<style type="text/css">
	.st0{fill:#FFFFFF;}
	.st1{fill:#309D3C;}
	.st2{fill:#E44820;}
</style>
<g>
	<path class="st0" d="M137.18,85.41c0.87,0,1.88,0.33,2.68,1.5l3.2,4.52l3.2-4.52c0.8-1.17,1.78-1.5,2.68-1.47
		c1.29,0.03,2.33,0.73,2.26,0.9l-5.75,7.6c-0.42,0.57-1.11,1.02-2.44,1.02c-1.29,0-1.99-0.45-2.44-1.02l-5.68-7.6
		C134.81,86.16,135.89,85.43,137.18,85.41z"/>
</g>
<g>
	<path class="st1" d="M23.71,137.57c0.02,0,0.03,0,0.04,0c0,0,0,0,0,0c0.28-0.27,2.16-3.07,5.62-8.32c0.13-0.18,0.25-0.37,0.38-0.57
		c0.17-0.26,0.39-0.6,0.64-0.99l19.05-29.52c0.51-0.75,0.96-1.44,1.38-2.14c0.11-0.17,2.76-4.13,3.04-4.48
		c0.08-0.09,0.09-0.18,0.04-0.24C53.85,91.22,53.57,91,52.26,91c-0.34,0-0.69-0.01-1.03-0.02c-0.31-0.01-0.62-0.02-0.91-0.02
		c-0.75,0-1.55,0.06-1.88,0.51c-0.5,0.67-5.88,8.97-7.52,11.49l-0.08,0.11c-1.09,1.63-2.34,3.53-3.41,5.23
		c-1.11,1.74-2.02,3.2-2.37,3.76l-6.6,10.6c-0.02,0.02-1.29,2.05-1.29,2.05c-0.77,1.21-1.38,2.18-1.77,2.79l-0.03,0.05
		c-0.38,0.59-0.72,1.15-1.06,1.71c-2.54,4.05-3.71,5.92-3.78,6.06c-0.01,0.04-0.05,0.1-0.1,0.18c-0.28,0.42-0.35,0.69,0.07,0.96
		C21.12,136.86,23.17,137.57,23.71,137.57"/>
	<path class="st1" d="M148.26,112.88c-0.57,0-1.03,0.37-1.05,0.83l0,0.05l-1.36,3.08l-0.01,0.02c0.02,0.43,0.44,0.73,1.06,0.73
		l4.49,0.11c0.56,0,1.03-0.37,1.05-0.83l0-0.05l1.35-3.08l0.01-0.02c-0.02-0.46-0.48-0.84-1.05-0.84H148.26z"/>
	<path class="st1" d="M95.24,128.1c-0.37,0.41-0.74,0.82-1.08,1.22c-0.09,0.1-0.18,0.21-0.27,0.32l-0.12,0.15
		c-0.81,0.99-1.51,1.93-2.14,2.9c-0.14,0.22-0.28,0.44-0.42,0.66c-3.09,4.86-3.7,8.82-1.76,11.44c1.55,2.09,4.76,3.25,9.28,3.35
		c0.22,0.01,0.45,0.01,0.67,0.01c2.08,0,4.45-0.21,7.02-0.62l0.2-0.03c0.15-0.02,0.29-0.05,0.43-0.07l0.08-0.01
		c0.75-0.14,1.52-0.32,2.36-0.55c0.43-0.12,0.83-0.25,1.23-0.41c2.47-0.88,4.91-2.2,7.27-3.93l0.71-0.52l-0.1,0.78
		c-0.1,0.79-0.1,2.28,0.97,3.41l0.06,0.09l0.3,0.44l0.42,0.34c0.02,0.02,0.04,0.03,0.06,0.04c0.03,0.02,0.06,0.03,0.08,0.05
		l0.43,0.31l0.45,0.19c0.66,0.28,1.46,0.47,2.38,0.55l0.11-0.01h0.03c0.09,0.01,0.18,0.01,0.28,0.01c1.23,0,3.85-0.53,7.46-4.05
		l0.24-0.22l0.32-0.33c0.18-0.19,0.37-0.38,0.55-0.58l0.39-0.42l0.32-0.37c0.17-0.2,0.34-0.4,0.5-0.6l1.19-1.42l-0.52,1.67
		c-0.36,1.17-0.77,3.37,0.58,4.87c0.95,1.06,2.63,1.59,4.98,1.59c0.28,0,0.56-0.01,0.88-0.02c0.28-0.01,0.75-0.04,1.3-0.25
		l0.13-0.05l0.01-0.01l0.02-0.01c0.46-0.21,0.9-0.54,1.24-0.95l0.01-0.02l0.02-0.01c0.06-0.06,0.15-0.14,0.24-0.25l0.02-0.03
		l0.07-0.05c0.36-0.3,4.26-5.12,8.03-9.79c3.56-4.41,7.25-8.97,8.34-10.2l0.3-0.32c0.42-0.45,0.81-0.85,1.16-1.22l0.3-0.31
		c1.22-1.15,1.78-1.29,2.09-1.29c0.48,0,0.79,0.38,0.91,1.15c0.07,0.66-0.06,1.42-0.35,2.02c-0.46,0.94-2.77,5.32-7.09,13.42
		l-2.48,4.64h0.02l-0.64,1.22c-0.09,0.18-0.08,0.39,0.02,0.59c0.14,0.26,0.42,0.48,0.79,0.61l3.97-0.05l0.06,0.02
		c0.18,0.05,0.37,0.08,0.58,0.08c0.47-0.01,0.85-0.2,0.99-0.49l0.08-0.16l0.03-0.03c1.08-1.24,4.25-5.17,7.61-9.32l0.13-0.15
		c3.54-4.38,7.2-8.91,8.28-10.13l0.44-0.47c0.37-0.39,0.71-0.75,1.04-1.09c0.09-0.1,0.18-0.19,0.28-0.29
		c1.22-1.15,1.78-1.28,2.1-1.28c0.48,0,0.78,0.38,0.91,1.15c0.07,0.67-0.06,1.42-0.35,2.01c-0.63,1.3-4.71,8.97-7.09,13.43
		c-1.25,2.34-2.24,4.19-2.48,4.64h0.02l-0.64,1.22c-0.11,0.21-0.08,0.45,0.08,0.68c0.15,0.23,0.41,0.41,0.73,0.52l3.97-0.05
		l0.06,0.02c0.18,0.05,0.37,0.08,0.56,0.08l-0.01,0.01l0.04,0v0l0.08,0c0.43-0.03,0.77-0.21,0.91-0.49l0.4-0.81l0.02-0.03
		c1.32-1.56,4.25-5.18,7.35-9.02l0.04-0.05c3.56-4.4,7.23-8.94,8.31-10.16l0.3-0.32c0.42-0.45,0.81-0.86,1.16-1.22
		c0.1-0.11,0.2-0.21,0.29-0.31c1.22-1.15,1.78-1.28,2.09-1.28c0.48,0,0.79,0.38,0.91,1.15c0.07,0.66-0.05,1.42-0.35,2.01
		c-0.59,1.2-4.18,7.97-7.1,13.43c-1.19,2.24-2.14,4.02-2.44,4.58l-0.03,0.06h0.03l-0.65,1.22c-0.21,0.44,0.15,0.97,0.81,1.2
		l3.97-0.05l0.07,0.02c0.18,0.06,0.36,0.08,0.58,0.08c0.47-0.01,0.85-0.19,0.99-0.49l2.13-4.32c0.03-0.05,0.04-0.11,0.05-0.17
		l0.01-0.04l4.09-8.52c0.03-0.04,2.21-4.71,3-8.18c0.1-0.33,0.16-0.62,0.18-0.94c0.16-1.05,0.11-1.8-0.14-2.23l-0.02-0.04
		l-0.01-0.04c-0.07-0.29-0.16-0.56-0.28-0.82c-0.14-0.3-0.31-0.58-0.51-0.83c-0.24-0.29-0.53-0.54-0.84-0.74
		c-0.32-0.2-0.7-0.36-1.1-0.47c-0.06-0.01-0.2-0.05-0.2-0.05l-0.03-0.01c-0.03-0.01-0.33-0.11-0.88-0.11
		c-0.97,0-2.58,0.31-4.75,1.78l-12.24,14.94l1.11-2.43c0.36-0.8,2.22-4.92,2.92-8.03c0.11-0.34,0.16-0.62,0.18-0.94
		c0.16-1.05,0.11-1.8-0.13-2.23l-0.02-0.04l-0.01-0.04c-0.07-0.29-0.16-0.57-0.28-0.82c-0.14-0.3-0.31-0.58-0.51-0.83
		c-0.23-0.29-0.52-0.54-0.84-0.74c-0.32-0.2-0.7-0.36-1.08-0.46l-0.22-0.05l-0.02-0.01c-0.05-0.02-0.35-0.11-0.88-0.11
		c-0.97,0-2.59,0.31-4.75,1.78l-12.69,15.49l1.49-3.11c0.09-0.2,2.23-4.78,2.99-8.18c0.11-0.32,0.16-0.62,0.19-0.94
		c0.15-1.04,0.11-1.79-0.14-2.23l-0.02-0.03l-0.01-0.04c-0.07-0.29-0.16-0.56-0.28-0.82c-0.13-0.3-0.31-0.58-0.51-0.83
		c-0.23-0.29-0.52-0.54-0.84-0.74c-0.31-0.2-0.69-0.36-1.09-0.47c-0.06-0.02-0.12-0.03-0.18-0.04l-0.03-0.01l-0.03-0.01
		c-0.03-0.01-0.33-0.11-0.87-0.11c-0.97,0-2.59,0.31-4.75,1.78l-14.5,17.71l-0.1,0.11c0,0-0.05,0.08-0.09,0.13l-2.43,2.97
		c-1.39,1.54-2.54,2.49-3.39,2.81c-0.18,0.07-0.36,0.11-0.5,0.12l-0.03,0l-0.02,0c-0.27-0.02-0.5-0.11-0.68-0.28
		c-1.03-0.98,0.1-4.19,0.23-4.45c0.47-0.94,2.85-5.3,7.27-13.36l0.89-1.61c0.51-0.93,0.95-1.71,1.26-2.28
		c0.17-0.29,0.61-1.04,0.9-1.7l0.13-0.23c0.03-0.07,0.06-0.15,0.07-0.25l0.01-0.03v-0.01c0.05-0.19,0.03-0.35-0.08-0.49
		c-0.21-0.28-0.68-0.39-0.73-0.4l-0.02,0l-0.04-0.01h-0.35c-0.89-0.03-3.07-0.1-3.96-0.1c-0.13,0-0.23,0-0.3,0.01
		c-0.18,0-0.35,0.03-0.51,0.09c-0.16,0.05-0.23,0.11-0.24,0.12l-0.03,0.02c-0.1,0.07-0.17,0.15-0.22,0.25l-2.19,4.3
		c-0.03,0.05-0.04,0.11-0.05,0.17l-0.01,0.04l-4.22,8.48c0,0.01-0.42,0.87-0.96,2.12l-0.01,0.01l-0.45,0.76
		c-0.33,0.45-0.64,0.88-0.96,1.29l0.04-0.02l-0.83,0.98c-0.47,0.55-1.07,1.26-1.54,1.79l-0.03,0.06l-0.03,0.03
		c-0.15,0.16-0.29,0.31-0.44,0.46l-0.27,0.27c-2.96,2.93-4.73,3.26-5.21,3.29l-0.03,0l-0.03,0c-0.89-0.06-1.53-0.61-1.65-1.42
		l0-0.03c-0.07-0.66,0.06-1.4,0.35-2c0.62-1.28,4.71-8.96,7.1-13.43l4.23-7.84l0.06-0.04c0.4-0.29,0.81-0.61,1.27-0.97
		c2.28-1.79,6.65-5.4,10.25-9.42c5.03-5.18,8-9.44,8.83-12.65c0.76-2.94,0.51-5.09-0.76-6.39c-0.79-0.81-1.95-1.25-3.39-1.28
		c-0.16-0.01-0.33-0.02-0.49-0.02c-1.63,0-7.29,0.7-12.03,9.72c-2.22,4.06-9.57,18.24-15.17,29.51c-1.2,2.42-2.26,4.58-3.14,6.41
		l-0.02,0.04l-0.02,0.03c-0.37,0.41-0.75,0.83-1.17,1.29l-0.04,0.04c-1.41,1.52-2.96,2.92-4.61,4.15l-0.44,0.32
		c-0.16,0.12-0.33,0.24-0.5,0.35c-4.82,3.09-9.13,4.66-12.82,4.66c-0.22,0-0.43-0.01-0.67-0.02l-0.15,0.01l-0.64-0.08
		c-1.36-0.17-2.62-0.55-3.83-1.18c-2-1.04-2.78-2.54-2.33-4.5c0-0.03,0.01-0.06,0.01-0.08c0.1-0.64,0.29-1.3,0.57-2.04
		c0.45-1.18,1.09-2.41,1.96-3.74c0.68-1.05,1.47-2.1,2.34-3.13c0.74-0.87,1.53-1.71,2.28-2.43c3.91-3.34,8.49-5.69,12.56-6.44
		l0.01-0.01l0.2-0.02c0.3-0.02,0.6-0.03,0.87-0.03c2.29,0,3.1,0.83,3.38,1.53l0.01,0.02l0,0.03c0.13,0.66-0.04,1.41-0.21,1.85
		c-0.01,0.03-0.03,0.06-0.04,0.09c-0.73,1.46-3.12,3.09-5.13,3.95c-0.4,0.15-0.8,0.29-1.21,0.43c-1.74,0.44-8.05,1.63-8.77,1.77
		l-2.76,0.52c-0.29,0.05-0.52,0.23-0.66,0.48l-0.05,0.1l0,0.02l-0.02,0.06c0,0-0.02,0.05-0.02,0.05l-0.02,0.1
		c-0.16,0.8-0.62,3.42-0.66,3.65c0.07,0.25,0.24,0.48,0.46,0.64l0.05,0.04l0.03,0.05c0.05,0.07,0.21,0.09,0.28,0.1l0.04,0l0.04,0.01
		c0.08,0.01,0.15,0.03,0.23,0.03c0.07,0,0.13-0.01,0.17-0.01l0.11-0.03l0.03,0c1.11-0.1,2.74-0.53,3.24-0.66l3.27-0.69
		c0.23-0.04,1.07-0.18,2.25-0.48l0.13-0.03l0.21-0.05c4.17-1.09,11.33-3.78,12.53-9.54l0.02-0.07c0.43-1.7,0.1-3.33-0.96-4.69
		c-1.26-1.42-3.57-2.14-6.87-2.14c-2.83,0-5.52,0.54-6.26,0.74c-5.08,1.18-9.72,4.1-13.8,8.69L95.24,128.1z M142.01,109.68
		l6.49-12.49c0.43-0.66,0.8-1.31,1.16-1.95c0.42-0.74,0.81-1.44,1.24-2.04c0.21-0.28,0.45-0.54,0.7-0.76l0.05-0.05l0.07-0.02
		c0.21-0.07,0.94-0.32,1.66-0.32c0.61,0,1.06,0.17,1.33,0.5c0.55,0.65,0.39,1.93-0.48,3.79c-1.91,4.12-6.84,11.34-10.98,16.11
		c-1.24,1.28-2.54,2.54-3.86,3.73l-0.02,0.02l-0.03,0.02c-0.13,0.08-0.25,0.16-0.36,0.24l-1.25,0.86L142.01,109.68z"/>
	<path class="st1" d="M52.56,148.77c1.47-0.18,2.92-0.42,4.35-0.71c2.73-0.56,5.39-1.31,7.95-2.23c4.78-1.72,9.21-4.07,13.11-6.96
		c2.84-2.11,5.41-4.5,7.62-7.15c1.17-1.25,2-2.27,2.47-2.88L88,128.85l0.73-0.91c0.18-0.23,0.37-0.47,0.56-0.7
		c1.46-1.9,2.77-3.83,3.88-5.72c1-1.7,1.86-3.41,2.56-5.08c0.57-1.36,1.05-2.72,1.43-4.05c0.25-0.91,0.46-1.8,0.62-2.66
		c0.11-0.61,0.15-0.94,0.15-0.95c0.01-0.04,0.06-0.37,0.13-0.95c0.07-0.66,0.15-1.57,0.16-2.72c0-1.48-0.13-2.88-0.4-4.27
		c-0.38-1.91-1.02-3.74-1.92-5.42c-1.12-2.12-2.64-4.03-4.52-5.69c-1.32-1.18-2.87-2.24-4.59-3.18c-0.56-0.3-1.19-0.61-1.97-0.95
		l-0.2-0.09c-0.25-0.11-0.5-0.23-0.76-0.33c-1.3-0.52-2.71-0.98-4.18-1.36c-0.97-0.25-2-0.47-3.06-0.65
		c-4.41-0.97-9.06-1.46-13.81-1.46c-11.77,0-23.76,2.98-35.65,8.87l-0.03,0.02c-0.4,0.2-0.81,0.4-1.2,0.61
		c-2.8,1.45-5.45,2.98-7.85,4.57c-1.27,0.84-2.39,1.64-3.44,2.45c-0.56,0.43-1.08,0.87-1.57,1.28c-0.05,0.05-0.1,0.1-0.16,0.14
		c-0.19,0.17-0.39,0.34-0.58,0.52c-0.12,0.11-0.24,0.22-0.36,0.33l-0.21,0.21c-0.5,0.49-0.94,0.97-1.31,1.43
		c-0.38,0.47-0.69,0.92-0.93,1.35c-0.23,0.42-0.4,0.83-0.5,1.19c-0.1,0.35-0.13,0.7-0.12,1.04c0.02,0.38,0.12,0.75,0.3,1.08
		c0.06,0.11,0.13,0.23,0.21,0.34l0.02,0.03l0.01,0.03c0.09,0.24,1.05,2.3,6.77,2.3c0.39,0,0.79-0.01,1.2-0.03
		c2.89-0.13,5.59-0.44,8.02-0.92c0.05-0.01,0.1-0.02,0.14-0.03c0.29-0.05,0.57-0.12,0.86-0.18c0.74-0.17,1.27-0.31,1.6-0.41
		c-0.84-0.1-1.66-0.21-2.49-0.34c-1.06-0.17-1.84-0.32-2.55-0.48c-0.45-0.11-0.83-0.21-1.16-0.33c-0.4-0.14-0.73-0.28-0.95-0.43
		c-0.11-0.07-0.21-0.15-0.28-0.24c-0.08-0.09-0.1-0.16-0.12-0.22c-0.02-0.05-0.04-0.13-0.04-0.27c0-0.08,0.01-0.22,0.07-0.41
		c0.04-0.15,0.13-0.39,0.31-0.71c0.17-0.31,0.41-0.66,0.7-1.02c0.32-0.39,0.7-0.8,1.12-1.22l0.5-0.48c0.22-0.2,0.44-0.4,0.67-0.6
		c0.44-0.38,0.91-0.76,1.45-1.18c0.15-0.12,0.31-0.24,0.48-0.36c0.85-0.64,1.79-1.3,2.79-1.96c0.23-0.16,0.46-0.31,0.7-0.45
		l0.05-0.03c0.78-0.44,19.22-10.78,35.46-10.78c7.46,0,13.31,2.19,17.39,6.52c0.96,1.07,1.77,2.23,2.42,3.46
		c0.8,1.49,1.37,3.12,1.71,4.84c0.25,1.27,0.37,2.53,0.37,3.88c0,1.09-0.09,1.95-0.15,2.5c-0.03,0.33-0.07,0.57-0.09,0.72
		l-0.03,0.21c-0.01,0.11-0.06,0.39-0.14,0.83c-0.15,0.82-0.34,1.63-0.58,2.47c-0.35,1.26-0.8,2.54-1.34,3.81
		c-0.67,1.58-1.48,3.2-2.43,4.81c-1.06,1.81-2.31,3.66-3.71,5.47c-1.6,2.07-3.3,4.01-5.06,5.75c-0.77,0.76-1.56,1.5-2.37,2.2
		c-1.34,1.18-2.74,2.26-4.16,3.25c-0.31,0.21-0.62,0.42-0.95,0.63c-0.11,0.06-0.47,0.27-0.47,0.27c-1.66,0.92-3.43,1.74-5.29,2.45
		c-3.97,1.51-8.41,2.53-13.23,3.02l-0.02,0l-0.23,0c-0.22,0-0.44,0.01-0.67,0.01c-14.85,0-29.25-6.12-31.99-7.35l-0.03-0.02
		l-0.03-0.02c-0.28-0.19-0.37-0.2-0.37-0.2l-0.09,0.03l-0.09,0c-0.16,0-0.34-0.01-0.52-0.01c-0.87,0-2.09,0.04-3.79,0.14
		c5.56,5,12.59,8.79,20.36,10.97c5.11,1.43,10.46,2.16,15.9,2.16C47.61,149.23,50.1,149.08,52.56,148.77"/>
	<path class="st1" d="M268.87,147.12c-0.45-2.51-1.48-5.22-3.07-8.06c-5.35-10.03-3.61-17.67-2.41-19.18
		c0.25-0.31,0.51-0.75,0.33-1.05c-0.18-0.3-0.72-0.34-0.71-0.34h-6.61c-0.37,0-0.67,0.08-0.89,0.23l-0.06,0.05l-0.05,0.05
		c-0.11,0.11-0.16,0.21-0.17,0.25l-0.01,0.03l-0.56,0.85c-0.08,0.11-1.22,1.75-2.25,3.22l-0.15,0.22
		c-1.19,1.48-11.74,14.59-15,17.95c-0.09,0.09-2.14,2.19-3.2,2.67c-0.32,0.15-0.59,0.21-0.87,0.21c-0.16,0-0.32-0.02-0.47-0.06
		c-0.43-0.06-0.7-0.43-0.82-1.12l-0.02-0.14c-0.05-0.65,0.09-1.34,0.38-1.9c0.67-1.29,5.01-8.97,7.54-13.43
		c1.33-2.34,2.37-4.19,2.63-4.64h-0.03l0.68-1.22c0.09-0.17,0.09-0.37-0.01-0.57c-0.14-0.26-0.43-0.49-0.81-0.62l-4.25-0.07
		l-0.05-0.01c-0.04-0.01-0.09-0.01-0.16-0.01c-0.08,0-0.16,0.01-0.26,0.02c-0.07,0.01-0.15,0.02-0.22,0.02
		c-0.09,0-0.63,0.08-0.79,0.39l-0.97,1.69l-0.35-0.53c-0.16-0.25-0.36-0.5-0.52-0.7l-0.23-0.28c-0.02-0.03-0.05-0.07-0.09-0.11
		c-1.66-2.04-4-3.07-6.97-3.07c-2.3,0-4.52,0.63-5.98,1.15c-0.57,0.2-1.11,0.41-1.59,0.63c-0.18,0.09-0.35,0.17-0.49,0.25
		c-2.4,1.26-10.58,6.06-15.07,14.97l-0.08,0.15c-0.03,0.05-0.05,0.1-0.07,0.15c-0.15,0.3-0.29,0.59-0.42,0.89
		c-0.2,0.46-0.37,0.91-0.5,1.37c-1.09,3.28-0.78,5.98,0.93,7.81c1.47,1.57,3.92,2.43,6.92,2.43c1.16,0,2.36-0.13,3.58-0.38l0.02,0
		l0.02,0c0.1-0.01,0.2-0.02,0.29-0.03c0.29-0.04,0.58-0.08,0.88-0.14c0.27-0.05,0.5-0.11,0.72-0.16c0.7-0.17,1.13-0.32,1.3-0.37
		c0,0,0.03-0.01,0.09-0.03c0.11-0.04,0.36-0.12,0.71-0.26c0.71-0.28,1.41-0.62,2.09-1.01c0.92-0.53,1.87-1.21,2.75-1.95
		c0.81-0.68,1.67-1.5,2.55-2.46l1.08-1.17l-0.43,1.42c-0.05,0.17-0.1,0.34-0.14,0.5c-0.43,1.79-0.74,4.94,2,5.9l0.02,0.01l0.07,0.03
		c0.04,0.02,0.12,0.05,0.33,0.1l0.06,0.01c0.88,0.16,2.48,0.18,3.13,0.18c0.49,0,0.94-0.01,1.23-0.02c1.28-0.07,2.18-0.23,2.65-0.46
		l0.03-0.02l0.03-0.01c1.11-0.32,2.41-1.11,3.89-2.38c0.77-0.6,3.84-3.98,3.88-4.02l7.58-8.14c0.11-0.11,0.38-0.41,0.71-0.81
		c1-1.15,2.65-3.06,3.67-3.84c0.27-0.27,0.63-0.58,1.07-0.58c0.12,0,0.23,0.02,0.33,0.06l0.18,0.07l0.02,0.16
		c0.29,1.73,2.74,9.22,4.22,13.73c0.42,1.28,0.76,2.31,0.94,2.88c0.69,2.18,0.95,4.09,0.78,5.67l-0.01,0.04
		c-1.29,5.26-6.68,5.63-6.89,5.65l-0.05,0c-0.74,0.07-1.5,0.09-2.3,0.1l-0.2,0c-0.15,0-0.3,0-0.45,0c-1.34,0-2.69-0.1-4.02-0.25
		c-0.44-0.1-21.44-4.63-82.63-6.44c-35.99-1.06-70.72,4.03-93.48,8.48h0c-0.02,0-0.04,0.01-0.08,0.01
		c-8.11,1.59-14.7,3.09-19.27,4.2c-6.32,1.17-5.67-2.19-4.97-3.88c-0.18,0.37-0.42,0.85-0.68,1.38c0.23-0.73,0.64-1.52,1.13-2.29
		c-0.03,0.05-0.24,0.4-0.44,0.9c0.29-0.59,0.46-0.94,0.44-0.91c1.33-2.12,3.17-4.08,3.17-4.08c-0.44,0.13-1.14,0.35-2.09,0.69
		c-0.37,0.13-0.74,0.27-1.09,0.41c-0.06,0.02-0.11,0.05-0.17,0.07c-3.04,1.22-6.17,2.79-9.33,4.68c-0.03,0.02-0.05,0.04-0.08,0.05
		c-0.01-0.09-0.12-0.03-0.37,0.23c-0.29,0.18-0.57,0.36-0.83,0.54c-4.76,3.21-4.98,5.66-4.79,6.68c-0.02,0.02-0.03,0.03-0.04,0.05
		c2.79,11.72,20.17,6.71,20.17,6.71c2.42-0.52,4.05-1.1,4.05-1.1c13.09-3.74,38.85-12.8,84.63-17.11
		c61.37-5.77,106.79,3.61,106.79,3.61c0.84,0.17,1.68,0.31,2.55,0.42c0.13,0.02,0.25,0.03,0.38,0.04c1.09,0.13,2.21,0.21,3.33,0.22
		h0.05c0.15,0,0.3,0,0.46-0.01l0.16,0.01c0,0,0.16-0.01,0.44-0.04c0.59-0.04,1.29-0.12,2.02-0.22c0.34-0.05,0.68-0.11,1.04-0.17
		c1.19-0.22,2.39-0.52,3.32-0.9c0.26-0.06,0.52-0.12,0.79-0.18l-0.05-0.09c0.93-0.36,1.8-0.81,2.55-1.3
		c1.14-0.75,2.49-3.51,2.64-4.5C269.3,150.53,269.23,148.89,268.87,147.12 M224.23,138.71l-0.29,0.33c-0.93,1.03-1.81,1.9-2.61,2.57
		c-0.77,0.65-1.57,1.22-2.32,1.65c-0.55,0.32-1.1,0.58-1.68,0.82c-0.29,0.11-0.49,0.18-0.59,0.22l-0.07,0.02
		c-0.28,0.1-0.61,0.19-0.98,0.28c-0.17,0.04-0.36,0.08-0.56,0.12c-0.2,0.04-0.43,0.08-0.66,0.11c-0.44,0.05-0.8,0.08-1.15,0.08
		c-0.14,0-0.28-0.01-0.42-0.01c-0.62-0.03-1.16-0.16-1.61-0.36c-0.53-0.24-0.96-0.59-1.29-1.07c-0.35-0.5-0.59-1.14-0.7-1.86
		c-0.11-0.7-0.11-1.5,0.02-2.3c0.07-0.4,0.15-0.81,0.28-1.22c0.12-0.4,0.26-0.8,0.45-1.22c0.34-0.78,0.78-1.61,1.33-2.48
		c0.97-1.55,2.2-3.16,3.65-4.76c1.36-1.51,2.81-2.9,4.32-4.14c0.55-0.45,1.12-0.89,1.69-1.3l0.04-0.03l0.07-0.06
		c2.9-2.26,5.29-3.32,7.5-3.32c1.73,0,3.23,0.6,4.96,1.51c0.6,0.32,0.99,0.75,1.16,1.29l0.04,0.12L224.23,138.71z"/>
	<path class="st1" d="M237.78,112.21c-0.57,0-8.03,4.54-8.03,4.54c0.01,0.35,0.44,0.6,1.05,0.6l4.49,0.09
		c0.56,0,8.02-4.53,8.02-4.53l0.01-0.02c-0.02-0.38-0.48-0.69-1.05-0.69H237.78z"/>
	<path class="st2" d="M113.16,26.75c-7.74-3.5-9.85-8.06-6.61-14.37l3.76-7.33l-1.63,1.92c-0.38,0.44-9.04,10.75-5.17,17.61
		c2.29,4.06,5.12,5.91,7.61,7.55c3.38,2.21,6.05,3.96,5.98,10.33l-0.02,1.46l0.6-1.37C117.74,42.42,122.61,31.01,113.16,26.75"/>
	<path class="st2" d="M117.04,25.57c2.78,1.62,5.66,3.3,6.22,7.33l0.22,1.53l0.38-1.51c0.02-0.08,1.88-7.71-4.3-9.69
		c-4.92-1.58-6.6-4.26-5.27-8.43l1.57-4.89l-1.01,1.23c-0.18,0.23-4.61,5.75-2.59,10.24C113.12,23.29,115.02,24.39,117.04,25.57"/>
	<path class="st2" d="M111.48,47.24c-0.63-1-0.67-2.14-0.13-3.4c2.08-4.83,1.03-10.65-5.02-12.4l-5.25-1.52
		c-0.24-0.07-0.38-0.11-0.38-0.11l-0.2,0.47l0.37,0.11c1.55,0.46,9.19,2.95,7.96,6.37c-0.77,2.17-2.81,7.92,0.12,11.25
		c1.42,1.61,3.82,2.49,7.13,2.6l2.5,0.09l-2.41-0.57C116.14,50.12,112.78,49.31,111.48,47.24"/>
	<path class="st2" d="M194.08,36.27c0.06,0.15,0.11,0.3,0.16,0.44c-0.16-0.47-0.34-0.91-0.52-1.29c-0.05-0.12-0.11-0.23-0.15-0.34
		C193.75,35.47,193.92,35.87,194.08,36.27"/>
	<path class="st2" d="M208.38,7.68c6.03-1.9,16.08-1.32,19.43,3.67c1.6,2.38,0.74,4.89,0.39,5.54c-0.11,0.22-0.2,0.21-0.17,1.09
		c0,0.18,1.26-0.92,1.95-1.9c0.72-1.04,2.06-1.67,3.35-2.11c2.8-0.95,6.14-0.27,8.54,1.07c2.77,1.53,4.45,5.36,3.57,7.53
		c-1.05,2.56-4.24,5.17-6.92,6.47c0,0.5-0.09,1.25-0.18,2.38c3.1-0.96,7.08-3.92,7.67-7.6c0.33-2.11,0.13-4.55-0.41-6.6
		c-1.01-3.81-3.82-6.46-8.63-6.89c-1.04-0.09-2.09-0.01-3.07,0.25c-3.91,1.04-4.06,3-4.73,3.91c0.78-2.12,0.48-3.06-0.08-4.29
		c-1.93-4.2-7.52-6.34-12.16-6.85c-11.97-1.31-26.8,10.88-29.79,19.81c-0.35,1.02,0.29,1.8,0.36,2.3
		C190.09,17.63,199.43,10.49,208.38,7.68"/>
	<path class="st2" d="M243.49,39.77c0.14,0.03,0.27,0.05,0.41,0.08c-0.01-0.01-0.03-0.02-0.04-0.03
		C243.74,39.8,243.62,39.79,243.49,39.77"/>
	<path class="st2" d="M120.95,48.07c-0.09,0.02-0.17,0.04-0.23,0.05C120.78,48.11,120.86,48.09,120.95,48.07"/>
	<path class="st2" d="M246.47,42.3c0-0.01,0.01-0.01,0.01-0.01c0.08-0.24,0.07-0.49-0.01-0.75c-0.03,0.12-0.04,0.24-0.04,0.36
		C246.48,42.06,246.49,42.19,246.47,42.3"/>
	<path class="st2" d="M224.84,58.19c-0.02-0.07-0.05-0.15-0.07-0.22c0.01,0.04,0.01,0.08,0.01,0.12c-0.37-0.51-0.62-1.1-0.73-1.76
		c0.04,0.26-0.04,0.53,0,0.8c0.11,0.71,0.39,1.32,0.79,1.86c1.38,3.76,12.24,7.86,13.95,2.66c0.01-0.04,0.01-0.07,0.01-0.11
		c0.96-0.2,1.83-0.46,2.53-0.77c0.14-0.06-0.13-0.74,0-0.8C237.23,61.74,227.73,62.03,224.84,58.19 M238.43,61.61
		c-1.9,3.01-7.94,1.55-11.35-0.89C230.14,62.21,234.87,62.29,238.43,61.61"/>
	<path class="st2" d="M222.24,49.17c-0.02-0.05-0.04-0.14-0.05-0.26C222.18,49.02,222.19,49.1,222.24,49.17"/>
	<path class="st2" d="M230.15,46.55c-1.64-0.69-3.34-0.65-5.07-0.2c-0.78,0.2-2.37,0.64-2.82,1.27c-0.07,0.1-0.14,0.85-0.11,1.29
		c0.01-0.11,0.03-0.25,0.03-0.38v0.68c0-0.01,0.03-0.03,0.02-0.04c0.01,0.02,0.03,0.04,0.04,0.05c0.01,0.01,0.02,0.01,0.02,0.01
		c0,0,0-0.01,0-0.02c0.42-0.57,1.78-0.93,2.47-1.16c1.77-0.58,3.7-0.62,5.41,0.1C229.89,48.04,230.42,46.67,230.15,46.55"/>
	<path class="st2" d="M232.62,58.91c1.1,1.16,4.67,0.74,5.61-0.51c0.13-0.16,0.35-0.93,0.39-0.93h-0.5v0.8
		c0-0.67,0.15-1.57-0.09-2.08c0.03,0.07,0.12,0.11,0.12,0.19c-0.69-2.57-2.01-5.57-1.61-8.15c1.02-1.9,4.6-1.19,6.54-0.72
		c-0.16-0.04,0.2-1.55,0.01-1.6c-2.05-0.5-5.87-1.27-6.66,1.03c-0.1,0.3-0.02,0.65,0.03,0.99c-0.43,3.19,1.22,6.68,1.91,9.73
		c-0.01,0.01-0.01,0.02-0.01,0.03c-0.16,0.47-0.65,0.76-1.16,0.96c-1.17,0.44-3.73,0.37-4.59-0.53
		C232.78,58.28,232.46,58.74,232.62,58.91"/>
	<path class="st2" d="M225.53,50.42c0.51,0.28,1.47,0.32,1.92,0.04c0.21-0.12,0.23-0.37,0.23-0.58c0.02,0,0.02-0.12,0-0.37
		c0.01-0.27,0.02-0.56-0.17-0.8c-0.35-0.44-1.2-0.4-1.68-0.15c-0.56,0.3-0.54,0.98-0.49,1.51l-0.76,0.08L225.53,50.42z M225.4,49.91
		C225.41,50.14,225.37,50.06,225.4,49.91 M225.37,49.5c0.01,0.07,0.01,0.12,0.02,0.17c-0.01,0.07-0.01,0.14-0.02,0.19
		C225.38,49.74,225.39,49.62,225.37,49.5"/>
	<path class="st2" d="M238.84,50.13c0.51,0.28,1.46,0.32,1.92,0.04c0.21-0.12,0.23-0.36,0.23-0.58c0.01,0.01,0.01-0.12,0-0.37
		c0.01-0.27,0.02-0.56-0.17-0.79c-0.36-0.44-1.19-0.4-1.67-0.15c-0.56,0.3-0.55,0.98-0.49,1.51l-0.77,0.08L238.84,50.13z
		 M238.71,49.62C238.71,49.84,238.68,49.77,238.71,49.62 M238.68,49.21c0.01,0.07,0.01,0.12,0.01,0.17c0,0.07-0.01,0.14-0.01,0.19
		C238.68,49.44,238.69,49.32,238.68,49.21"/>
	<path class="st2" d="M211.93,52.93c0.59-0.32,1.06-0.41,1.44-0.35c1.08,0.15,1.42,1.4,1.42,1.4c-0.01-0.79-0.42-1.44-1.02-1.85
		c-0.8-0.54-1.91-0.64-2.78-0.01c-1.33,0.96-1.38,2.29-0.21,4.23c0.17,0.29,0.37,0.58,0.6,0.9c1.77,2.45,3.86,0,3.4,0.42
		c-0.45,0.42-1.35,0.65-2.28-0.24c-0.42-0.4-0.99-1.13-1.31-1.91C210.81,54.58,210.8,53.56,211.93,52.93"/>
	<path class="st2" d="M257.19,96.72c0-0.01,0.01-0.02,0.01-0.03C257.27,96.58,257.24,96.6,257.19,96.72"/>
	<path class="st2" d="M275.48,97.7c0-0.01-0.17-0.01-0.17-0.02c0.01-0.53-0.17-1.39-0.58-2.7c-0.02-0.41-0.05-0.78-0.14-1.13
		c-0.15-0.61-0.65-1.06-0.87-1.39c-0.03-0.08-0.07-0.16-0.09-0.24c-0.03-0.13-0.05-0.3-0.09-0.49c0-0.08-0.02-0.16-0.05-0.25
		c-0.1-0.48-0.3-1.03-0.82-1.43c-0.22-0.17-0.36-0.31-0.45-0.43c-0.06-0.11-0.26-0.72-0.56-0.85c-0.01,0-0.02,0-0.03-0.01
		c-0.16-0.12-0.76-0.27-0.82-0.27c0,0-0.01,0-0.01,0c-0.21-0.03-0.53-0.02-0.56-0.02h-0.23V88.4c0,0.02-3.19,0.6-3.32,0.63
		c0.6-1.04,0-4.52-0.09-5.16c-0.29-2.11-1.42-2.1-3.38-1.42c-1.17,0.41-2.67,1.19-4.32,6.21c-1.02,2.12-2.06,3.83-3.79,4.77
		c0.01-0.15,0-0.3-0.05-0.44c-0.15-0.43-0.69-1.91-1.25-1.65c0-0.01,0-0.01-0.01-0.01c-3.77-0.15-9.84,2.38-14.28,1.89
		c-0.15-0.71,0-1.75,0.45-3.24c0-0.04,1.94-7.17,1.95-7.2c1.21-5.49-2.94-7.9-3.11-8.02c0,0-4.17-2.63-5.21-3.19
		c0.26-0.51,0.72-0.93,0.87-1.47c1.72-0.02,3.38-0.33,4.79-1.11c0.99-0.55,2.33-2.61,2.82-3.44c1.74-2.9,2.82-6.09,3.87-9.2
		c1.14-4.45-1.37-4.7-2.49-7.02c-0.59-1.23,2.41-2.61,2.04-3.92c-0.43-1.53-0.9-2.2-1.31-2.65c0.71,0.01,1.74-0.19,2.25-1.22
		c0.13-0.31,0.59-0.97-0.32-1.48c-7.57-4.23-8.02-7.79-7.78-9.07c-0.4,1.22-0.54,3.15,1.06,5.08c1.25,1.5,4.45,2.81,5.92,4.37
		c-0.13-0.01-0.23-0.01-0.25-0.01c-5.74-0.69-13.48,0.85-15.31,1.37c-4.01,1.17-6.82,2.03-10.11,3.54
		c-3.93,2.05-6.58,4.23-8.36,6.28c1.27-0.55,2.64,0.02,3.35,0.78c0.46-0.47,0.92-0.94,1.4-1.39c1.5-1.32,3.39-2.68,5.75-3.96
		c2.71-1.32,6.68-3,11.5-4.27c0.65-0.16,1.24-0.3,1.79-0.44c2.08-0.48,4.29-0.87,6.61-1.13c0.13,0.19,0.72,1.01,1.31,1.96
		c0.55,1.18,1.02,2.23,0.69,3.85c-0.13,0.68-1.54,1.54-1.64,2.44c-0.15,1.32,2.11,2.26,2.5,3.79c1.14,4.42-2.16,9.22-4.5,13.13
		c-1.14,1.89-1.43,3.02-4.5,3.32c-3.51,0.34-7.46-0.88-10.68-1.87c-2.43-0.75-6.72-2.68-8.36-3.46c-1.03-0.47-0.97-0.58-1.28-3.17
		c0,0-0.27,3.05,0.88,3.45c0.42,0.23,3.32,1.59,4.49,2.07c2.16,0.89,4.32,1.62,5.64,2c1.21,0.35,2.56,0.7,3.96,0.97
		c-0.28,0.02-0.55,0.04-0.65,0.07c-0.9,0.16-1.81,0.63-2.29,1.25c-0.33,0.38-0.54,0.83-0.67,1.34c-0.29-0.01-0.57-0.03-0.86-0.04
		c0.39-0.86,0.74-1.9,0.49-2.76c-0.23-0.81-1.08-1.1-2.01-1.33c-1.37-0.34-7.62-2.17-7.62-2.17c0.62,0.25,4.49,1.57,5.12,1.77
		c0.47,0.16,1.17,0.36,1.7,0.52c1.81,0.59,1.54,2.51,0.64,3.82c-5.25-0.58-10.13-2.23-13.91-5.49c-0.15-0.99,0.36-2.12,0.26-3.26
		c0.01,0.11,4.79,2.05,6.19,2.65c-0.63-0.26-2.79-1.49-4.57-2.41l0.21,0.08c-0.85-2.11-1.1-5.1-1.2-6.23
		c-0.13-0.17-0.26-0.34-0.37-0.5c-0.78-1.07-1.13-2.11-1.05-3c-2.09,3.4-1.95,6.01-1.96,6.31c0,0.07-1-1.67-1.35-2.56
		c-0.28-0.73-0.61-1.55-1-2.31c-0.79-1.54-1.97-2.35-2.66-2.72c0.21-0.24,0.42-0.48,0.61-0.72c2.13-2.72,2.48-6.13,3.14-9.23
		c0.78-3.65,2.8-6.61,6.22-9.05c6.72-4.78,15.28-4.83,25.44-2.91c-0.32-0.06-4.34-3.66-11.91-3.86c0.51-0.72,1.81-2.94,0.31-5.25
		c0.85,2.62-2.99,4.88-2.99,4.88c-0.12,0.07-0.17,0.18-0.2,0.32c-1.85,0.06-3.71,0.41-6.3,1.26c-4.45,1.46-7.17,3.91-8.87,7.04
		l-0.54,1.28c0,0-5.85,3.34-8.34-0.53c1.08,3.36,5.4,3.8,7.08,4.19c-0.13,0.52-0.26,1.08-0.36,1.62
		c-1.28,6.44-5.5,12.73-13.92,13.59c-10.19,1.04-11.63-5.2-11.47-7.48l2.05-0.22c-0.09-0.48-0.14-0.87-0.17-1.09
		c5.65-0.29,13.94-0.44,13.94-0.44s0.23-7.23,0-8.4c-0.08,0.01-0.8,0.11-2.02,0.28c-1.72-5.12-4.58-9.97-8.77-14.05
		c-6.74-6.55-16.66-9.15-26.89-8.68c-0.03,0-0.06,0.01-0.08,0.01c0.13-1.34,0.36-2.7,0.97-3.95c0.01,0.05,0.07-0.27,0.64-1.18
		c3.29-5.24-18.57,1.44-18.57,1.44c1.48,1.43,3.75,3.52,5.32,5.49c-8.7,2.36-16.24,6.95-20.78,13.79
		c-3.27,4.92-5.35,11.26-4.99,17.22c-0.06,0.02-0.13,0.03-0.2,0.05c0.06-0.02,0.13-0.03,0.2-0.05c0,0.02,0,0.04,0.01,0.06
		c-0.12,0.02-0.27,0.02-0.44,0.02c-0.58,0-1.33,0.02-1.28,0.31c0,0,2.64,5.98,2.7,6.13l25.32-3.87c0,0.44,0.09,0.85,0.36,1.01
		c0.48,0.27,1.46,0.09,2,0.08c0.69,0,1.04,0.53,1.71,0.68c0.83,0.19,1.86,0.15,2.71,0.09c0.11-0.01,0.24,0.22,0.35,0.49
		c-2.18-0.15-6.42-0.29-6.25,1.87l-0.02-0.02c0,0,0.13,11.09,1.67,19.75c0.03,0.23,0.05,0.46,0.09,0.69
		c0.72,4.72,1.95,12.83,8.69,14.19c6.11,1.23,13.55-1.26,19.31-2.7c3.21-0.8,12.71-3.86,14.79-0.61c-1.47,4.08-5.77,7.29-8.89,10.55
		c-3.62,3.78-5.68,7.92-6.83,12.61c-0.26,1.05,0.04,5.13-0.22,6.17c1.17-4.74,3.5-11.64,7.05-15.5c3.46-3.76,8.52-7.22,9.31-12.14
		c0.27-1.72,0.46-4.51-1.07-5.81c-2.35-1.99-9.76,0.38-12.49,1.05c-6.24,1.53-19.31,6.68-24.22,0.85
		c-2.46-2.91-3.11-6.71-3.11-10.34v0c-1.99-5.13-2.02-14.08-2.11-17.14c2.07,1.39,7.18,1.38,9.14,1.42c3.8,0.06,7.47-0.46,10.96-1.7
		c1.35,0.11,1.61,1.45,1.61,3.02c-0.52,3.73-2.51,6.4-2.51,11.3h0.01c0,0,0.24,0.9,0.39,1.34c0.01,0.04,0.45-0.16,0.45-0.12v0.24
		c0-0.07-0.35-0.13-0.35-0.19c0.1,0.46,0.18,0.88,0.79,1.23c1.93,1.1,4.96,0.83,7.56,0.44c2.23-0.21,4.5-0.6,6.48-0.98
		c8.14-1.41,20.93-4.04,24.49-4.78c0.12,0.08,0.23,0.15,0.36,0.22c3.61,2.74,8.06,4.22,13,4.84c1.82,0.23,3.66,0.28,5.5,0.3
		c0.94,0.01,1.4,0.05,2.39,0.31c3.7,0.96,0.3,4.59-0.74,5.84c-8.86,10.58-20.3,22.11-20.87,35.21c-0.02,0.48,1.01-3.2,1.07-3.6
		c2.2-14.04,15.06-22.42,24.05-33.86c1.91-2.42-0.27-3.76-2.96-4.3c0.57-0.07,1.12-0.16,1.6-0.3c1.21,0.67,2.03,1.02,2.49,1.36
		c0,0,1.97,1.09,2.51,2.61c1.35,2.62,0.52,5.81,0.52,5.81c-0.21,1.64-2.29,6.22-2.33,6.32c-0.64,2.12-0.63,4.03,0.09,4.84
		c0.01,0.05,0.03,0.09,0.07,0.13c3.85,3.53,12-0.31,17.02-0.51c-0.06,0.28-0.14,0.48-0.21,1.12h0c-0.05,0-0.06,0.25-0.05,0.52
		c-0.21,1.84-0.21,4.67,1.04,7.24c0.83,1.71,1.52,2.7,2.04,3.27c-5.55,1.37-11.55,1.9-17.28,1.88c-4.46-0.02-12.54-0.73-13.94-5.02
		c2.73-3.07,5.43-6.09,7.52-9.51c0.54-0.88-0.53-2.41,0-3.27c-1.88,3.06-4.49,5.77-6.96,8.55c0,0-0.01,0-0.01,0.01
		c-1.88,2.11-3.66,4.26-4.97,6.62c-0.21,0.37-1.69,2.43-0.95,4.23c0.61,1.45-0.04,4.49-0.03,5.75c0.72,0.03,1.34,0.08,1.38,0.03
		c0.15-0.16-0.29-3.12-0.4-5.47c-0.1-2.23,2.78-5.08,3.52-5.91c0.25-0.28,0.49-0.56,0.74-0.84c1.56,10.25,25.44,6.4,33.39,4.08
		c0.22,0.04,0.45,0.03,0.67-0.06c1.06-0.42,1.09-1.62,1.04-2.58c0.31-0.08,0.61-0.15,0.87-0.2c0.82,0.38,1.52,0.26,2.6-0.01
		c0.95-0.24,1.88-0.66,2.86-0.83c0.15,0.1,0.32,0.18,0.53,0.24c0,0.01,0.01,0.01,0.01,0.01c0.47,0.21,1.13,0.23,1.68,0.27
		c1.14,0.09,2.69,0.36,3.74-0.11c0.65-0.29,2.09-0.83,2.09-1.46v0C274.02,101.45,275.68,99.36,275.48,97.7 M153.28,8.98
		c1.21-0.21,6.31-0.48,4.5,1.34c-1.53,1.45-5.21,1.77-7.06,1.9c-0.7,0.04-3.33-0.01-5.2-0.24C140.01,11.31,153.31,8.98,153.28,8.98
		 M144.95,12.57c0.53,0.12,1.09,0.18,1.41,0.25c2.79,0.63,8.52,0.53,11.04-1.47c-0.45,1.34-0.73,2.73-0.84,4.01
		c-3.05,0.25-6.04,0.75-8.91,1.49C146.94,15.35,146.03,13.91,144.95,12.57 M134.18,25.82c8.7-6.04,21.93-8.36,33.05-7.06
		c12.93,1.52,21.62,9.83,25.87,19.35c-13.78,1.9-67.13,9.23-71.42,9.82C120.52,39.99,127.23,30.65,134.18,25.82 M120.61,48.15
		C120.51,48.18,120.49,48.18,120.61,48.15 M124.53,53.07c0-0.07-1.01-2.63-1.01-2.71c0.13-0.04,29.48-6.35,64.51-8.95
		c0.24-0.02,5.51-0.58,5.51-0.58c0.02,0.08,0.36,3.98,0.36,3.98c-1.49,0.03-27.56,2.13-46.3,4.76c0-0.01,0-0.02,0-0.04
		c0,0.01,0,0.03-0.01,0.04c-2.61,0.37-5.08,0.75-7.33,1.13C133.31,51.89,127.5,52.47,124.53,53.07 M154.67,56.11
		c0.04-0.57-0.27-1.14-0.27-1.63v0.22v0.12c0,0.21,0.29,0.42,0.28,0.63c0-0.03,0.13,0.39,0.12,0.66c-2.13-0.18-4.41-0.53-5.55-1.22
		c1.47-0.73,4.4-0.29,5.72-0.19c-0.01,0-0.3-0.13-0.29-0.3c0,0.03-0.28,0.06-0.28,0.09v-0.29c0-0.48,0.84,0.02,0.8,0.02h-0.11
		c-0.06,0-0.37-2.75-0.8-2.73c-1.34,0.09-2.88-0.15-3.88-0.96l18.52-2.98c0.08,0.45,0.42,2.16-3.91,1.85
		c-2.11-0.15-0.93,3.37-0.7,6.56c-1.77,0.23-3.73,0.31-5.54,0.33C158.11,56.3,156.39,56.25,154.67,56.11 M170.17,54.58
		c0-0.01,0.01-0.02,0.02-0.03c-0.02,0.01,0.12,0.01,0.1,0.02c-0.04,0,0.06-0.02,0.06-0.02v0.05c-1.99,0.43-2.62,0.75-3.89,1
		c0.04-2.19,0.11-4.06,0.43-4.44c0.02-0.01,0-0.02,0.03-0.02c0.49,0.03,0.9,0.06,1.27,0.07c0.12,0,0.23,0,0.34,0
		c0.15,0,0.28,0,0.41-0.01c0.94-0.04,1.51-0.22,1.86-0.56c0.28-0.28,0.41-0.66,0.39-1.21c-0.01-0.09-0.02-0.19-0.03-0.29
		c-0.01-0.1-0.03-0.21-0.05-0.32l9.15-0.99c-1.08,2.54,0.25,6.22,2.1,8.04c5.25,5.14,13.63,2.53,18.59-1.62
		c2.74-0.67,5.61,6.68,6.23,7.36c0.55,0,3.26-1.04,3.31-1.09l0.76,2.69c-0.52-0.25-0.97-0.46-1.29-0.58
		c-0.12-0.04-0.61,0.34-0.57,0.74c0.07,0.85-0.19,2.03-0.65,2.66c-1.86,0.34-29.99,5.54-33.6,5.78c-3.82,0.26-5.3-0.42-5.24-1.83
		c-0.01-0.01-0.02-0.01-0.03-0.02c0.02-0.15,0.03-0.36,0.04-0.52c0.03-0.15,0.06-0.3,0.09-0.45c0.15-0.65,0.33-1.29,0.5-1.93
		c0.4-1.49,0.81-2.98,1.15-4.48C172.01,60.98,173.4,54.9,170.17,54.58 M229.75,72.45c-0.46-0.05-0.91-0.07-1.35-0.08
		c-0.44-0.96,0.5-1.99,1.65-2.32c0.74-0.13,1.57-0.03,2.36,0.04c0.47,0.04,1.75-0.17,1.42,0.45c-0.18,0.35-0.43,0.63-0.63,0.94
		C232.07,71.84,230.93,72.23,229.75,72.45 M273.39,93.48c0.13,0.07,0.26,0.15,0.36,0.24c0.09,0.1,0.18,0.24,0.27,0.41
		c0.17,0.54,0.34,1.21,0.3,1.74c-0.02,0.11-0.04,0.22-0.08,0.33c-0.1,0.28-0.16,0.44-0.19,0.52c-0.08,0.18-0.17,0.37-0.26,0.55
		c-0.54,0.96-1.36,1.8-2.16,2.13c-1.24,0.5-2.86,0.22-4.19,0.25c-1.52,0.04-2.85,0.09-3.19-1.18c-0.02-0.31,0.05-0.51,0.21-0.69
		c1.43,0.41,3.78,0.14,4.73,0.06c2.73-0.25,3.7-2.34,4.11-4.35C273.32,93.46,273.36,93.47,273.39,93.48 M272.4,91.21
		c0.04,0.03,0.07,0.06,0.1,0.09c0.14,0.15,0.32,0.36,0.46,0.66c0.03,0.08,0.52,0.16,0.54,0.24c0.1,0.3,0.51,0.67,0.51,1.12v0.01
		c0,0.12-0.49,0.18-0.49,0.19c-0.47,1.59-1.64,3.09-3.69,3.42c-1.2,0.2-5.57,0.69-6.13-0.74c-0.16-0.75,0.14-1.13,0.72-1.36
		c0.01,0,0.01,0,0.03,0.01c0.75,0.24,1.69,0.23,2.47,0.14c0.67-0.04,0.92-0.12,1.53-0.25c0.59-0.12,1.57-1.18,1.57-1.76v-0.01
		c0-0.08,0.56-0.16,0.62-0.21c0.22-0.22,0.6-0.46,0.75-0.71c0.17-0.23,0.45-0.47,0.57-0.67C272.07,91.22,272.29,91.18,272.4,91.21
		 M254.69,93.64c-0.41,0.18-0.86,0.32-1.36,0.42c0.01-0.16,0.03-0.31,0.04-0.37c0.07-0.28,0.19-0.54,0.43-0.73c0.01,0,0.02,0,0.02,0
		c0,0,0-0.01,0-0.02c0.01-0.01,0.02-0.02,0.03-0.02C254.15,92.72,254.46,93.16,254.69,93.64 M257.37,104.25
		c-0.03-0.02-0.05-0.04-0.09-0.06c0.47-0.12,1.25-0.36,2.01-0.57C259.11,104.38,258.49,104.91,257.37,104.25 M262.53,102.65
		c-2.2,0.87-3.64-0.91-3.63-1.27c0.03-1.3,0.76-1.54-0.59-2.6c-1.38-0.81-1.23-1.76-1.12-2.06c-0.32,0.57-0.44,0.87,0.31,1.96
		c0.01,0.01,0.02,0.02,0.02,0.03c0.34,0.62,0.6,1.18,0.76,1.89c-0.01,0.21-0.22,0.41-0.22,0.61v0.08c0-0.02,0.23-0.04,0.23-0.07
		c0.05,0.48,0.36,0.91,0.83,1.33c-0.94,0.26-1.89,0.46-2.98,0.69c-0.61-0.69-1.04-1.52-1.42-2.23c-0.65-1.22-1.01-2.57-1.23-3.92
		c-0.02-0.11-0.03-0.22-0.04-0.33c-0.02-0.09-0.02-0.18-0.03-0.27c4.21-0.92,6.8-5.64,7.88-8.69c0.54-1.53,0.88-2.97,2.68-3.89
		c2.6-1.33,2.12,3.12,1.8,4.51c-0.27,1.14-0.77,1.61-0.76,1.76c0.43-0.03,2.06-0.45,3.01-0.63c0.1-0.01,3.47-0.52,3.72,0.49
		c0.2,0.82-0.56,1.74-0.88,2.08c-0.08,0.07-0.14,0.15-0.23,0.22c-0.65,0.6-1.16,1.45-2.14,1.65c-0.93,0.19-3.97,0.71-4.82-0.11
		c-0.21-0.18-0.29-0.46-0.16-0.98c0.01-0.06,0.04-0.11,0.06-0.16c0.86-0.92,3.39-0.18,4.05-1.54c0.12-0.24-0.11-0.58,0-0.82
		c-0.58,1.18-2.57,0.9-3.66,1.37l0-0.01c0,0-1.24,0.28-0.74,2.03c0.07,0.31,0.23,0.53,0.44,0.7l-0.01,0c0,0-0.53,0.31-0.75,1
		c-0.23,0.69-0.19,1.35,0.29,1.95c0.48,0.59,0.48,0.53,0.46,1.14c-0.02,0.61,0.33,1.77,1.16,1.9c0.17,0.03,0.29,0.09,0.4,0.16
		c-0.15,0.18-0.15,0.67,0.09,1.14C264.35,102,263.5,102.26,262.53,102.65 M258.58,100.87c-0.02-0.05-0.02-0.1-0.03-0.14v-0.01
		c0,0.03,0.02,0.06,0.02,0.1C258.57,100.83,258.58,100.85,258.58,100.87 M271.86,101.92c-0.95,0.7-2.14,0.37-3.28,0.3
		c-1.25-0.08-2.47-0.09-2.68-1.16c0.04-0.2,0.1-0.39,0.21-0.57c0.51,0.01,1.02-0.03,1.34-0.04c1.32-0.05,2.62,0.11,3.92-0.17
		c1.23-0.27,2.65-1.45,2.65-2.62v0.02c0,0,0.37-0.96,0.57-0.86c0.05,0.05,0.1,0.1,0.13,0.15c0.01,0.02,0.01,0.04,0.03,0.06
		c0.04,0.2,0.08,0.37,0.08,0.56C274.46,99.18,273.25,100.9,271.86,101.92"/>
	<path class="st2" d="M218.52,90.02c0.12-0.08,0.21-0.18,0.27-0.28c0.5-0.62,0.68-1.47,0.39-2.07c-0.05-0.11-0.37-0.03-0.37,0.06
		c-0.02,0-0.03-0.01-0.05-0.01c-0.01-0.05-0.13-0.09-0.25-0.05c-0.8,0.3-1.44,0.85-1.78,1.51c-0.15,0.29-0.53,1.13,0.09,1.27
		C217.5,90.6,218.08,90.4,218.52,90.02"/>
	<path class="st2" d="M212.78,98.63c0.12-0.08,0.21-0.18,0.27-0.28c0.5-0.62,0.68-1.47,0.39-2.07c-0.05-0.1-0.37-0.03-0.38,0.06
		c-0.02,0-0.03-0.01-0.04-0.01c-0.01-0.05-0.13-0.09-0.25-0.05c-0.8,0.3-1.44,0.85-1.78,1.51c-0.15,0.29-0.53,1.13,0.09,1.27
		C211.76,99.21,212.34,99,212.78,98.63"/>
	<path class="st2" d="M208.28,105.73c-0.01,0-0.03-0.01-0.04-0.01c0-0.05-0.13-0.09-0.25-0.05c-0.8,0.3-1.44,0.85-1.78,1.51
		c-0.15,0.29-0.53,1.12,0.09,1.26c0.68,0.16,1.27-0.05,1.7-0.43c0.12-0.08,0.21-0.18,0.27-0.28c0.5-0.62,0.68-1.47,0.39-2.07
		C208.61,105.56,208.29,105.63,208.28,105.73"/>
</g>
</svg>
