<?xml version="1.0" encoding="utf-8"?>
<!-- Generator: Adobe Illustrator 28.0.0, SVG Export Plug-In . SVG Version: 6.00 Build 0)  -->
<svg version="1.1" id="Capa_1" xmlns="http://www.w3.org/2000/svg" xmlns:xlink="http://www.w3.org/1999/xlink" x="0px" y="0px"
	 viewBox="0 0 108.26 108.26" style="enable-background:new 0 0 108.26 108.26;" xml:space="preserve">
<style type="text/css">
	.st0{fill:#FFFFFF;}
	.st1{fill:#F8764B;}
</style>
<g>
	<path class="st0" d="M48.25,54.04c0.87,0,1.88,0.33,2.68,1.5l3.2,4.52l3.2-4.52c0.8-1.17,1.78-1.5,2.68-1.47
		c1.29,0.03,2.33,0.73,2.26,0.9l-5.75,7.6c-0.42,0.57-1.11,1.02-2.44,1.02c-1.29,0-1.99-0.45-2.44-1.02l-5.68-7.6
		C45.88,54.79,46.96,54.06,48.25,54.04z"/>
</g>
<circle class="st1" cx="54.13" cy="54.04" r="52.71"/>
<g>
	<g>
		<path class="st0" d="M15.68,60.81c-1.76,0-3.48,0-5.19,0c-1.1,0-1.74-0.52-1.74-1.39c0-0.87,0.63-1.4,1.74-1.4
			c1.71-0.01,3.42,0,5.19,0c0-0.94,0-1.83,0-2.8c-0.86,0-1.7,0.01-2.54,0c-0.97-0.02-1.58-0.55-1.59-1.37
			c-0.02-0.85,0.61-1.42,1.62-1.42c2.18-0.01,4.37-0.01,6.55,0c0.97,0.01,1.58,0.55,1.59,1.37c0.02,0.85-0.61,1.4-1.63,1.42
			c-0.35,0.01-0.69,0-1.1,0c0,0.93,0,1.81,0,2.8c0.84,0,1.68-0.01,2.51,0c1.01,0.02,1.64,0.58,1.61,1.43
			c-0.02,0.82-0.63,1.34-1.61,1.36c-0.81,0.01-1.63,0-2.45,0c0.11,0.96,0.62,1.39,1.71,1.39c3.46,0.01,6.93,0,10.39,0
			c1.31,0,2.62,0.01,3.93,0c1.37-0.01,2-0.61,2-1.96c0.01-3.35,0.01-6.7,0-10.05c0-1.35-0.62-1.96-1.98-1.97
			c-0.7-0.01-1.39,0-2.21,0c0,1.28,0,2.52,0,3.76c0,1.37-0.46,1.83-1.83,1.83c-2.1,0-4.19,0.01-6.29,0
			c-1.15-0.01-1.65-0.5-1.66-1.65c-0.01-1.28,0-2.55,0-3.93c-0.95,0-1.85-0.08-2.73,0.03c-0.43,0.06-0.87,0.42-1.21,0.75
			c-0.67,0.64-1.39,0.78-2.02,0.29c-0.64-0.5-0.7-1.34-0.14-2.1c0.86-1.14,2.02-1.78,3.44-1.79c5.04-0.03,10.07-0.06,15.11,0.03
			c1.01,0.02,2.01,0.59,3.1,0.94c1.69-4.57,4.1-8.81,9.7-10.5c-0.35-0.22-0.56-0.32-0.73-0.47c-3.57-3.37-4.57-8.44-2.53-12.81
			c2.02-4.33,6.59-7,11.18-6.52c4.94,0.51,8.87,4.02,9.91,8.86c0.14,0.65,0.17,1.33,0.23,1.99c0.07,0.74-0.2,1.29-0.89,1.65
			c-0.18,0.1-0.39,0.46-0.34,0.63c0.25,0.91,0.38,1.96,0.93,2.67c1.16,1.51,0.62,3.07-0.56,4.19c-0.33,0.32-0.63,0.74-0.78,1.17
			c-0.7,1.93-2.01,3.08-4.24,3.36c1.17,1.54,2.05,3.15,3.61,4.2c1.08,0.73,2.35,0.77,3.55,0.57c2.37-0.39,4.46-0.09,6.11,1.95
			c0.94-2.27,2.45-3.78,4.73-4.42c0.58-0.16,1.2-0.25,1.8-0.27c0.87-0.02,1.45,0.53,1.45,1.4c0.02,3.7,0.02,7.4,0,11.1
			c-0.01,0.95-0.62,1.51-1.58,1.44c-0.77-0.06-1.54-0.25-2.37-0.4c0.04,0.15,0.07,0.33,0.14,0.49c1.5,3.5,3.01,7,4.49,10.51
			c0.21,0.49,0.48,0.61,0.97,0.62c5.74,0.15,10.37,4.47,10.91,10.16c0.53,5.59-3.25,10.72-8.82,11.95
			c-6.09,1.35-12.16-2.73-13.32-8.95c-0.03-0.17-0.06-0.33-0.1-0.54c-7.06,0-14.09,0-21.11,0c-1.24,6.7-6.62,9.75-11.27,9.64
			c-5.59-0.13-9.79-3.83-10.95-9.69c-1.24,0-2.51,0-3.78,0c-1.43,0-1.9-0.46-1.88-1.87c0.05-3.93,0.94-7.67,2.72-11.17
			c0.4-0.79,0.97-1.49,1.53-2.33c-1.95,0-3.85,0.01-5.76,0c-0.61,0-1.24,0.04-1.83-0.08C17.22,64.47,16.05,63.05,15.68,60.81z
			 M52.03,77.55c-1.25-1.72-1.46-3.54-1.39-5.43c0.04-1.02,0.01-2.04,0-3.05c-0.02-2.36-1.72-4.06-4.09-4.06
			c-4.27-0.01-8.55-0.03-12.82,0.01c-2.65,0.02-4.64,1.23-5.8,3.63c-0.65,1.35-1.23,2.77-1.63,4.21c-0.43,1.51-0.61,3.09-0.91,4.7
			C34.37,77.55,43.11,77.55,52.03,77.55z M63.77,47.86c-1.93-0.62-3.32-2.08-4.54-3.75c-0.6-0.82-1.18-1.66-1.81-2.46
			c-1.06-1.36-2.37-2.39-4.06-2.86c-3.94-1.1-7.56,0.26-10.04,3.8c-1.59,2.27-2.52,4.84-3.15,7.51c-0.39,1.66-0.81,3.32-0.64,5.12
			c3.81,0,7.55,0,11.3-0.02c0.16,0,0.43-0.21,0.47-0.37c0.5-1.86,1.42-3.48,2.63-4.92c-0.57-0.83-1.14-1.6-1.65-2.41
			c-0.5-0.8-0.32-1.63,0.38-2.05c0.71-0.43,1.46-0.19,1.99,0.63c0.11,0.17,0.21,0.35,0.32,0.52c1.73,2.67,4.12,4.46,7.17,5.37
			c0.23,0.07,0.48,0.08,0.59,0.1C63.08,50.64,63.41,49.3,63.77,47.86z M66.44,55.49c1.2,5.15,2.45,10.46,3.66,15.78
			c0.18,0.78,0.28,1.64,0.13,2.41c-0.25,1.31-0.72,2.58-1.1,3.9c1.2,0,2.54-0.03,3.87,0.01c0.53,0.02,0.84-0.18,1.13-0.61
			c1.72-2.45,3.44-4.9,5.21-7.31c0.37-0.5,0.36-0.89,0.13-1.42c-2-4.61-3.97-9.23-5.95-13.84c-0.1-0.23-0.22-0.46-0.25-0.51
			C70.97,54.44,68.76,54.95,66.44,55.49z M63.04,25.86c-0.36-3.92-4.33-7.14-8.48-6.98c-4.37,0.17-8.03,3.92-8.09,8.29
			c-0.06,4.08,3.21,8.01,6.99,8.28c0-1.25-0.01-2.49,0-3.73c0.03-3.35,2.51-5.82,5.87-5.85C60.54,25.85,61.76,25.86,63.04,25.86z
			 M59.04,71.95c0-0.39,0-0.71,0-1.02c-0.01-2.27-0.01-4.54-0.04-6.81c-0.01-0.43-0.12-0.86-0.23-1.28
			c-0.76-2.92-3.39-4.8-6.78-4.82c-3.98-0.02-7.97-0.01-11.95,0c-0.17,0-0.33,0.03-0.51,0.04c-0.06,1.4-0.12,2.75-0.18,4.15
			c2.38,0,4.82-0.01,7.26,0c3.9,0.02,6.81,2.94,6.84,6.86c0.01,0.95,0,1.9,0,2.89C55.34,71.95,57.13,71.95,59.04,71.95z
			 M65.92,76.43c1.26-0.8,1.84-2.65,1.44-4.48c-0.26-1.16-0.54-2.32-0.8-3.48c-0.97-4.22-1.94-8.44-2.93-12.65
			c-0.07-0.28-0.31-0.7-0.53-0.74c-2.63-0.47-4.99-1.54-7.24-3.29c-0.64,1.2-1.26,2.34-1.9,3.53c0.34,0.13,0.44,0.19,0.55,0.21
			c4.59,1.09,7.34,4.59,7.33,9.32c0,2.21,0,4.42,0,6.63c0,0.39-0.02,0.7,0.48,0.86C64.29,72.96,65.43,74.38,65.92,76.43z
			 M74.6,80.38c0.02,0.24,0.02,0.41,0.06,0.57c0.97,4.14,5.17,7.01,9.26,6.34c4.56-0.75,7.68-4.68,7.23-9.09
			c-0.45-4.39-4.2-7.73-8.53-7.59c-0.23,0.01-0.56,0.08-0.68,0.24c-0.84,1.12-1.64,2.28-2.46,3.42c0.23,0.04,0.35-0.03,0.47-0.09
			c0.13-0.07,0.25-0.15,0.38-0.21c2.09-0.95,4.1-0.8,5.91,0.62c1.78,1.39,2.47,3.28,2.03,5.5c-0.49,2.47-2.49,4.23-4.95,4.46
			c-2.42,0.23-4.71-1.19-5.7-3.49c-0.11-0.27-0.39-0.62-0.63-0.64C76.21,80.33,75.42,80.38,74.6,80.38z M31.3,80.38
			c0.34,3.96,4.37,7.18,8.64,6.97c3.86-0.19,7.68-3.64,7.67-6.98c-0.75,0-1.51-0.03-2.26,0.02c-0.22,0.02-0.53,0.23-0.61,0.43
			c-0.98,2.34-2.73,3.64-5.24,3.65c-2.51,0.01-4.27-1.29-5.27-3.62c-0.08-0.2-0.32-0.45-0.5-0.46
			C32.92,80.35,32.11,80.38,31.3,80.38z M61.56,28.65c-0.49,0-1.18,0-1.87,0c-0.29,0-0.58-0.01-0.87,0.02
			c-1.4,0.18-2.51,1.34-2.55,2.77c-0.05,1.68-0.02,3.37,0,5.05c0,0.21,0.16,0.55,0.31,0.6c0.89,0.26,1.78,0.56,2.69,0.65
			c1.65,0.18,2.31-0.45,2.6-2.09c0.08-0.45,0.46-0.88,0.76-1.26c0.21-0.26,0.53-0.42,0.64-0.5C62.68,32.1,62.14,30.44,61.56,28.65z
			 M63.15,77.58c0.06-1.62-1-2.76-2.5-2.79c-1.54-0.03-3.08-0.01-4.62-0.01c-0.74,0-1.47,0-2.32,0c0.58,1.41,1.48,2.26,2.79,2.6
			c0.63,0.16,1.32,0.17,1.98,0.18C60.04,77.6,61.6,77.58,63.15,77.58z M72.08,51.01c-0.27-0.66-0.43-1.23-0.72-1.73
			c-0.71-1.23-2.32-1.62-3.68-0.97c-1.32,0.64-2.36,2.64-1.94,3.77c0.05,0.14,0.28,0.31,0.42,0.31
			C68.23,52.45,70.17,51.98,72.08,51.01z M78.6,45.76c-1.85,0.6-2.95,2.36-2.78,4.26c0.15,1.65,1.38,3.18,2.78,3.4
			c0-2.3,0-4.59,0-6.89C78.6,46.3,78.6,46.07,78.6,45.76z M80.52,80.38c0.63,1.11,1.78,1.6,2.92,1.32c1.28-0.32,2.16-1.42,2.16-2.72
			c0-1.3-0.87-2.4-2.16-2.72c-1.14-0.28-2.29,0.21-2.86,1.22c0.01,0.02,0.03,0.07,0.04,0.07c0.67,0.01,1.34,0.02,2,0.03
			c0.95,0.03,1.56,0.58,1.56,1.4c0,0.82-0.61,1.37-1.56,1.39C81.94,80.39,81.26,80.38,80.52,80.38z M29.66,48.29
			c-1.44,0-2.79,0-4.11,0c0,0.93,0,1.79,0,2.67c1.39,0,2.74,0,4.11,0C29.66,50.05,29.66,49.19,29.66,48.29z M41.79,80.44
			c-1.59,0-3.06,0-4.58,0C38.31,82.16,40.51,82.18,41.79,80.44z"/>
	</g>
</g>
</svg>
