<?xml version="1.0" encoding="utf-8"?>
<!-- Generator: Adobe Illustrator 28.0.0, SVG Export Plug-In . SVG Version: 6.00 Build 0)  -->
<svg version="1.1" id="Capa_1" xmlns="http://www.w3.org/2000/svg" xmlns:xlink="http://www.w3.org/1999/xlink" x="0px" y="0px"
	 viewBox="0 0 216 140.41" style="enable-background:new 0 0 216 140.41;" xml:space="preserve">
<style type="text/css">
	.st0{fill:#EAE8E0;}
</style>
<g>
	<g>
		<path class="st0" d="M16.32,31.29c-9.36-4.23-11.91-9.75-7.99-17.38l4.54-8.86l-1.97,2.32c-0.45,0.53-10.93,12.99-6.25,21.3
			c2.77,4.91,6.19,7.15,9.21,9.13c4.09,2.67,7.31,4.79,7.23,12.49l-0.02,1.77l0.73-1.66C21.85,50.24,27.75,36.45,16.32,31.29"/>
		<path class="st0" d="M21.01,29.86c3.36,1.96,6.84,3.99,7.53,8.86l0.26,1.85l0.46-1.82c0.03-0.09,2.27-9.32-5.2-11.72
			c-5.95-1.91-7.98-5.15-6.37-10.19l1.89-5.91l-1.22,1.49c-0.22,0.28-5.57,6.95-3.13,12.38C16.27,27.1,18.57,28.44,21.01,29.86"/>
		<path class="st0" d="M14.29,56.06c-0.76-1.21-0.82-2.59-0.16-4.11c2.52-5.85,1.24-12.87-6.07-14.99L1.7,35.13
			C1.42,35.04,1.24,35,1.24,35l-0.24,0.56l0.45,0.13c1.87,0.56,11.11,3.56,9.63,7.71c-0.93,2.62-3.4,9.58,0.14,13.61
			c1.71,1.95,4.61,3.01,8.62,3.14l3.03,0.1l-2.91-0.69C19.93,59.55,15.86,58.56,14.29,56.06"/>
		<path class="st0" d="M114.16,42.8c0.07,0.18,0.14,0.36,0.2,0.54c-0.2-0.57-0.41-1.11-0.63-1.56c-0.07-0.15-0.13-0.28-0.18-0.41
			C113.77,41.84,113.97,42.32,114.16,42.8"/>
		<path class="st0" d="M131.45,8.23c7.29-2.29,19.45-1.6,23.49,4.43c1.93,2.87,0.89,5.91,0.48,6.7c-0.13,0.26-0.25,0.25-0.21,1.31
			c0,0.22,1.52-1.11,2.35-2.29c0.87-1.25,2.49-2.02,4.05-2.55c3.39-1.14,7.42-0.32,10.33,1.29c3.35,1.85,5.38,6.49,4.31,9.1
			c-1.26,3.1-5.13,6.25-8.37,7.82c0,0.61-0.1,1.52-0.22,2.88c3.75-1.16,8.57-4.73,9.27-9.19c0.4-2.55,0.16-5.5-0.5-7.98
			c-1.22-4.61-4.61-7.81-10.43-8.34c-1.26-0.11-2.53-0.01-3.72,0.3c-4.72,1.26-4.91,3.63-5.72,4.73c0.95-2.57,0.58-3.7-0.1-5.19
			c-2.33-5.08-9.09-7.67-14.71-8.28c-14.47-1.58-32.4,13.16-36.02,23.95c-0.42,1.23,0.35,2.18,0.44,2.78
			C109.33,20.27,120.63,11.63,131.45,8.23"/>
		<path class="st0" d="M173.91,47.03c0.16,0.03,0.33,0.06,0.5,0.09c-0.02-0.01-0.03-0.02-0.05-0.04
			C174.21,47.07,174.06,47.05,173.91,47.03"/>
		<path class="st0" d="M25.73,57.07c-0.11,0.03-0.21,0.05-0.28,0.07C25.54,57.12,25.63,57.1,25.73,57.07"/>
		<path class="st0" d="M177.5,50.09c0-0.01,0.01-0.01,0.01-0.01c0.1-0.29,0.08-0.59-0.01-0.91c-0.03,0.14-0.05,0.29-0.05,0.44
			C177.52,49.8,177.54,49.96,177.5,50.09"/>
		<path class="st0" d="M151.36,69.3c-0.03-0.09-0.07-0.18-0.09-0.27c0.01,0.05,0.01,0.1,0.01,0.15c-0.44-0.62-0.75-1.33-0.88-2.13
			c0.05,0.31-0.05,0.65,0,0.96c0.14,0.85,0.47,1.6,0.96,2.25c1.67,4.55,14.8,9.5,16.87,3.22c0.01-0.04,0.01-0.09,0.01-0.13
			c1.17-0.25,2.21-0.56,3.05-0.93c0.17-0.07-0.15-0.9,0-0.96C166.33,73.6,154.85,73.95,151.36,69.3 M167.78,73.44
			c-2.29,3.64-9.6,1.87-13.72-1.07C157.76,74.16,163.48,74.26,167.78,73.44"/>
		<path class="st0" d="M148.21,58.39c-0.02-0.06-0.05-0.17-0.06-0.31C148.14,58.21,148.15,58.31,148.21,58.39"/>
		<path class="st0" d="M157.77,55.24c-1.99-0.84-4.04-0.78-6.13-0.24c-0.94,0.24-2.86,0.77-3.41,1.53
			c-0.09,0.13-0.17,1.03-0.13,1.56c0.01-0.14,0.04-0.3,0.04-0.46v0.82c0-0.01,0.03-0.03,0.02-0.05c0.01,0.02,0.04,0.05,0.05,0.06
			c0.01,0.01,0.02,0.01,0.03,0.01c0,0,0-0.02,0-0.02c0.51-0.69,2.15-1.13,2.99-1.4c2.14-0.7,4.48-0.75,6.54,0.12
			C157.46,57.04,158.11,55.38,157.77,55.24"/>
		<path class="st0" d="M160.77,70.18c1.33,1.4,5.65,0.89,6.79-0.62c0.15-0.2,0.42-1.12,0.48-1.12h-0.6v0.97
			c0-0.8,0.18-1.89-0.1-2.51c0.03,0.08,0.15,0.13,0.14,0.23c-0.83-3.11-2.43-6.73-1.94-9.86c1.24-2.29,5.56-1.44,7.91-0.87
			c-0.2-0.05,0.24-1.87,0.01-1.93c-2.47-0.6-7.1-1.53-8.05,1.25c-0.13,0.37-0.02,0.78,0.03,1.19c-0.52,3.86,1.48,8.07,2.31,11.76
			c-0.01,0.01-0.01,0.02-0.01,0.04c-0.2,0.57-0.78,0.92-1.4,1.16c-1.41,0.53-4.51,0.45-5.55-0.64
			C160.95,69.41,160.57,69.98,160.77,70.18"/>
		<path class="st0" d="M152.19,59.91c0.62,0.34,1.77,0.38,2.32,0.05c0.25-0.15,0.28-0.44,0.28-0.71c0.02,0,0.02-0.14,0-0.45
			c0.01-0.33,0.03-0.68-0.2-0.96c-0.43-0.53-1.45-0.49-2.03-0.18c-0.68,0.36-0.66,1.19-0.59,1.83l-0.92,0.09L152.19,59.91z
			 M152.04,59.3C152.04,59.57,152,59.48,152.04,59.3 M152,58.8c0.01,0.08,0.01,0.14,0.02,0.21c-0.01,0.09-0.01,0.17-0.02,0.23
			C152.01,59.09,152.02,58.94,152,58.8"/>
		<path class="st0" d="M168.28,59.56c0.62,0.34,1.77,0.38,2.32,0.05c0.26-0.15,0.28-0.44,0.28-0.71c0.02,0.01,0.02-0.14,0-0.45
			c0.01-0.33,0.02-0.67-0.21-0.96c-0.43-0.53-1.44-0.49-2.02-0.18c-0.68,0.36-0.66,1.19-0.59,1.83l-0.93,0.09L168.28,59.56z
			 M168.13,58.94C168.13,59.21,168.08,59.13,168.13,58.94 M168.09,58.44c0.01,0.08,0.01,0.15,0.02,0.21
			c-0.01,0.09-0.01,0.17-0.02,0.22C168.09,58.73,168.11,58.59,168.09,58.44"/>
		<path class="st0" d="M135.74,62.95c0.71-0.39,1.28-0.49,1.75-0.43c1.31,0.18,1.71,1.69,1.71,1.69c-0.01-0.96-0.51-1.75-1.23-2.24
			c-0.96-0.66-2.31-0.77-3.36-0.01c-1.61,1.17-1.67,2.77-0.25,5.12c0.21,0.34,0.45,0.71,0.73,1.09c2.14,2.96,4.67,0,4.11,0.51
			c-0.55,0.51-1.64,0.78-2.75-0.29c-0.51-0.49-1.2-1.37-1.59-2.31C134.39,64.94,134.38,63.7,135.74,62.95"/>
		<path class="st0" d="M190.48,115.89c0-0.01,0.01-0.02,0.02-0.03C190.57,115.72,190.53,115.75,190.48,115.89"/>
		<path class="st0" d="M212.59,117.08c0-0.01-0.21-0.01-0.21-0.02c0.01-0.64-0.21-1.68-0.7-3.27c-0.03-0.49-0.06-0.94-0.16-1.36
			c-0.18-0.74-0.79-1.28-1.05-1.68c-0.03-0.09-0.09-0.19-0.11-0.29c-0.03-0.16-0.06-0.36-0.1-0.59c0-0.1-0.02-0.2-0.06-0.31
			c-0.12-0.58-0.36-1.24-1-1.73c-0.26-0.2-0.43-0.37-0.54-0.52c-0.07-0.14-0.32-0.87-0.67-1.03c-0.01,0-0.03-0.01-0.03-0.01
			c-0.2-0.15-0.92-0.32-0.99-0.33c0,0-0.01,0-0.01-0.01c-0.25-0.04-0.64-0.02-0.67-0.02H206v-0.09c0,0.03-3.86,0.73-4.01,0.76
			c0.72-1.26,0-5.46-0.11-6.24c-0.35-2.56-1.72-2.54-4.09-1.72c-1.41,0.49-3.23,1.44-5.22,7.51c-1.24,2.57-2.49,4.63-4.58,5.77
			c0.01-0.18,0-0.36-0.06-0.53c-0.18-0.52-0.83-2.31-1.51-2c0-0.01,0-0.02-0.01-0.02c-4.56-0.18-11.89,2.88-17.27,2.28
			c-0.18-0.86-0.01-2.12,0.54-3.92c0-0.05,2.35-8.67,2.36-8.7c1.47-6.63-3.56-9.55-3.76-9.69c0,0-5.04-3.18-6.3-3.86
			c0.31-0.61,0.87-1.12,1.05-1.78c2.08-0.03,4.08-0.4,5.79-1.34c1.2-0.66,2.82-3.16,3.42-4.16c2.1-3.5,3.41-7.36,4.68-11.13
			c1.38-5.38-1.66-5.68-3.01-8.49c-0.71-1.48,2.92-3.15,2.47-4.74c-0.53-1.85-1.08-2.65-1.59-3.2c0.85,0.01,2.11-0.24,2.72-1.48
			c0.15-0.38,0.71-1.17-0.39-1.79c-9.15-5.11-9.7-9.42-9.4-10.97c-0.48,1.48-0.66,3.81,1.28,6.14c1.51,1.82,5.38,3.4,7.15,5.28
			c-0.16-0.01-0.27-0.01-0.3-0.01c-6.94-0.84-16.3,1.03-18.52,1.66c-4.85,1.42-8.25,2.46-12.22,4.28c-4.75,2.48-7.96,5.12-10.11,7.6
			c1.53-0.67,3.2,0.02,4.05,0.94c0.55-0.57,1.11-1.14,1.69-1.68c1.81-1.6,4.1-3.24,6.95-4.78c3.28-1.6,8.08-3.63,13.91-5.16
			c0.79-0.19,1.51-0.37,2.17-0.53c2.51-0.58,5.19-1.06,7.99-1.37c0.16,0.23,0.87,1.23,1.58,2.37c0.66,1.42,1.23,2.69,0.83,4.65
			c-0.16,0.82-1.87,1.87-1.98,2.95c-0.18,1.6,2.55,2.73,3.03,4.58c1.38,5.35-2.61,11.15-5.44,15.87c-1.37,2.29-1.73,3.65-5.44,4.01
			c-4.25,0.41-9.02-1.06-12.92-2.27c-2.94-0.91-8.12-3.24-10.1-4.19c-1.24-0.57-1.17-0.7-1.55-3.84c0,0-0.33,3.69,1.07,4.17
			c0.51,0.27,4.02,1.92,5.43,2.51c2.62,1.08,5.22,1.95,6.82,2.41c1.46,0.42,3.09,0.85,4.79,1.17c-0.34,0.02-0.67,0.05-0.79,0.08
			c-1.09,0.2-2.19,0.76-2.77,1.51c-0.4,0.46-0.65,1.01-0.81,1.62c-0.35-0.01-0.69-0.03-1.04-0.05c0.47-1.04,0.89-2.3,0.59-3.34
			c-0.28-0.98-1.3-1.32-2.43-1.61c-1.65-0.41-9.22-2.62-9.22-2.62c0.75,0.3,5.43,1.89,6.19,2.14c0.57,0.19,1.41,0.43,2.06,0.63
			c2.19,0.72,1.86,3.04,0.78,4.62c-6.35-0.7-12.25-2.7-16.82-6.64c-0.18-1.19,0.43-2.56,0.32-3.95c0.01,0.13,5.79,2.48,7.48,3.2
			c-0.76-0.32-3.37-1.8-5.53-2.92l0.25,0.09c-1.03-2.55-1.33-6.17-1.45-7.53c-0.16-0.21-0.31-0.41-0.45-0.6
			c-0.94-1.3-1.36-2.55-1.27-3.63c-2.53,4.11-2.35,7.27-2.37,7.63c-0.01,0.09-1.21-2.02-1.64-3.1c-0.34-0.88-0.74-1.88-1.21-2.8
			c-0.96-1.86-2.38-2.84-3.22-3.29c0.26-0.29,0.51-0.58,0.74-0.87c2.57-3.29,3-7.41,3.8-11.16c0.94-4.41,3.38-7.99,7.52-10.94
			c8.13-5.78,18.48-5.84,30.76-3.52c-0.38-0.07-5.25-4.43-14.4-4.67c0.62-0.88,2.19-3.56,0.38-6.35c1.02,3.17-3.61,5.9-3.61,5.9
			c-0.14,0.08-0.21,0.22-0.24,0.38c-2.24,0.07-4.49,0.5-7.61,1.52c-5.38,1.77-8.67,4.73-10.73,8.51l-0.66,1.54
			c0,0-7.08,4.04-10.08-0.64c1.3,4.06,6.53,4.59,8.56,5.07c-0.16,0.63-0.31,1.31-0.44,1.95c-1.55,7.78-6.65,15.39-16.83,16.43
			c-12.32,1.25-14.06-6.28-13.87-9.04l2.47-0.26c-0.11-0.57-0.17-1.05-0.21-1.32c6.84-0.35,16.86-0.53,16.86-0.53s0.28-8.74,0-10.15
			c-0.1,0.02-0.97,0.13-2.44,0.34c-2.07-6.19-5.53-12.06-10.61-16.99c-8.15-7.92-20.14-11.06-32.52-10.5c-0.03,0-0.07,0.01-0.1,0.01
			c0.16-1.61,0.43-3.27,1.17-4.77c0.01,0.07,0.09-0.33,0.77-1.42c3.98-6.33-22.46,1.74-22.46,1.74c1.79,1.73,4.53,4.25,6.43,6.64
			c-10.51,2.85-19.64,8.41-25.13,16.67c-3.95,5.95-6.47,13.62-6.04,20.82c-0.07,0.02-0.16,0.04-0.25,0.06
			c0.08-0.02,0.15-0.04,0.25-0.06c0,0.03,0,0.04,0.01,0.07c-0.14,0.02-0.33,0.02-0.54,0.02c-0.7,0-1.61,0.02-1.55,0.38
			c0,0,3.2,7.23,3.27,7.42l30.62-4.68c0,0.53,0.1,1.03,0.44,1.22c0.57,0.32,1.77,0.1,2.42,0.1c0.83,0,1.26,0.64,2.07,0.83
			c1,0.24,2.25,0.19,3.28,0.11c0.13-0.01,0.29,0.26,0.42,0.59c-2.64-0.18-7.77-0.35-7.55,2.26l-0.03-0.02c0,0,0.16,13.4,2.02,23.89
			c0.04,0.28,0.07,0.56,0.11,0.84c0.87,5.71,2.36,15.52,10.51,17.15c7.39,1.49,16.38-1.52,23.35-3.27
			c3.88-0.97,15.37-4.67,17.88-0.74c-1.78,4.93-6.98,8.81-10.75,12.75c-4.38,4.57-6.87,9.58-8.26,15.25
			c-0.31,1.27,0.05,6.2-0.27,7.46c1.41-5.73,4.23-14.08,8.53-18.74c4.18-4.54,10.31-8.73,11.26-14.67c0.33-2.07,0.56-5.46-1.29-7.03
			c-2.84-2.41-11.8,0.46-15.1,1.26c-7.55,1.84-23.35,8.08-29.29,1.03c-2.97-3.52-3.76-8.11-3.76-12.5v-0.01
			c-2.41-6.21-2.44-17.03-2.55-20.72c2.5,1.68,8.68,1.67,11.05,1.71c4.59,0.08,9.03-0.55,13.25-2.06c1.63,0.14,1.95,1.75,1.94,3.66
			c-0.63,4.52-3.03,7.74-3.03,13.66h0.01c0,0,0.29,1.09,0.48,1.62c0.01,0.05,0.54-0.19,0.54-0.14v0.29c0-0.08-0.42-0.16-0.42-0.23
			c0.13,0.56,0.21,1.07,0.95,1.49c2.33,1.33,6,1.01,9.14,0.53c2.69-0.25,5.44-0.72,7.84-1.19c9.84-1.71,25.31-4.89,29.61-5.78
			c0.14,0.09,0.28,0.18,0.44,0.26c4.37,3.32,9.75,5.11,15.72,5.86c2.2,0.28,4.43,0.34,6.64,0.36c1.14,0.01,1.69,0.06,2.89,0.38
			c4.47,1.16,0.36,5.55-0.89,7.06c-10.71,12.79-24.54,26.73-25.24,42.58c-0.02,0.59,1.22-3.86,1.3-4.36
			c2.66-16.98,18.21-27.11,29.08-40.95c2.3-2.93-0.33-4.55-3.58-5.2c0.69-0.08,1.36-0.2,1.93-0.37c1.47,0.81,2.45,1.23,3.01,1.65
			c0,0,2.38,1.32,3.04,3.16c1.64,3.17,0.63,7.02,0.63,7.02c-0.25,1.99-2.77,7.52-2.82,7.64c-0.77,2.57-0.76,4.87,0.11,5.85
			c0.01,0.06,0.04,0.11,0.08,0.15c4.65,4.27,14.51-0.37,20.58-0.62c-0.07,0.34-0.16,0.58-0.25,1.35h-0.01
			c-0.06,0-0.08,0.31-0.07,0.63c-0.25,2.23-0.26,5.65,1.25,8.76c1.01,2.07,1.84,3.27,2.47,3.95c-6.71,1.66-13.97,2.3-20.89,2.27
			c-5.39-0.03-15.16-0.89-16.85-6.06c3.3-3.71,6.56-7.37,9.1-11.5c0.66-1.07-0.64-2.92,0-3.96c-2.27,3.7-5.43,6.98-8.42,10.34
			c0,0-0.01,0-0.01,0.01c-2.27,2.55-4.43,5.15-6.01,8c-0.25,0.44-2.05,2.94-1.14,5.11c0.73,1.75-0.05,5.43-0.04,6.95
			c0.88,0.04,1.62,0.1,1.67,0.04c0.18-0.2-0.35-3.77-0.48-6.61c-0.12-2.7,3.36-6.14,4.25-7.15c0.3-0.34,0.6-0.68,0.9-1.02
			c1.89,12.39,30.76,7.74,40.38,4.94c0.27,0.05,0.54,0.04,0.82-0.07c1.28-0.51,1.32-1.96,1.25-3.11c0.38-0.1,0.74-0.18,1.05-0.24
			c1,0.46,1.84,0.32,3.15-0.01c1.15-0.29,2.28-0.79,3.46-1c0.19,0.12,0.39,0.22,0.64,0.28c0,0.01,0.01,0.01,0.01,0.01
			c0.57,0.25,1.37,0.28,2.03,0.33c1.38,0.11,3.25,0.44,4.53-0.13c0.78-0.35,2.53-1.01,2.53-1.77v0
			C210.82,121.61,212.83,119.08,212.59,117.08 M64.83,9.8c1.47-0.26,7.63-0.59,5.44,1.61c-1.85,1.75-6.3,2.15-8.53,2.3
			c-0.84,0.05-4.03-0.02-6.28-0.29C48.79,12.61,64.86,9.8,64.83,9.8 M54.76,14.14c0.64,0.14,1.32,0.21,1.71,0.3
			c3.37,0.76,10.3,0.64,13.35-1.78c-0.54,1.62-0.88,3.3-1.02,4.84c-3.69,0.3-7.3,0.91-10.77,1.8C57.16,17.5,56.07,15.76,54.76,14.14
			 M41.74,30.16c10.51-7.31,26.51-10.11,39.96-8.54c15.63,1.84,26.15,11.89,31.28,23.4c-16.66,2.3-81.17,11.16-86.36,11.88
			C25.22,47.3,33.34,36.01,41.74,30.16 M25.33,57.17C25.21,57.2,25.18,57.2,25.33,57.17 M30.06,63.11c0-0.08-1.23-3.19-1.22-3.27
			c0.16-0.05,35.64-7.68,78.01-10.82c0.29-0.02,6.66-0.7,6.66-0.7c0.02,0.1,0.43,4.81,0.43,4.81c-1.8,0.04-33.32,2.57-55.98,5.76
			c0-0.01,0-0.03,0-0.04c0,0.01,0,0.03-0.01,0.04c-3.16,0.44-6.15,0.9-8.86,1.37C40.68,61.69,33.66,62.39,30.06,63.11 M66.51,66.79
			c0.05-0.69-0.33-1.38-0.33-1.97v0.26v0.14c0,0.25,0.36,0.51,0.34,0.76c0-0.03,0.16,0.47,0.14,0.79c-2.58-0.21-5.33-0.64-6.71-1.47
			c1.78-0.89,5.32-0.35,6.92-0.23c-0.02,0-0.36-0.15-0.35-0.37c0,0.03-0.34,0.07-0.34,0.1v-0.35c0-0.58,1.02,0.03,0.97,0.03h-0.13
			c-0.07,0-0.45-3.33-0.97-3.3c-1.63,0.1-3.48-0.18-4.69-1.16l22.39-3.6c0.1,0.54,0.51,2.61-4.73,2.24
			c-2.55-0.19-1.12,4.07-0.85,7.94c-2.14,0.28-4.51,0.38-6.7,0.4C70.67,67.01,68.59,66.96,66.51,66.79 M85.25,64.94
			c0.01-0.01,0.01-0.03,0.02-0.03c-0.02,0.01,0.14,0.02,0.12,0.02c-0.04-0.01,0.07-0.02,0.07-0.02v0.06
			c-2.41,0.52-3.17,0.91-4.7,1.2c0.05-2.65,0.13-4.91,0.52-5.37c0.02-0.01,0-0.02,0.03-0.03c0.6,0.04,1.09,0.07,1.54,0.08
			c0.15,0,0.27,0,0.41,0c0.18,0,0.34,0,0.5-0.01c1.13-0.05,1.83-0.26,2.25-0.68c0.34-0.34,0.5-0.8,0.47-1.46
			c-0.01-0.11-0.02-0.23-0.03-0.35c-0.01-0.12-0.03-0.25-0.06-0.38l11.06-1.19c-1.31,3.07,0.3,7.52,2.54,9.72
			c6.35,6.22,16.48,3.06,22.47-1.96c3.32-0.81,6.78,8.08,7.53,8.9c0.66,0,3.95-1.26,4.01-1.32l0.91,3.25
			c-0.63-0.31-1.18-0.56-1.55-0.7c-0.14-0.05-0.73,0.42-0.69,0.9c0.08,1.03-0.23,2.45-0.78,3.21c-2.25,0.41-36.26,6.7-40.63,6.99
			c-4.62,0.31-6.41-0.5-6.33-2.21c-0.01-0.01-0.02-0.02-0.03-0.02c0.02-0.18,0.03-0.44,0.05-0.62c0.04-0.18,0.07-0.36,0.11-0.54
			c0.18-0.78,0.4-1.56,0.61-2.34c0.49-1.8,0.98-3.6,1.39-5.42C87.48,72.68,89.15,65.32,85.25,64.94 M157.3,86.55
			c-0.55-0.06-1.1-0.09-1.63-0.1c-0.53-1.17,0.6-2.41,1.99-2.81c0.89-0.16,1.9-0.04,2.85,0.05c0.57,0.05,2.11-0.2,1.71,0.55
			c-0.22,0.42-0.52,0.77-0.76,1.14C160.09,85.81,158.72,86.28,157.3,86.55 M210.06,111.97c0.16,0.09,0.31,0.18,0.44,0.28
			c0.1,0.12,0.22,0.29,0.32,0.49c0.21,0.65,0.41,1.46,0.37,2.1c-0.03,0.13-0.05,0.26-0.09,0.4c-0.12,0.34-0.19,0.53-0.23,0.63
			c-0.09,0.22-0.2,0.44-0.32,0.66c-0.66,1.16-1.64,2.18-2.61,2.57c-1.5,0.61-3.46,0.27-5.07,0.31c-1.84,0.05-3.44,0.11-3.86-1.43
			c-0.03-0.37,0.06-0.61,0.25-0.84c1.73,0.5,4.57,0.17,5.72,0.07c3.3-0.3,4.48-2.83,4.97-5.26
			C209.97,111.96,210.02,111.96,210.06,111.97 M208.86,109.23c0.04,0.03,0.09,0.07,0.12,0.11c0.16,0.18,0.39,0.44,0.56,0.8
			c0.04,0.1,0.63,0.2,0.66,0.29c0.12,0.37,0.62,0.81,0.62,1.36v0.01c0,0.15-0.59,0.21-0.59,0.24c-0.57,1.93-1.98,3.74-4.46,4.14
			c-1.45,0.24-6.74,0.83-7.41-0.89c-0.19-0.91,0.17-1.37,0.87-1.65c0.02,0,0.01,0.01,0.04,0.01c0.9,0.29,2.04,0.28,2.99,0.17
			c0.81-0.05,1.11-0.14,1.85-0.3c0.71-0.15,1.9-1.43,1.9-2.12v-0.01c0-0.1,0.68-0.19,0.75-0.26c0.27-0.27,0.73-0.55,0.9-0.85
			c0.2-0.28,0.54-0.56,0.69-0.81C208.47,109.24,208.73,109.19,208.86,109.23 M187.45,112.17c-0.5,0.22-1.04,0.39-1.64,0.51
			c0.02-0.2,0.03-0.37,0.05-0.45c0.08-0.33,0.23-0.66,0.52-0.89c0.01,0,0.02,0,0.03,0c0,0,0-0.01,0-0.03
			c0.01-0.01,0.02-0.02,0.03-0.03C186.8,111.06,187.17,111.59,187.45,112.17 M190.69,124.99c-0.03-0.02-0.07-0.05-0.11-0.08
			c0.57-0.15,1.51-0.44,2.43-0.68C192.8,125.15,192.05,125.8,190.69,124.99 M196.93,123.06c-2.66,1.06-4.4-1.1-4.39-1.53
			c0.04-1.57,0.92-1.86-0.72-3.14c-1.67-0.98-1.48-2.12-1.35-2.49c-0.39,0.69-0.53,1.05,0.38,2.37c0.01,0.01,0.02,0.02,0.02,0.03
			c0.41,0.75,0.73,1.43,0.92,2.28c-0.01,0.26-0.27,0.5-0.27,0.74v0.1c0-0.03,0.28-0.05,0.28-0.08c0.06,0.58,0.43,1.1,1.01,1.6
			c-1.14,0.31-2.28,0.56-3.6,0.84c-0.73-0.84-1.26-1.84-1.72-2.7c-0.78-1.47-1.22-3.11-1.49-4.74c-0.02-0.14-0.04-0.27-0.05-0.39
			c-0.02-0.11-0.02-0.22-0.03-0.32c5.09-1.11,8.22-6.82,9.52-10.51c0.66-1.85,1.06-3.59,3.24-4.7c3.15-1.6,2.56,3.77,2.18,5.46
			c-0.32,1.38-0.93,1.95-0.92,2.13c0.53-0.04,2.49-0.54,3.64-0.76c0.12-0.02,4.2-0.63,4.5,0.59c0.24,0.99-0.68,2.1-1.06,2.51
			c-0.09,0.09-0.17,0.18-0.28,0.27c-0.79,0.72-1.4,1.75-2.59,2c-1.12,0.23-4.8,0.86-5.83-0.13c-0.25-0.22-0.35-0.55-0.19-1.18
			c0.02-0.07,0.05-0.13,0.08-0.19c1.04-1.11,4.1-0.22,4.9-1.86c0.14-0.29-0.14-0.71,0-0.99c-0.7,1.43-3.11,1.08-4.43,1.66l0-0.01
			c0,0-1.51,0.33-0.89,2.46c0.08,0.37,0.28,0.64,0.53,0.85l-0.01,0c0,0-0.64,0.38-0.9,1.21c-0.27,0.83-0.23,1.63,0.35,2.35
			c0.58,0.71,0.58,0.64,0.55,1.38c-0.03,0.74,0.4,2.14,1.4,2.29c0.21,0.03,0.36,0.11,0.49,0.19c-0.18,0.22-0.18,0.81,0.11,1.38
			C199.14,122.27,198.11,122.59,196.93,123.06 M192.15,120.91c-0.02-0.06-0.03-0.12-0.04-0.17v-0.01c0,0.04,0.02,0.07,0.03,0.12
			C192.14,120.87,192.15,120.89,192.15,120.91 M208.21,122.18c-1.15,0.84-2.59,0.45-3.97,0.37c-1.51-0.1-2.99-0.11-3.24-1.4
			c0.05-0.24,0.12-0.47,0.25-0.69c0.61,0.01,1.23-0.03,1.63-0.05c1.59-0.06,3.17,0.13,4.74-0.2c1.49-0.32,3.2-1.76,3.2-3.17v0.03
			c0,0,0.44-1.16,0.69-1.04c0.06,0.06,0.12,0.12,0.16,0.18c0.01,0.02,0.01,0.05,0.03,0.08c0.05,0.24,0.09,0.45,0.1,0.68
			C211.35,118.87,209.89,120.94,208.21,122.18"/>
		<path class="st0" d="M143.71,107.79c0.15-0.1,0.25-0.21,0.32-0.34c0.6-0.74,0.82-1.78,0.47-2.51c-0.06-0.13-0.44-0.04-0.45,0.07
			c-0.02,0-0.04-0.01-0.06-0.01c-0.01-0.07-0.16-0.11-0.3-0.06c-0.97,0.36-1.74,1.03-2.15,1.82c-0.18,0.35-0.64,1.36,0.1,1.53
			C142.48,108.5,143.18,108.25,143.71,107.79"/>
		<path class="st0" d="M136.77,118.2c0.14-0.1,0.25-0.21,0.32-0.34c0.6-0.74,0.82-1.78,0.47-2.5c-0.06-0.13-0.44-0.04-0.45,0.08
			c-0.02-0.01-0.03-0.01-0.05-0.01c-0.01-0.07-0.16-0.11-0.3-0.06c-0.96,0.36-1.74,1.03-2.15,1.82c-0.18,0.35-0.64,1.36,0.11,1.53
			C135.54,118.91,136.25,118.65,136.77,118.2"/>
		<path class="st0" d="M131.33,126.78c-0.02,0-0.03-0.01-0.05-0.01c0-0.07-0.16-0.11-0.3-0.06c-0.97,0.36-1.74,1.03-2.16,1.83
			c-0.18,0.35-0.64,1.36,0.11,1.53c0.83,0.19,1.53-0.06,2.06-0.52c0.15-0.1,0.26-0.22,0.33-0.34c0.6-0.74,0.82-1.78,0.47-2.51
			C131.73,126.58,131.34,126.67,131.33,126.78"/>
	</g>
</g>
</svg>
