<?xml version="1.0" encoding="utf-8"?>
<!-- Generator: Adobe Illustrator 28.0.0, SVG Export Plug-In . SVG Version: 6.00 Build 0)  -->
<svg version="1.1" id="Capa_1" xmlns="http://www.w3.org/2000/svg" xmlns:xlink="http://www.w3.org/1999/xlink" x="0px" y="0px"
	 viewBox="0 0 216 140.41" style="enable-background:new 0 0 216 140.41;" xml:space="preserve">
<style type="text/css">
	.st0{fill:#6DA454;}
</style>
<g>
	<g>
		<path class="st0" d="M18.78,30.71c-9.35-4.22-11.89-9.73-7.98-17.35l4.53-8.85l-1.97,2.31C12.92,7.35,2.46,19.8,7.13,28.08
			c2.77,4.91,6.18,7.14,9.19,9.11c4.08,2.67,7.3,4.78,7.22,12.47l-0.02,1.77l0.73-1.66C24.3,49.63,30.18,35.86,18.78,30.71"/>
		<path class="st0" d="M23.45,29.28c3.36,1.96,6.83,3.98,7.51,8.85l0.26,1.84l0.46-1.82c0.03-0.09,2.27-9.31-5.19-11.7
			c-5.94-1.9-7.97-5.14-6.36-10.17l1.89-5.9l-1.21,1.48c-0.22,0.28-5.56,6.94-3.12,12.36C18.72,26.53,21.02,27.87,23.45,29.28"/>
		<path class="st0" d="M16.75,55.44c-0.76-1.21-0.81-2.59-0.16-4.1c2.51-5.84,1.24-12.85-6.06-14.96l-6.34-1.83
			c-0.28-0.09-0.46-0.13-0.46-0.13l-0.24,0.56l0.45,0.13c1.87,0.56,11.09,3.56,9.61,7.69c-0.93,2.62-3.4,9.56,0.14,13.58
			c1.71,1.95,4.61,3,8.61,3.14l3.02,0.1l-2.9-0.69C22.37,58.92,18.31,57.93,16.75,55.44"/>
		<path class="st0" d="M116.45,42.2c0.07,0.18,0.13,0.36,0.2,0.54c-0.2-0.57-0.4-1.1-0.63-1.56c-0.07-0.15-0.13-0.28-0.18-0.41
			C116.06,41.24,116.26,41.72,116.45,42.2"/>
		<path class="st0" d="M133.7,7.68c7.28-2.29,19.41-1.59,23.45,4.43c1.93,2.87,0.89,5.9,0.48,6.69c-0.13,0.26-0.24,0.25-0.21,1.31
			c0,0.22,1.52-1.11,2.35-2.29c0.87-1.25,2.48-2.01,4.05-2.55c3.38-1.14,7.41-0.32,10.31,1.29c3.34,1.85,5.37,6.48,4.31,9.08
			c-1.26,3.09-5.12,6.23-8.35,7.81c0,0.61-0.1,1.51-0.22,2.87c3.74-1.16,8.55-4.73,9.26-9.17c0.4-2.54,0.16-5.49-0.49-7.97
			c-1.22-4.6-4.61-7.8-10.42-8.32c-1.26-0.11-2.52-0.01-3.71,0.3c-4.72,1.26-4.9,3.62-5.71,4.72c0.95-2.56,0.58-3.69-0.1-5.18
			c-2.33-5.07-9.07-7.65-14.68-8.27c-14.45-1.58-32.35,13.14-35.96,23.91c-0.42,1.23,0.35,2.18,0.44,2.77
			C111.63,19.7,122.91,11.08,133.7,7.68"/>
		<path class="st0" d="M176.09,46.43c0.16,0.03,0.33,0.06,0.5,0.09c-0.02-0.01-0.03-0.02-0.05-0.04
			C176.39,46.46,176.24,46.44,176.09,46.43"/>
		<path class="st0" d="M28.17,56.45c-0.11,0.03-0.21,0.05-0.28,0.07C27.98,56.49,28.07,56.47,28.17,56.45"/>
		<path class="st0" d="M179.68,49.48c0-0.01,0.01-0.01,0.01-0.01c0.1-0.29,0.08-0.59-0.01-0.91c-0.03,0.14-0.05,0.29-0.05,0.44
			C179.7,49.18,179.72,49.34,179.68,49.48"/>
		<path class="st0" d="M153.58,68.65c-0.03-0.09-0.07-0.18-0.09-0.26c0.01,0.05,0.01,0.1,0.01,0.15c-0.44-0.62-0.75-1.33-0.88-2.13
			c0.05,0.31-0.05,0.64,0,0.96c0.13,0.85,0.47,1.59,0.95,2.24c1.66,4.54,14.77,9.49,16.84,3.21c0.01-0.04,0.01-0.09,0.01-0.13
			c1.16-0.24,2.21-0.56,3.05-0.92c0.17-0.07-0.15-0.9,0-0.96C168.53,72.95,157.07,73.3,153.58,68.65 M169.98,72.79
			c-2.29,3.63-9.59,1.87-13.7-1.07C159.98,73.51,165.68,73.61,169.98,72.79"/>
		<path class="st0" d="M150.44,57.77c-0.02-0.06-0.05-0.17-0.06-0.31C150.37,57.59,150.38,57.69,150.44,57.77"/>
		<path class="st0" d="M159.98,54.61c-1.98-0.84-4.03-0.78-6.12-0.24c-0.94,0.24-2.86,0.77-3.4,1.53c-0.09,0.13-0.17,1.03-0.13,1.55
			c0.01-0.14,0.04-0.3,0.04-0.46v0.82c0-0.01,0.03-0.03,0.02-0.05c0.01,0.02,0.04,0.05,0.05,0.06c0.01,0.01,0.02,0.01,0.03,0.01
			c0,0,0-0.02,0-0.02c0.51-0.69,2.15-1.13,2.99-1.4c2.14-0.7,4.47-0.75,6.53,0.12C159.67,56.41,160.32,54.75,159.98,54.61"/>
		<path class="st0" d="M162.97,69.53c1.33,1.4,5.64,0.89,6.78-0.62c0.15-0.2,0.42-1.12,0.48-1.12h-0.6v0.96
			c0-0.8,0.18-1.89-0.1-2.51c0.03,0.08,0.15,0.13,0.14,0.23c-0.83-3.1-2.43-6.72-1.94-9.84c1.24-2.29,5.55-1.44,7.89-0.87
			c-0.2-0.05,0.24-1.87,0.01-1.93c-2.47-0.6-7.09-1.53-8.04,1.25c-0.12,0.37-0.02,0.78,0.03,1.19c-0.52,3.86,1.48,8.06,2.3,11.74
			c-0.01,0.01-0.01,0.02-0.01,0.04c-0.2,0.57-0.78,0.92-1.4,1.16c-1.41,0.53-4.5,0.45-5.54-0.64
			C163.16,68.77,162.78,69.33,162.97,69.53"/>
		<path class="st0" d="M154.41,59.28c0.62,0.34,1.77,0.38,2.31,0.05c0.25-0.15,0.28-0.44,0.28-0.7c0.02,0,0.02-0.14,0-0.44
			c0.01-0.33,0.03-0.68-0.2-0.96c-0.43-0.53-1.44-0.49-2.02-0.18c-0.68,0.36-0.65,1.19-0.59,1.82l-0.92,0.09L154.41,59.28z
			 M154.26,58.67C154.26,58.94,154.22,58.85,154.26,58.67 M154.22,58.17c0.01,0.08,0.01,0.14,0.02,0.21
			c-0.01,0.09-0.01,0.17-0.02,0.23C154.23,58.46,154.24,58.31,154.22,58.17"/>
		<path class="st0" d="M170.47,58.93c0.62,0.34,1.77,0.38,2.31,0.05c0.26-0.15,0.28-0.44,0.28-0.7c0.02,0.01,0.02-0.14,0-0.44
			c0.01-0.33,0.02-0.67-0.21-0.96c-0.43-0.53-1.44-0.49-2.02-0.18c-0.68,0.36-0.66,1.19-0.59,1.82l-0.92,0.09L170.47,58.93z
			 M170.33,58.31C170.33,58.59,170.28,58.5,170.33,58.31 M170.28,57.81c0.01,0.08,0.01,0.15,0.02,0.21
			c-0.01,0.09-0.01,0.17-0.02,0.22C170.29,58.1,170.3,57.96,170.28,57.81"/>
		<path class="st0" d="M137.99,62.31c0.71-0.39,1.28-0.49,1.74-0.43c1.31,0.18,1.71,1.69,1.71,1.69c-0.01-0.95-0.51-1.74-1.23-2.23
			c-0.96-0.66-2.3-0.77-3.36-0.01c-1.6,1.16-1.67,2.76-0.25,5.11c0.21,0.34,0.45,0.71,0.73,1.09c2.14,2.96,4.66,0,4.11,0.51
			c-0.55,0.51-1.63,0.78-2.75-0.29c-0.51-0.49-1.2-1.37-1.58-2.31C136.64,64.3,136.63,63.06,137.99,62.31"/>
		<path class="st0" d="M192.63,115.17c0-0.01,0.01-0.02,0.02-0.03C192.72,115,192.68,115.03,192.63,115.17"/>
		<path class="st0" d="M214.7,116.35c0-0.01-0.21-0.01-0.21-0.02c0.01-0.64-0.21-1.67-0.7-3.26c-0.03-0.49-0.06-0.94-0.16-1.36
			c-0.18-0.73-0.78-1.27-1.05-1.67c-0.03-0.09-0.09-0.19-0.11-0.29c-0.03-0.16-0.06-0.36-0.1-0.59c0-0.1-0.02-0.2-0.06-0.31
			c-0.12-0.58-0.36-1.24-1-1.72c-0.26-0.2-0.43-0.37-0.54-0.52c-0.07-0.14-0.32-0.87-0.67-1.02c-0.01,0-0.03-0.01-0.03-0.01
			c-0.2-0.15-0.92-0.32-0.99-0.33c0,0-0.01,0-0.01-0.01c-0.25-0.04-0.64-0.02-0.67-0.02h-0.27v-0.09c0,0.03-3.85,0.72-4.01,0.76
			c0.72-1.26,0-5.45-0.11-6.23c-0.35-2.55-1.71-2.54-4.08-1.72c-1.41,0.49-3.23,1.44-5.21,7.5c-1.23,2.56-2.49,4.62-4.57,5.76
			c0.01-0.18,0-0.36-0.06-0.53c-0.18-0.52-0.83-2.3-1.51-1.99c0-0.01,0-0.02-0.01-0.02c-4.55-0.18-11.87,2.87-17.24,2.28
			c-0.18-0.86-0.01-2.11,0.54-3.91c0-0.05,2.35-8.65,2.36-8.69c1.46-6.62-3.55-9.54-3.75-9.68c0,0-5.03-3.18-6.29-3.85
			c0.31-0.61,0.87-1.12,1.05-1.77c2.08-0.03,4.08-0.4,5.78-1.33c1.2-0.66,2.81-3.15,3.41-4.15c2.1-3.5,3.4-7.35,4.67-11.11
			c1.37-5.37-1.65-5.67-3-8.47c-0.71-1.48,2.91-3.15,2.46-4.73c-0.52-1.85-1.08-2.65-1.59-3.2c0.85,0.01,2.1-0.24,2.71-1.48
			c0.15-0.38,0.71-1.17-0.39-1.79c-9.14-5.1-9.68-9.41-9.39-10.95c-0.48,1.48-0.66,3.8,1.28,6.13c1.51,1.81,5.37,3.39,7.14,5.28
			c-0.16-0.01-0.27-0.01-0.3-0.01c-6.92-0.83-16.28,1.03-18.49,1.65c-4.85,1.41-8.23,2.45-12.2,4.27
			c-4.75,2.47-7.94,5.11-10.09,7.58c1.53-0.67,3.19,0.02,4.04,0.94c0.55-0.57,1.11-1.14,1.69-1.68c1.81-1.59,4.09-3.23,6.93-4.78
			c3.27-1.6,8.07-3.62,13.88-5.16c0.78-0.19,1.5-0.37,2.16-0.53c2.51-0.58,5.18-1.06,7.97-1.37c0.16,0.23,0.87,1.22,1.58,2.37
			c0.66,1.42,1.23,2.69,0.83,4.64c-0.16,0.82-1.86,1.86-1.98,2.95c-0.18,1.6,2.55,2.73,3.02,4.57c1.38,5.34-2.6,11.13-5.43,15.84
			c-1.37,2.28-1.73,3.65-5.43,4.01c-4.24,0.41-9.01-1.06-12.9-2.26c-2.94-0.91-8.11-3.24-10.09-4.18c-1.24-0.57-1.17-0.7-1.55-3.83
			c0,0-0.33,3.68,1.07,4.16c0.51,0.27,4.01,1.92,5.42,2.5c2.61,1.08,5.21,1.95,6.8,2.41c1.46,0.42,3.09,0.85,4.78,1.17
			c-0.34,0.02-0.67,0.05-0.78,0.08c-1.09,0.2-2.18,0.76-2.77,1.51c-0.4,0.46-0.65,1.01-0.81,1.61c-0.35-0.01-0.69-0.03-1.04-0.05
			c0.47-1.03,0.89-2.29,0.59-3.33c-0.28-0.98-1.3-1.32-2.42-1.6c-1.65-0.41-9.2-2.62-9.2-2.62c0.75,0.3,5.42,1.89,6.17,2.14
			c0.57,0.19,1.41,0.43,2.05,0.63c2.19,0.72,1.86,3.03,0.77,4.61c-6.34-0.7-12.22-2.7-16.79-6.63c-0.18-1.19,0.43-2.55,0.32-3.94
			c0.01,0.13,5.78,2.48,7.47,3.2c-0.76-0.32-3.36-1.8-5.52-2.91l0.25,0.09c-1.03-2.54-1.33-6.16-1.45-7.52
			c-0.16-0.2-0.31-0.41-0.45-0.6c-0.94-1.3-1.36-2.54-1.27-3.63c-2.52,4.1-2.35,7.26-2.37,7.62c-0.01,0.09-1.21-2.01-1.64-3.09
			c-0.34-0.88-0.74-1.88-1.21-2.79c-0.96-1.86-2.38-2.83-3.21-3.28c0.26-0.29,0.51-0.57,0.74-0.87c2.57-3.28,2.99-7.4,3.79-11.14
			c0.94-4.4,3.38-7.98,7.51-10.92c8.12-5.77,18.45-5.83,30.7-3.51c-0.38-0.07-5.24-4.42-14.37-4.66c0.62-0.87,2.18-3.55,0.38-6.34
			c1.02,3.16-3.61,5.89-3.61,5.89c-0.14,0.08-0.21,0.22-0.24,0.38c-2.24,0.07-4.48,0.5-7.6,1.52c-5.37,1.76-8.65,4.72-10.71,8.5
			l-0.66,1.54c0,0-7.07,4.03-10.07-0.64c1.3,4.06,6.52,4.59,8.54,5.06c-0.16,0.63-0.31,1.31-0.44,1.95
			c-1.55,7.77-6.64,15.37-16.8,16.4c-12.3,1.25-14.04-6.27-13.84-9.03l2.47-0.26c-0.11-0.57-0.17-1.04-0.21-1.32
			c6.82-0.35,16.83-0.53,16.83-0.53s0.28-8.72,0-10.14c-0.1,0.02-0.96,0.13-2.43,0.34c-2.07-6.18-5.52-12.04-10.59-16.96
			c-8.13-7.91-20.11-11.04-32.46-10.48c-0.03,0-0.07,0.01-0.1,0.01c0.16-1.61,0.43-3.26,1.17-4.77c0.01,0.06,0.09-0.33,0.77-1.42
			c3.97-6.32-22.42,1.74-22.42,1.74c1.78,1.72,4.53,4.25,6.42,6.62c-10.5,2.85-19.61,8.39-25.08,16.64
			c-3.95,5.94-6.46,13.6-6.03,20.78c-0.07,0.02-0.16,0.04-0.25,0.06c0.08-0.02,0.15-0.04,0.25-0.06c0,0.03,0,0.04,0.01,0.07
			c-0.14,0.02-0.33,0.02-0.54,0.02c-0.7,0-1.61,0.02-1.55,0.38c0,0,3.19,7.22,3.26,7.4l30.57-4.68c0,0.53,0.1,1.03,0.44,1.22
			c0.57,0.32,1.76,0.1,2.41,0.1c0.83,0,1.26,0.63,2.07,0.83c1,0.24,2.24,0.19,3.27,0.11c0.13-0.01,0.29,0.26,0.42,0.59
			c-2.64-0.18-7.75-0.35-7.54,2.26l-0.03-0.02c0,0,0.16,13.38,2.02,23.85c0.04,0.28,0.07,0.56,0.11,0.83
			c0.87,5.7,2.36,15.49,10.49,17.12c7.38,1.48,16.35-1.52,23.31-3.26c3.87-0.97,15.34-4.66,17.85-0.74
			c-1.78,4.92-6.97,8.79-10.73,12.73c-4.37,4.56-6.86,9.57-8.25,15.22c-0.31,1.27,0.05,6.19-0.26,7.45
			c1.41-5.72,4.23-14.05,8.51-18.71c4.17-4.53,10.29-8.71,11.24-14.65c0.33-2.07,0.56-5.45-1.29-7.01
			c-2.84-2.41-11.78,0.46-15.08,1.26c-7.53,1.84-23.31,8.06-29.24,1.02c-2.96-3.51-3.76-8.1-3.76-12.48v-0.01
			c-2.41-6.2-2.44-17-2.55-20.69c2.49,1.68,8.66,1.67,11.03,1.71c4.59,0.08,9.02-0.55,13.23-2.06c1.63,0.14,1.95,1.75,1.94,3.65
			c-0.63,4.51-3.02,7.73-3.02,13.64h0.01c0,0,0.29,1.09,0.48,1.62c0.01,0.05,0.54-0.19,0.54-0.14v0.29c0-0.08-0.42-0.16-0.42-0.23
			c0.13,0.56,0.21,1.07,0.95,1.49c2.33,1.33,5.99,1,9.13,0.53c2.69-0.25,5.43-0.72,7.82-1.19c9.83-1.7,25.26-4.88,29.56-5.77
			c0.14,0.09,0.28,0.18,0.44,0.26c4.36,3.31,9.73,5.1,15.69,5.85c2.19,0.28,4.42,0.34,6.63,0.36c1.14,0.01,1.69,0.06,2.88,0.38
			c4.46,1.16,0.36,5.54-0.89,7.05c-10.69,12.77-24.5,26.68-25.2,42.5c-0.02,0.58,1.22-3.86,1.3-4.35
			c2.65-16.95,18.18-27.07,29.03-40.88c2.3-2.93-0.33-4.54-3.58-5.19c0.69-0.08,1.36-0.2,1.93-0.37c1.47,0.8,2.45,1.23,3,1.64
			c0,0,2.38,1.32,3.03,3.15c1.63,3.16,0.63,7.01,0.63,7.01c-0.25,1.98-2.77,7.51-2.81,7.62c-0.77,2.56-0.76,4.86,0.11,5.84
			c0.01,0.06,0.04,0.11,0.08,0.15c4.65,4.26,14.49-0.37,20.54-0.62c-0.07,0.33-0.16,0.58-0.25,1.35h-0.01
			c-0.06,0-0.08,0.31-0.07,0.63c-0.25,2.23-0.25,5.64,1.25,8.74c1.01,2.06,1.83,3.26,2.47,3.95c-6.69,1.65-13.95,2.3-20.86,2.27
			c-5.39-0.03-15.13-0.89-16.83-6.05c3.29-3.71,6.55-7.35,9.08-11.48c0.65-1.06-0.64-2.91,0-3.95c-2.27,3.7-5.42,6.97-8.41,10.32
			c0,0-0.01,0-0.01,0.01c-2.26,2.55-4.42,5.14-6,7.99c-0.25,0.44-2.04,2.93-1.14,5.1c0.73,1.75-0.05,5.42-0.04,6.94
			c0.88,0.04,1.61,0.1,1.67,0.04c0.18-0.2-0.35-3.76-0.48-6.6c-0.12-2.69,3.36-6.13,4.25-7.14c0.3-0.34,0.6-0.68,0.9-1.01
			c1.88,12.37,30.71,7.72,40.31,4.93c0.27,0.05,0.54,0.04,0.81-0.07c1.28-0.51,1.32-1.96,1.25-3.11c0.38-0.1,0.74-0.18,1.05-0.24
			c1,0.45,1.83,0.32,3.14-0.01c1.15-0.29,2.27-0.79,3.45-1c0.19,0.12,0.39,0.22,0.64,0.28c0,0.01,0.01,0.01,0.01,0.01
			c0.57,0.25,1.36,0.28,2.03,0.33c1.38,0.11,3.24,0.44,4.52-0.13c0.78-0.35,2.52-1,2.52-1.77v0
			C212.94,120.87,214.95,118.35,214.7,116.35 M67.2,9.26c1.47-0.26,7.62-0.58,5.43,1.61c-1.84,1.75-6.29,2.14-8.52,2.29
			c-0.84,0.05-4.02-0.02-6.27-0.29C51.19,12.07,67.23,9.25,67.2,9.26 M57.15,13.59c0.63,0.14,1.32,0.21,1.71,0.3
			c3.37,0.76,10.29,0.64,13.32-1.77c-0.54,1.61-0.88,3.3-1.01,4.84c-3.68,0.3-7.29,0.9-10.76,1.79
			C59.55,16.94,58.45,15.21,57.15,13.59 M44.15,29.58c10.5-7.3,26.47-10.1,39.89-8.52c15.61,1.83,26.1,11.87,31.23,23.36
			c-16.63,2.29-81.03,11.14-86.21,11.86C27.66,46.69,35.76,35.42,44.15,29.58 M27.77,56.54C27.65,56.57,27.62,56.58,27.77,56.54
			 M32.5,62.47c0-0.08-1.22-3.18-1.22-3.27c0.16-0.05,35.58-7.66,77.87-10.8c0.29-0.02,6.65-0.7,6.65-0.7
			c0.02,0.1,0.43,4.8,0.43,4.8c-1.8,0.04-33.26,2.57-55.88,5.75c0-0.01,0-0.03,0-0.04c0,0.01,0,0.03-0.01,0.04
			c-3.15,0.44-6.14,0.9-8.84,1.36C43.1,61.06,36.08,61.76,32.5,62.47 M68.88,66.14c0.05-0.69-0.33-1.38-0.33-1.96v0.26v0.14
			c0,0.25,0.36,0.51,0.34,0.76c0-0.03,0.16,0.47,0.14,0.79c-2.58-0.21-5.32-0.64-6.69-1.47c1.78-0.88,5.31-0.35,6.91-0.23
			c-0.02,0-0.36-0.15-0.35-0.37c0,0.03-0.34,0.07-0.34,0.1v-0.35c0-0.58,1.02,0.03,0.96,0.03h-0.13c-0.07,0-0.45-3.32-0.96-3.29
			c-1.62,0.1-3.48-0.18-4.68-1.16l22.35-3.6c0.1,0.54,0.51,2.61-4.72,2.24c-2.55-0.19-1.12,4.06-0.85,7.92
			c-2.14,0.28-4.5,0.38-6.69,0.4C73.04,66.37,70.96,66.32,68.88,66.14 M87.59,64.3c0.01-0.01,0.01-0.03,0.02-0.03
			c-0.02,0.01,0.14,0.02,0.12,0.02c-0.04-0.01,0.07-0.02,0.07-0.02v0.06c-2.41,0.51-3.16,0.91-4.7,1.2c0.05-2.65,0.13-4.9,0.52-5.36
			c0.02-0.01,0-0.02,0.03-0.03c0.6,0.04,1.09,0.07,1.54,0.08c0.15,0,0.27,0,0.41,0c0.18,0,0.34,0,0.5-0.01
			c1.13-0.05,1.83-0.26,2.25-0.68c0.34-0.34,0.5-0.8,0.47-1.46c-0.01-0.11-0.02-0.23-0.03-0.35c-0.01-0.12-0.03-0.25-0.06-0.38
			l11.05-1.19c-1.3,3.06,0.3,7.5,2.54,9.7c6.33,6.21,16.45,3.05,22.43-1.95c3.31-0.81,6.77,8.07,7.52,8.88c0.66,0,3.94-1.26,4-1.32
			l0.91,3.24c-0.63-0.31-1.18-0.56-1.55-0.7c-0.14-0.05-0.73,0.42-0.69,0.9c0.08,1.03-0.23,2.45-0.78,3.21
			c-2.25,0.41-36.2,6.68-40.56,6.98c-4.61,0.31-6.4-0.5-6.32-2.21c-0.01-0.01-0.02-0.02-0.03-0.02c0.02-0.18,0.03-0.44,0.05-0.62
			c0.04-0.18,0.07-0.36,0.11-0.54c0.18-0.78,0.4-1.56,0.61-2.33c0.49-1.8,0.98-3.6,1.39-5.41C89.81,72.03,91.48,64.68,87.59,64.3
			 M159.51,85.88c-0.55-0.06-1.1-0.09-1.63-0.1c-0.53-1.16,0.6-2.4,1.99-2.8c0.89-0.16,1.89-0.04,2.84,0.05
			c0.57,0.05,2.11-0.2,1.71,0.55c-0.22,0.42-0.52,0.77-0.76,1.14C162.3,85.13,160.93,85.6,159.51,85.88 M212.19,111.25
			c0.16,0.09,0.31,0.18,0.44,0.28c0.1,0.12,0.22,0.29,0.32,0.49c0.21,0.65,0.41,1.46,0.37,2.1c-0.03,0.13-0.05,0.26-0.09,0.4
			c-0.12,0.33-0.19,0.53-0.23,0.63c-0.09,0.22-0.2,0.44-0.32,0.66c-0.65,1.16-1.64,2.18-2.6,2.57c-1.5,0.61-3.45,0.26-5.06,0.31
			c-1.84,0.05-3.44,0.11-3.86-1.42c-0.03-0.37,0.06-0.61,0.25-0.83c1.73,0.5,4.57,0.17,5.71,0.07c3.29-0.3,4.47-2.82,4.96-5.25
			C212.1,111.24,212.14,111.24,212.19,111.25 M210.98,108.51c0.04,0.03,0.09,0.07,0.12,0.11c0.16,0.18,0.38,0.44,0.56,0.8
			c0.04,0.1,0.63,0.19,0.65,0.29c0.12,0.37,0.62,0.81,0.62,1.36v0.01c0,0.15-0.59,0.21-0.59,0.24c-0.57,1.92-1.98,3.73-4.45,4.13
			c-1.44,0.24-6.73,0.83-7.4-0.89c-0.19-0.9,0.17-1.37,0.87-1.64c0.02,0,0.01,0.01,0.04,0.01c0.9,0.29,2.04,0.28,2.98,0.17
			c0.81-0.05,1.11-0.14,1.85-0.3c0.71-0.15,1.89-1.43,1.89-2.12v-0.01c0-0.1,0.68-0.19,0.75-0.26c0.26-0.26,0.73-0.55,0.9-0.85
			c0.2-0.28,0.54-0.56,0.69-0.81C210.59,108.52,210.86,108.48,210.98,108.51 M189.61,111.45c-0.5,0.22-1.04,0.39-1.64,0.51
			c0.02-0.2,0.03-0.37,0.05-0.45c0.08-0.33,0.23-0.65,0.52-0.88c0.01,0,0.02,0,0.03,0c0,0,0-0.01,0-0.03
			c0.01-0.01,0.02-0.02,0.03-0.03C188.96,110.34,189.33,110.87,189.61,111.45 M192.84,124.25c-0.03-0.02-0.07-0.05-0.11-0.08
			c0.57-0.15,1.51-0.44,2.43-0.68C194.95,124.41,194.2,125.05,192.84,124.25 M199.08,122.32c-2.66,1.05-4.39-1.1-4.38-1.53
			c0.04-1.57,0.91-1.86-0.72-3.14c-1.67-0.98-1.48-2.12-1.35-2.49c-0.39,0.69-0.53,1.05,0.38,2.37c0.01,0.01,0.02,0.02,0.02,0.03
			c0.4,0.75,0.73,1.42,0.92,2.28c-0.01,0.25-0.26,0.5-0.26,0.73v0.1c0-0.03,0.28-0.05,0.28-0.08c0.06,0.58,0.43,1.1,1.01,1.6
			c-1.13,0.31-2.28,0.56-3.6,0.84c-0.73-0.84-1.26-1.84-1.72-2.7c-0.78-1.47-1.22-3.1-1.49-4.73c-0.02-0.14-0.04-0.27-0.05-0.39
			c-0.02-0.11-0.02-0.22-0.03-0.32c5.08-1.11,8.21-6.81,9.51-10.49c0.66-1.84,1.06-3.59,3.23-4.7c3.14-1.6,2.56,3.77,2.17,5.45
			c-0.32,1.38-0.93,1.94-0.91,2.13c0.52-0.04,2.48-0.54,3.63-0.76c0.12-0.02,4.19-0.63,4.49,0.59c0.24,0.98-0.68,2.1-1.06,2.51
			c-0.09,0.09-0.17,0.18-0.28,0.27c-0.79,0.72-1.39,1.75-2.58,2c-1.12,0.23-4.79,0.86-5.82-0.13c-0.25-0.22-0.35-0.55-0.19-1.18
			c0.02-0.07,0.05-0.13,0.08-0.19c1.03-1.11,4.09-0.22,4.89-1.86c0.14-0.29-0.14-0.71,0-0.99c-0.7,1.43-3.1,1.08-4.42,1.66l0-0.01
			c0,0-1.5,0.33-0.89,2.46c0.08,0.37,0.28,0.64,0.53,0.84l-0.01,0c0,0-0.63,0.38-0.9,1.21c-0.27,0.83-0.23,1.63,0.35,2.35
			c0.58,0.71,0.58,0.64,0.55,1.38c-0.03,0.74,0.39,2.14,1.39,2.29c0.21,0.03,0.36,0.11,0.49,0.19c-0.18,0.22-0.18,0.81,0.11,1.38
			C201.28,121.53,200.25,121.86,199.08,122.32 M194.3,120.18c-0.02-0.06-0.03-0.12-0.04-0.17v-0.01c0,0.04,0.02,0.07,0.03,0.12
			C194.3,120.13,194.3,120.16,194.3,120.18 M210.33,121.44c-1.15,0.84-2.59,0.45-3.96,0.37c-1.51-0.1-2.99-0.11-3.23-1.4
			c0.05-0.24,0.12-0.47,0.25-0.69c0.61,0.01,1.23-0.03,1.62-0.05c1.59-0.06,3.17,0.13,4.73-0.2c1.49-0.32,3.2-1.75,3.2-3.16v0.03
			c0,0,0.44-1.16,0.69-1.04c0.06,0.06,0.12,0.12,0.16,0.18c0.01,0.02,0.01,0.05,0.03,0.08c0.05,0.24,0.09,0.45,0.1,0.67
			C213.47,118.14,212.01,120.21,210.33,121.44"/>
		<path class="st0" d="M145.94,107.08c0.15-0.1,0.25-0.21,0.32-0.34c0.6-0.74,0.82-1.78,0.47-2.5c-0.06-0.13-0.44-0.04-0.45,0.07
			c-0.02,0-0.04-0.01-0.06-0.01c-0.01-0.07-0.16-0.11-0.3-0.06c-0.97,0.36-1.74,1.03-2.15,1.82c-0.18,0.35-0.63,1.36,0.1,1.53
			C144.71,107.78,145.42,107.53,145.94,107.08"/>
		<path class="st0" d="M139.02,117.47c0.14-0.1,0.25-0.21,0.32-0.34c0.6-0.74,0.82-1.77,0.47-2.5c-0.06-0.13-0.44-0.04-0.45,0.08
			c-0.02-0.01-0.03-0.01-0.05-0.01c-0.01-0.07-0.16-0.11-0.3-0.06c-0.96,0.36-1.74,1.03-2.15,1.82c-0.18,0.35-0.63,1.36,0.11,1.53
			C137.79,118.18,138.49,117.92,139.02,117.47"/>
		<path class="st0" d="M133.59,126.04c-0.02,0-0.03-0.01-0.05-0.01c0-0.07-0.16-0.11-0.3-0.06c-0.96,0.36-1.74,1.03-2.15,1.82
			c-0.18,0.35-0.64,1.35,0.11,1.52c0.83,0.19,1.53-0.06,2.05-0.52c0.15-0.1,0.26-0.22,0.33-0.34c0.6-0.74,0.82-1.77,0.47-2.5
			C133.98,125.83,133.6,125.92,133.59,126.04"/>
	</g>
</g>
</svg>
