<?xml version="1.0" encoding="utf-8"?>
<!-- Generator: Adobe Illustrator 28.0.0, SVG Export Plug-In . SVG Version: 6.00 Build 0)  -->
<svg version="1.1" id="Capa_1" xmlns="http://www.w3.org/2000/svg" xmlns:xlink="http://www.w3.org/1999/xlink" x="0px" y="0px"
	 viewBox="0 0 666.79 234.82" style="enable-background:new 0 0 666.79 234.82;" xml:space="preserve">
<style type="text/css">
	.st0{fill:#FFF080;}
	.st1{fill:#FFFFFF;}
</style>
<g>
	<g>
		<path class="st0" d="M39.9,177.94c-0.55-2.49-2.15-5.36-4.77-8.61c-2.63-3.25-5.43-6.64-8.4-10.16
			c-2.98-3.53-5.64-7.16-7.99-10.89s-3.53-7.47-3.53-11.2c0-2.63,0.52-5.19,1.56-7.67c1.04-2.49,2.56-4.74,4.56-6.74
			s4.49-3.59,7.47-4.77c2.97-1.17,6.4-1.76,10.27-1.76c1.52,0,3.42,0.31,5.7,0.93c2.28,0.62,4.46,1.49,6.53,2.59
			c2.07,1.11,3.87,2.46,5.39,4.04c1.52,1.59,2.28,3.35,2.28,5.29c0,0.69-0.21,1.32-0.62,1.87c-0.42,0.55-1.11,0.83-2.07,0.83
			c-1.52,0-2.87-0.42-4.04-1.24c-1.18-0.83-2.32-1.69-3.42-2.59c-1.11-0.9-2.25-1.76-3.42-2.59c-1.18-0.83-2.46-1.24-3.84-1.24
			c-3.18,0-5.57,1.07-7.16,3.22s-2.39,4.04-2.39,5.7c0,0.83,0.14,1.38,0.42,1.66c1.66,3.73,3.94,7.19,6.84,10.37
			s5.81,6.36,8.71,9.54c2.9,3.18,5.6,6.5,8.09,9.96s4.28,7.33,5.39,11.62c0,0.28,0.48,0.9,1.45,1.87c3.32-0.41,6.12-1.28,8.4-2.59
			s4.25-2.97,5.91-4.98c1.66-2,3.11-4.25,4.36-6.74s2.42-5.05,3.53-7.67c0.28-0.14,0.69-0.21,1.24-0.21c1.11,0,1.9,0.49,2.39,1.45
			c0.48,0.97,0.73,2.01,0.73,3.11c0,1.11-0.28,2.07-0.83,2.9c-1.8,5.39-4.29,9.89-7.47,13.48c-3.18,3.6-7.95,6.36-14.31,8.3
			c-2.49,0.69-4.22,1.8-5.19,3.32c-0.97,1.52-2.01,3.39-3.11,5.6c-1.24,2.63-3.04,4.98-5.39,7.05s-4.98,3.84-7.88,5.29
			s-6.05,2.59-9.44,3.42s-6.74,1.24-10.06,1.24c-2.35,0-4.67-0.38-6.95-1.14s-4.32-1.83-6.12-3.22c-1.8-1.38-3.25-3.08-4.36-5.08
			c-1.1-2-1.66-4.18-1.66-6.53c0-3.73,1.14-6.64,3.42-8.71s5.05-3.59,8.3-4.56s6.67-1.59,10.27-1.87c3.59-0.28,6.77-0.55,9.54-0.83
			c0.28,0,0.55-0.1,0.83-0.31C39.35,178.46,39.63,178.22,39.9,177.94z M41.15,188.1h-6.02c-1.38,0-3.18,0-5.39,0
			s-4.39,0.21-6.53,0.62c-2.15,0.41-3.98,1.11-5.5,2.07c-1.52,0.97-2.28,2.49-2.28,4.56c0,2.35,1,4.04,3.01,5.08
			c2,1.04,4.46,1.56,7.36,1.56c4.01,0,7.6-1.07,10.79-3.21c3.18-2.14,4.77-4.94,4.77-8.4C41.36,189.42,41.29,188.66,41.15,188.1z"/>
		<path class="st0" d="M148.81,184.37c0.97-1.52,2.18-3.42,3.63-5.7s2.97-4.63,4.56-7.05s3.11-4.77,4.56-7.05s2.66-4.25,3.63-5.91
			c0.55-0.83,1.21-0.79,1.97,0.1c0.76,0.9,1.28,1.7,1.56,2.39c0,0.55-0.14,1.38-0.41,2.49c-2.07,4.56-4.53,9.51-7.36,14.83
			c-2.84,5.32-5.98,10.24-9.44,14.74s-7.26,8.3-11.41,11.41c-4.15,3.1-8.58,4.66-13.28,4.66c-3.04,0-5.57-1-7.57-3.01
			c-2.01-2-4.39-4.8-7.16-8.4c-3.6,2.9-7.47,5.67-11.62,8.3s-8.23,3.94-12.24,3.94c-1.94,0-3.91-0.59-5.91-1.76s-3.84-2.76-5.5-4.77
			c-1.66-2-3.01-4.42-4.04-7.26c-1.04-2.83-1.56-5.91-1.56-9.23c0-5.81,1.21-11.68,3.63-17.63s5.6-11.37,9.54-16.28
			s8.5-8.92,13.69-12.03s10.54-4.67,16.08-4.67c5.11,0,10.16,1.18,15.14,3.53c1.52-1.24,3.22-2.66,5.08-4.25
			c1.87-1.59,3.77-2.39,5.7-2.39c0.83,0,1.76,0.18,2.8,0.52c1.04,0.34,2.07,0.83,3.11,1.45s1.9,1.41,2.59,2.38s1.04,2,1.04,3.1
			c0,0.97-0.31,2.1-0.93,3.41s-1.28,2.45-1.97,3.41c-1.52,3.45-3.01,6.72-4.46,9.82s-2.84,6.2-4.15,9.3
			c-1.32,3.1-2.49,6.27-3.53,9.51c-1.04,3.24-1.97,6.72-2.8,10.44c-0.69,1.93-1.14,3.58-1.35,4.96s-0.31,2.55-0.31,3.52
			c0,2.62,0.83,3.93,2.49,3.93c0.97,0,2.18-0.45,3.63-1.35c1.45-0.9,2.94-2.07,4.46-3.53c1.52-1.45,2.97-3.04,4.36-4.77
			C146.45,187.72,147.7,186.03,148.81,184.37z M125.37,146.62c-0.97-0.55-2.07-0.83-3.32-0.83c-2.49,0-5.64,1.49-9.44,4.46
			s-7.54,6.71-11.2,11.2c-3.67,4.5-6.81,9.37-9.44,14.62c-2.63,5.26-3.94,10.24-3.94,14.93c0,4.43,2,7.05,6.02,7.88
			c3.87-1.94,7.19-4.04,9.96-6.33c2.76-2.28,5.39-5.01,7.88-8.19c0.41-2.76,1.14-5.84,2.18-9.23s2.25-6.77,3.63-10.16
			s2.76-6.67,4.15-9.85C123.22,151.94,124.4,149.11,125.37,146.62z"/>
		<path class="st0" d="M174.32,171.72c-1.94,5.26-3.73,10.72-5.39,16.39s-2.49,10.99-2.49,15.97c0,1.11,0.14,2.35,0.42,3.73
			c0.28,1.38,0.69,2.7,1.24,3.94s1.24,2.31,2.07,3.21c0.83,0.9,1.8,1.35,2.9,1.35c3.73,0,7.22-1.35,10.48-4.04
			c3.25-2.7,6.22-5.94,8.92-9.75c2.7-3.8,5.08-7.74,7.16-11.82c2.07-4.08,3.87-7.43,5.39-10.06c0.14-0.42,0.62-1.62,1.45-3.63
			c0.83-2,1.73-4.08,2.7-6.22s1.97-4.11,3.01-5.91c1.04-1.79,1.97-2.7,2.8-2.7c0.97,0,1.73,0.49,2.28,1.45
			c0.55,0.97,0.83,1.8,0.83,2.49c0,0.55-0.14,1.25-0.42,2.07c-2.21,5.39-4.91,11.41-8.09,18.05s-6.74,12.9-10.68,18.77
			c-3.94,5.88-8.19,10.79-12.76,14.73c-4.56,3.94-9.33,5.91-14.31,5.91c-4.29,0-8.4-1.32-12.34-3.94c-3.94-2.63-6.46-6.5-7.57-11.62
			l-0.62-3.32c-0.14-0.69-0.21-1.48-0.21-2.39c0-0.9,0-1.76,0-2.59c0-4.7,0.83-10.51,2.49-17.42s3.84-14.28,6.53-22.09
			c2.7-7.81,5.81-15.77,9.33-23.86s7.12-15.73,10.79-22.92c3.66-7.19,7.26-13.59,10.79-19.19c3.53-5.6,6.74-9.78,9.65-12.55
			c1.52-2.21,3.56-3.87,6.12-4.98c2.56-1.1,5.22-1.66,7.99-1.66c1.8,0,3.63,0.24,5.5,0.73c1.87,0.49,3.53,1.24,4.98,2.28
			s2.66,2.46,3.63,4.25c0.97,1.8,1.45,4.01,1.45,6.64c0,8.71-4.84,19.95-14.52,33.71C206.13,138.49,192.3,154.15,174.32,171.72z
			 M206.89,104.71c-4.29,8.02-8.58,16.01-12.86,23.96c-4.29,7.95-8.23,15.87-11.82,23.75c9.26-9.54,16.59-17.84,21.99-24.89
			c5.39-7.05,9.44-13.03,12.13-17.94c2.7-4.91,4.39-8.88,5.08-11.93c0.69-3.04,1.04-5.32,1.04-6.85c0-0.69-0.07-1.28-0.21-1.76
			s-0.21-0.86-0.21-1.14l-0.41-0.62c-2.07,0-3.84,0.62-5.29,1.87c-1.45,1.24-2.7,2.73-3.73,4.46c-1.04,1.73-2.01,3.6-2.9,5.6
			C208.79,101.22,207.85,103.06,206.89,104.71z"/>
		<path class="st0" d="M258.75,201.79c3.46-1.8,6.6-4.42,9.44-7.88c2.83-3.46,5.56-7.16,8.19-11.1c2.62-3.94,5.19-7.81,7.67-11.62
			c2.49-3.8,5.11-6.88,7.88-9.23c0.41-0.55,1.04-0.83,1.87-0.83c0.97,0,1.94,0.55,2.9,1.66c-0.28,0.83-0.55,1.73-0.83,2.7
			s-0.76,1.94-1.45,2.9c-4.01,5.81-8.02,11.51-12.03,17.11s-8.16,11.3-12.45,17.11c-1.52,1.94-3.49,3.63-5.91,5.08
			s-4.81,2.18-7.16,2.18c-4.01,0-7.09-1.42-9.23-4.25c-2.15-2.83-3.98-6.4-5.5-10.68l-1.45-3.94c-1.66,1.66-3.49,3.49-5.5,5.5
			s-4.12,3.87-6.33,5.6c-2.21,1.73-4.43,3.18-6.64,4.36c-2.21,1.18-4.36,1.76-6.43,1.76c-5.26,0-9.44-1.83-12.55-5.5
			c-3.11-3.66-4.67-8.26-4.67-13.79c0-6.22,0.93-12.65,2.8-19.29c1.87-6.64,4.25-12.69,7.16-18.15c2.9-5.46,6.12-9.92,9.65-13.38
			s6.95-5.19,10.27-5.19c1.94,0,3.53,0.45,4.77,1.35c1.24,0.9,1.87,2.11,1.87,3.63s-0.45,3.08-1.35,4.67
			c-0.9,1.59-1.7,3.15-2.39,4.67c-3.6,7.47-7.05,14.73-10.37,21.78c-3.32,7.05-5.67,14.52-7.05,22.4c-0.28,1.11-0.41,1.94-0.41,2.49
			c0,1.52,0.83,2.9,2.49,4.15c1.94-0.55,3.59-1.24,4.98-2.07c1.38-0.83,2.66-1.73,3.84-2.7c1.17-0.97,2.31-1.97,3.42-3.01
			c1.1-1.04,2.42-2.04,3.94-3.01c4.01-2.63,7.02-5.77,9.02-9.44c2-3.66,3.77-7.5,5.29-11.51c0.83-3.04,2.04-6.4,3.63-10.06
			c1.59-3.66,3.49-7.05,5.7-10.16c2.21-3.11,4.67-5.74,7.36-7.88c2.7-2.14,5.63-3.22,8.82-3.22c1.38,0,2.52,0.41,3.42,1.24
			c0.9,0.83,1.35,1.8,1.35,2.9c0,0.97-0.21,1.97-0.62,3.01c-0.42,1.04-0.76,1.97-1.04,2.8l-5.81,12.45
			c-2.77,5.53-5.08,11.17-6.95,16.91c-1.87,5.74-3.42,11.65-4.67,17.73c-0.14,0.69-0.28,1.42-0.42,2.18s-0.21,1.49-0.21,2.18
			C257.09,198.2,257.64,200,258.75,201.79z"/>
		<path class="st0" d="M337.57,138.73c2.21-4.43,4.08-8.28,5.6-11.55c1.52-3.27,2.97-6.29,4.36-9.07c1.38-2.78,2.8-5.52,4.25-8.23
			s3.28-5.8,5.5-9.28c1.1-1.94,2.62-3.92,4.56-5.94c1.93-2.02,4.08-3.02,6.43-3.02c1.52,0,2.83,0.45,3.94,1.35
			c1.11,0.9,1.66,2.04,1.66,3.42c0.14,1.52-0.1,3.04-0.73,4.56c-0.62,1.52-1.21,2.9-1.76,4.15l-8.3,18.67
			c-2.49,5.53-5.01,11.03-7.57,16.49c-2.56,5.46-5.01,10.99-7.36,16.59c-2.35,5.6-4.53,11.27-6.53,17.01
			c-2.01,5.74-3.63,11.58-4.88,17.53c-0.14,0.69-0.28,1.42-0.42,2.18s-0.21,1.55-0.21,2.38s0.21,2.01,0.62,3.53
			c0.42,1.52,1.45,2.28,3.11,2.28c0.97,0,2.11-0.55,3.42-1.66c1.31-1.11,2.62-2.49,3.94-4.15c1.31-1.66,2.62-3.39,3.94-5.19
			c1.31-1.8,2.39-3.32,3.21-4.56c2.35-3.59,4.56-7.22,6.64-10.89c2.07-3.66,4.15-7.29,6.22-10.89c0.69-0.69,1.21-1.52,1.56-2.49
			c0.34-0.97,1.28-1.45,2.8-1.45c0.97,0,1.8,0.31,2.49,0.93s1.04,1.28,1.04,1.97c0,0.83-0.14,1.66-0.42,2.49s-0.55,1.59-0.83,2.28
			c-2.21,4.29-4.53,9.02-6.95,14.21s-5.05,10.06-7.88,14.62c-2.84,4.56-5.88,8.4-9.13,11.51s-6.88,4.67-10.89,4.67
			c-2.77,0-5.22-0.52-7.36-1.56c-2.15-1.04-3.98-2.42-5.5-4.15s-2.8-3.66-3.84-5.81c-1.04-2.14-1.9-4.32-2.59-6.54
			c-1.94,1.52-3.77,3.11-5.5,4.77s-3.53,3.18-5.39,4.56c-1.87,1.38-3.77,2.52-5.7,3.42c-1.94,0.9-4.08,1.35-6.43,1.35
			c-5.26,0-9.65-1.96-13.17-5.89c-3.53-3.93-5.29-9.13-5.29-15.62c0-5.79,1.11-11.76,3.32-17.89c2.21-6.14,5.29-11.72,9.23-16.75
			s8.64-9.17,14.11-12.41c5.46-3.24,11.44-4.86,17.94-4.86C327.13,135.83,332.04,136.8,337.57,138.73z M299.61,197.64
			c0.28,0,0.45,0.04,0.52,0.1c0.07,0.07,0.24,0.1,0.52,0.1c0.97,0,1.59-0.07,1.87-0.21c2.35-1.38,4.67-2.83,6.95-4.36
			c2.28-1.52,4.36-3.14,6.22-4.88c1.87-1.73,3.42-3.66,4.67-5.81c1.24-2.14,2.07-4.67,2.49-7.57c0.42-1.79,1-3.77,1.76-5.91
			s1.62-4.36,2.59-6.64s1.97-4.53,3.01-6.74s1.97-4.36,2.8-6.43c0.14-0.42,0.28-0.83,0.41-1.24c0.14-0.42,0.21-0.9,0.21-1.45
			s-0.17-1.11-0.52-1.66c-0.35-0.55-1.28-0.83-2.8-0.83c-2.07,0-4.08,0.66-6.02,1.97c-1.94,1.32-3.67,2.59-5.19,3.84
			c-6.09,5.26-11.17,11.72-15.25,19.4c-4.08,7.67-6.12,15.45-6.12,23.34C297.74,194.6,298.36,196.26,299.61,197.64z"/>
		<path class="st0" d="M439.62,184.37c0.97-1.52,2.18-3.42,3.63-5.7s2.97-4.63,4.56-7.05s3.11-4.77,4.56-7.05s2.66-4.25,3.63-5.91
			c0.55-0.83,1.21-0.79,1.97,0.1c0.76,0.9,1.28,1.7,1.56,2.39c0,0.55-0.14,1.38-0.42,2.49c-2.07,4.56-4.53,9.51-7.36,14.83
			c-2.84,5.32-5.98,10.24-9.44,14.74s-7.26,8.3-11.41,11.41s-8.58,4.66-13.28,4.66c-3.04,0-5.57-1-7.57-3.01
			c-2.01-2-4.39-4.8-7.16-8.4c-3.6,2.9-7.47,5.67-11.62,8.3s-8.23,3.94-12.24,3.94c-1.94,0-3.91-0.59-5.91-1.76s-3.84-2.76-5.5-4.77
			c-1.66-2-3.01-4.42-4.04-7.26c-1.04-2.83-1.56-5.91-1.56-9.23c0-5.81,1.21-11.68,3.63-17.63s5.6-11.37,9.54-16.28
			s8.5-8.92,13.69-12.03s10.54-4.67,16.08-4.67c5.12,0,10.17,1.18,15.14,3.53c1.52-1.24,3.22-2.66,5.08-4.25
			c1.87-1.59,3.77-2.39,5.7-2.39c0.83,0,1.76,0.18,2.8,0.52c1.04,0.34,2.07,0.83,3.11,1.45c1.04,0.62,1.9,1.41,2.59,2.38
			s1.04,2,1.04,3.1c0,0.97-0.31,2.1-0.93,3.41s-1.28,2.45-1.97,3.41c-1.52,3.45-3.01,6.72-4.46,9.82c-1.45,3.1-2.84,6.2-4.15,9.3
			c-1.32,3.1-2.49,6.27-3.53,9.51c-1.04,3.24-1.97,6.72-2.8,10.44c-0.69,1.93-1.14,3.58-1.35,4.96s-0.31,2.55-0.31,3.52
			c0,2.62,0.83,3.93,2.49,3.93c0.97,0,2.18-0.45,3.63-1.35c1.45-0.9,2.94-2.07,4.46-3.53c1.52-1.45,2.97-3.04,4.36-4.77
			C437.27,187.72,438.52,186.03,439.62,184.37z M416.18,146.62c-0.97-0.55-2.07-0.83-3.32-0.83c-2.49,0-5.64,1.49-9.44,4.46
			c-3.81,2.97-7.54,6.71-11.2,11.2c-3.67,4.5-6.81,9.37-9.44,14.62c-2.63,5.26-3.94,10.24-3.94,14.93c0,4.43,2,7.05,6.02,7.88
			c3.87-1.94,7.19-4.04,9.96-6.33c2.77-2.28,5.39-5.01,7.88-8.19c0.42-2.76,1.14-5.84,2.18-9.23c1.04-3.39,2.25-6.77,3.63-10.16
			s2.76-6.67,4.15-9.85C414.04,151.94,415.22,149.11,416.18,146.62z"/>
		<path class="st0" d="M508.07,143.92c2.35,2.49,4.18,5.05,5.5,7.67c1.31,2.63,1.97,5.46,1.97,8.5c0,2.49-0.42,5.46-1.24,8.92
			c-0.83,3.46-2.01,7.05-3.53,10.79c-1.52,3.73-3.42,7.44-5.71,11.1c-2.28,3.67-4.81,6.98-7.57,9.96c-2.77,2.97-5.84,5.36-9.23,7.16
			c-3.39,1.79-6.95,2.7-10.68,2.7c-2.63,0-5.22-0.45-7.78-1.32c-2.56-0.88-4.74-2.28-6.53-4.18l-0.42,1.62
			c-0.28,0.81-0.76,1.42-1.45,1.82c-0.69,0.4-1.45,0.61-2.28,0.61c-2.21,0-4.04-0.69-5.5-2.07c-1.45-1.38-2.59-3.11-3.42-5.19
			s-1.42-4.25-1.76-6.53s-0.52-4.32-0.52-6.12c0-0.55,0.04-1.07,0.1-1.56c0.07-0.48,0.1-0.93,0.1-1.35
			c2.35-17.7,6.81-34.78,13.38-51.24s14.48-32.22,23.75-47.29c1.52-1.66,2.94-3.14,4.25-4.46c1.31-1.31,3.56-1.97,6.74-1.97
			c4.98,0,7.47,2.21,7.47,6.64c0,3.18-1.52,6.92-4.56,11.2c-2.35,3.73-4.39,7.33-6.12,10.79c-1.73,3.46-3.39,6.85-4.98,10.16
			c-1.59,3.32-3.08,6.74-4.46,10.27c-1.38,3.53-2.77,7.3-4.15,11.31c2.07-0.97,4.29-1.83,6.64-2.59s4.77-1.14,7.26-1.14
			c2.35,0,4.74,0.42,7.16,1.24S505.45,141.71,508.07,143.92z M498.95,156.82c0.28-1.39,0.42-2.5,0.42-3.33
			c0-1.11-0.52-2.46-1.56-4.06c-1.04-1.59-2.73-2.4-5.08-2.4c-1.11,0-2.11,0.24-3.01,0.73c-0.9,0.49-1.83,0.94-2.8,1.36
			c-4.15,2.36-7.61,5.24-10.37,8.64c-2.77,3.4-4.98,7.15-6.64,11.25s-2.9,8.43-3.73,13.02c-0.83,4.58-1.45,9.16-1.87,13.74
			c2.49,2.64,5.05,3.96,7.67,3.96c3.18,0,6.25-1.56,9.23-4.68c2.97-3.12,5.67-6.91,8.09-11.35c2.42-4.44,4.46-9.13,6.12-14.06
			C497.08,164.7,498.25,160.43,498.95,156.82z"/>
		<path class="st0" d="M539.4,171.72c-1.94,5.26-3.73,10.72-5.39,16.39c-1.66,5.67-2.49,10.99-2.49,15.97
			c0,1.11,0.14,2.35,0.42,3.73c0.28,1.38,0.69,2.7,1.24,3.94s1.25,2.31,2.07,3.21c0.83,0.9,1.8,1.35,2.9,1.35
			c3.73,0,7.22-1.35,10.48-4.04c3.25-2.7,6.22-5.94,8.92-9.75c2.7-3.8,5.08-7.74,7.16-11.82c2.07-4.08,3.87-7.43,5.39-10.06
			c0.14-0.42,0.62-1.62,1.45-3.63c0.83-2,1.73-4.08,2.7-6.22c0.97-2.14,1.97-4.11,3.01-5.91c1.04-1.79,1.97-2.7,2.8-2.7
			c0.97,0,1.73,0.49,2.28,1.45c0.55,0.97,0.83,1.8,0.83,2.49c0,0.55-0.14,1.25-0.42,2.07c-2.21,5.39-4.91,11.41-8.09,18.05
			c-3.18,6.64-6.74,12.9-10.68,18.77c-3.94,5.88-8.19,10.79-12.76,14.73c-4.56,3.94-9.33,5.91-14.31,5.91
			c-4.29,0-8.4-1.32-12.34-3.94c-3.94-2.63-6.46-6.5-7.57-11.62l-0.62-3.32c-0.14-0.69-0.21-1.48-0.21-2.39c0-0.9,0-1.76,0-2.59
			c0-4.7,0.83-10.51,2.49-17.42s3.84-14.28,6.53-22.09c2.7-7.81,5.81-15.77,9.33-23.86s7.12-15.73,10.79-22.92
			c3.66-7.19,7.26-13.59,10.79-19.19c3.53-5.6,6.74-9.78,9.65-12.55c1.52-2.21,3.56-3.87,6.12-4.98c2.56-1.1,5.22-1.66,7.99-1.66
			c1.8,0,3.63,0.24,5.5,0.73c1.87,0.49,3.53,1.24,4.98,2.28c1.45,1.04,2.66,2.46,3.63,4.25c0.97,1.8,1.45,4.01,1.45,6.64
			c0,8.71-4.84,19.95-14.52,33.71C571.2,138.49,557.37,154.15,539.4,171.72z M571.96,104.71c-4.29,8.02-8.58,16.01-12.86,23.96
			c-4.29,7.95-8.23,15.87-11.82,23.75c9.26-9.54,16.59-17.84,21.99-24.89c5.39-7.05,9.44-13.03,12.13-17.94
			c2.7-4.91,4.39-8.88,5.08-11.93c0.69-3.04,1.04-5.32,1.04-6.85c0-0.69-0.07-1.28-0.21-1.76s-0.21-0.86-0.21-1.14l-0.42-0.62
			c-2.07,0-3.84,0.62-5.29,1.87s-2.7,2.73-3.73,4.46c-1.04,1.73-2.01,3.6-2.9,5.6C573.86,101.22,572.93,103.06,571.96,104.71z"/>
		<path class="st0" d="M652.86,155.74c1.66-1.79,2.83-2.7,3.53-2.7c0.97,0,1.45,1.11,1.45,3.32c0,2.49-0.69,5.12-2.07,7.88
			c-2.21,4.43-4.7,8.82-7.47,13.17c-2.77,4.36-5.88,8.5-9.33,12.45c-3.46,3.94-7.29,7.54-11.51,10.79
			c-4.22,3.25-8.82,5.98-13.79,8.19c-2.9,1.24-6.22,1.87-9.96,1.87c-4.84,0-9.2-0.76-13.07-2.28s-7.16-3.56-9.85-6.12
			c-2.7-2.56-4.8-5.6-6.33-9.13c-1.52-3.53-2.28-7.29-2.28-11.3c0-10.09,2.07-19.26,6.22-27.48c4.15-8.23,10.99-15.04,20.54-20.43
			c2.9-1.66,6.05-3.04,9.44-4.15c3.39-1.1,7.02-1.66,10.89-1.66c6.22,0,10.92,1.35,14.11,4.04c3.18,2.7,4.77,7.23,4.77,13.59
			c0,0.97-0.14,2.15-0.42,3.53c-2.63,7.05-6.43,12.38-11.41,15.97c-4.98,3.6-11.62,5.39-19.91,5.39c-1.66,0-3.39-0.21-5.19-0.62
			c-1.8-0.42-3.73-0.83-5.81-1.25c-1.38,2.77-2.46,5.53-3.21,8.3c-0.76,2.77-1.14,5.74-1.14,8.92c0,4.84,1.11,8.71,3.32,11.62
			c2.21,2.9,5.46,4.36,9.75,4.36c3.73,0,7.4-0.9,10.99-2.7c3.59-1.8,6.98-4.08,10.17-6.85c3.18-2.76,6.19-5.91,9.02-9.44
			s5.43-6.98,7.78-10.37c2.35-3.39,4.42-6.6,6.22-9.65C650.09,159.96,651.62,157.54,652.86,155.74z M626.52,137.49h-1.66
			c-2.07,0-4.32,0.62-6.74,1.85c-2.42,1.23-4.77,2.81-7.05,4.73c-2.28,1.92-4.39,4.05-6.33,6.38s-3.46,4.66-4.56,7
			c1.11,1.09,2.11,2.19,3.01,3.29c0.9,1.1,2.52,1.65,4.87,1.65c2.63,0,5.22-0.75,7.78-2.26c2.56-1.51,4.8-3.36,6.74-5.55
			s3.49-4.42,4.67-6.69c1.17-2.26,1.76-4.22,1.76-5.87C629.01,140.23,628.18,138.72,626.52,137.49z"/>
	</g>
	<g>
		<path class="st1" d="M113.82,28.77c-0.4,3.04-1.2,5.84-2.52,8.36s-3.04,4.75-5.1,6.59c-2.06,1.83-4.41,3.21-7.1,4.24
			s-5.61,1.55-8.76,1.55H75.15H70.8l0.4-3.38c0.11-0.97,0.69-1.55,1.66-1.78c0.11,0,0.17-0.06,0.34-0.06s0.52-0.11,0.92-0.17
			c0.4-0.06,0.97-0.17,1.72-0.29l3.67-30.07c-0.69-0.11-1.26-0.23-1.66-0.29s-0.63-0.17-0.8-0.17s-0.29-0.06-0.34-0.06
			c-0.92-0.23-1.32-0.8-1.2-1.78l0.4-3.38h4.35h15.18c3.15,0,5.9,0.52,8.36,1.55s4.47,2.41,6.07,4.24s2.81,4.01,3.49,6.53
			S114.22,25.73,113.82,28.77z M105.97,28.77c0.29-2.29,0.23-4.24-0.17-6.07c-0.4-1.78-1.09-3.32-2.06-4.58s-2.18-2.18-3.72-2.86
			s-3.32-1.03-5.33-1.03h-7.45l-3.61,29.16h7.45c2,0,3.84-0.34,5.56-1.03s3.21-1.6,4.47-2.86s2.35-2.75,3.21-4.58
			C105.17,33.06,105.68,31.06,105.97,28.77z"/>
		<path class="st1" d="M129.28,46.12l-0.4,3.38h-4.35h-7.1l0.74-5.67l2.18-18.04c-0.69-0.11-1.26-0.23-1.66-0.29
			c-0.4-0.06-0.63-0.11-0.8-0.17c-0.17,0-0.29-0.06-0.34-0.06c-0.92-0.23-1.37-0.8-1.26-1.78l0.46-3.38h4.3h7.1l-2.92,23.71
			c0.69,0.11,1.26,0.23,1.66,0.29s0.63,0.11,0.8,0.17c0.17,0.06,0.34,0.06,0.4,0.06C129,44.58,129.4,45.15,129.28,46.12z
			 M129.68,13.3c-0.29,0.52-0.74,0.97-1.2,1.37s-0.97,0.74-1.55,0.97c-0.57,0.23-1.2,0.34-1.83,0.34c-0.63,0-1.15-0.11-1.66-0.34
			c-0.52-0.23-0.97-0.57-1.32-0.97c-0.34-0.4-0.63-0.86-0.8-1.37c-0.17-0.52-0.17-1.09-0.11-1.72s0.29-1.26,0.57-1.83
			c0.29-0.57,0.69-0.97,1.15-1.37c0.46-0.4,0.92-0.74,1.49-0.97c0.57-0.23,1.15-0.4,1.78-0.4s1.26,0.17,1.78,0.4
			c0.52,0.23,0.97,0.57,1.32,0.97c0.34,0.4,0.63,0.8,0.8,1.37s0.23,1.2,0.17,1.83C130.2,12.21,129.97,12.79,129.68,13.3z"/>
		<path class="st1" d="M154.54,40.17c-0.17,1.43-0.57,2.75-1.26,3.95c-0.69,1.2-1.55,2.23-2.63,3.09c-1.09,0.86-2.41,1.55-3.95,2
			c-1.55,0.52-3.21,0.75-5.1,0.75c-3.67,0-7.1-0.8-9.11-1.6l0.34-2.86l0.63-5.44h0.29h0.69h2.35c0.74,0,1.15,0.4,1.2,1.09
			c0,0.29,0,1.09-0.06,3.38c1.49,0.46,3.32,0.46,4.58,0.46c0.86,0,1.6-0.11,2.23-0.29c0.63-0.23,1.09-0.46,1.55-0.8
			s0.8-0.63,1.03-1.09s0.34-0.92,0.4-1.37c0.06-0.69-0.06-1.2-0.4-1.66s-0.86-0.8-1.49-1.15c-0.63-0.34-1.32-0.63-2.18-0.86
			l-2.58-0.86c-0.86-0.29-1.72-0.69-2.52-1.09s-1.55-0.92-2.12-1.55c-0.57-0.63-1.09-1.38-1.37-2.29c-0.29-0.92-0.4-2-0.23-3.32
			c0.17-1.2,0.52-2.35,1.15-3.44c0.63-1.09,1.43-2.06,2.46-2.86c1.03-0.8,2.29-1.49,3.72-1.95c1.43-0.46,3.04-0.74,4.87-0.74
			c2.86,0,4.41,0.23,8.36,1.55l-1.03,8.31h-0.23h-0.69h-2.41c-0.74,0-1.15-0.4-1.2-1.09c0-0.29,0-0.97,0.06-3.21
			c-0.69-0.23-2.06-0.4-3.38-0.4c-1.37,0-2.52,0.29-3.38,0.86s-1.38,1.37-1.49,2.35c-0.06,0.63,0.06,1.15,0.4,1.6
			c0.34,0.46,0.86,0.74,1.49,1.09c0.63,0.34,1.37,0.69,2.18,0.92c0.8,0.23,1.72,0.52,2.58,0.8c0.86,0.29,1.66,0.69,2.46,1.09
			s1.49,0.86,2.12,1.49c0.63,0.57,1.09,1.26,1.37,2.12C154.54,37.99,154.72,38.96,154.54,40.17z"/>
		<path class="st1" d="M181.64,7.92l-0.63,3.55c-0.11,0.57-0.34,0.92-0.86,1.03s-1.09,0.23-1.72,0.23c-0.86,0-1.6,0.06-2.29,0.23
			s-1.26,0.52-1.78,0.97c-0.52,0.46-0.92,1.03-1.26,1.78c-0.34,0.74-0.57,1.6-0.69,2.69l-0.23,1.95h7.62l-0.57,5.04h-7.45
			l-0.06,0.06l-0.63,5.16l-2.18,17.7c-0.23,2-0.74,3.78-1.43,5.21c-0.74,1.43-1.66,2.69-2.92,3.61s-2.69,1.6-4.47,2.06
			c-1.78,0.46-3.84,0.63-6.19,0.63v-3.67c0-1.43,0.74-2.18,2.23-2.18c0.74,0,1.49-0.11,2.12-0.34c0.63-0.23,1.2-0.52,1.72-0.97
			c0.52-0.46,0.92-1.09,1.26-1.83s0.57-1.6,0.69-2.69l2.18-17.53V30.5l0.17-1.72l0.46-3.32l-2.52-0.4
			c-0.52-0.11-0.97-0.29-1.26-0.57c-0.29-0.29-0.4-0.69-0.34-1.2l0.34-2.92h4.35l0.29-2.18c0.23-1.66,0.63-3.21,1.32-4.53
			s1.49-2.46,2.58-3.38s2.29-1.6,3.72-2.12c1.43-0.52,2.98-0.74,4.7-0.74C179.29,7.4,180.49,7.57,181.64,7.92z"/>
		<path class="st1" d="M207.01,20.58l-1.55,5.33c-0.11,0.34-0.29,0.57-0.52,0.69c-0.23,0.17-0.46,0.23-0.8,0.23
			c-0.29,0-0.69-0.06-1.15-0.17c-0.46-0.11-1.15-0.23-1.95-0.23c-1.49,0-2.75,0.4-3.9,1.2c-1.15,0.8-2.18,2.06-3.09,3.61l-1.26,10.2
			l-1.03,8.08h-7.05l0.69-5.67l0.4-3.38l0.29-2l1.55-12.66c-2.41-0.46-2.41-0.46-2.86-0.52c-0.92-0.23-1.32-0.8-1.2-1.78l0.4-3.38
			h4.35h4.12c0.74,0,1.26,0.11,1.49,0.4c0.23,0.29,0.4,0.74,0.4,1.37v3.55c1.26-1.83,2.69-3.27,4.24-4.3
			c1.55-1.03,3.15-1.55,4.93-1.55C204.95,19.6,206.15,19.89,207.01,20.58z"/>
		<path class="st1" d="M240.75,46.12l-0.4,3.38H236h-4.35c-0.92,0-1.43-0.46-1.6-1.32l-0.23-2.35c-0.69,0.63-1.38,1.2-2.06,1.72
			c-0.69,0.52-1.43,0.92-2.23,1.26s-1.66,0.63-2.52,0.86c-0.86,0.17-1.78,0.29-2.75,0.29c-1.6,0-3.04-0.29-4.18-0.8
			c-1.15-0.52-2.06-1.37-2.81-2.35c-0.74-0.97-1.2-2.12-1.49-3.49c-0.29-1.37-0.29-2.86-0.06-4.52l1.6-13
			c-2.41-0.46-2.41-0.46-2.86-0.52c-0.92-0.23-1.32-0.8-1.2-1.78l0.4-3.38H214h7.05l-2.29,18.67c-0.23,1.78,0.06,3.21,0.75,4.18
			s1.89,1.43,3.55,1.43c1.2,0,2.41-0.29,3.55-0.8s2.23-1.26,3.32-2.23l1.89-15.58c-2.41-0.4-2.35-0.46-2.81-0.52
			c-0.92-0.23-1.37-0.8-1.26-1.78l0.46-3.38h4.3h7.1l-2.92,23.71c2.41,0.46,2.41,0.46,2.86,0.52
			C240.46,44.58,240.86,45.15,240.75,46.12z"/>
		<path class="st1" d="M246.59,47.78c-1.2-1.43-1.66-3.44-1.38-5.96l2.06-16.38h-2.98c-0.4,0-0.74-0.17-0.97-0.4
			s-0.34-0.57-0.29-1.09l0.34-2.86l4.81-0.74l2.52-8.02c0.11-0.4,0.34-0.63,0.63-0.86c0.29-0.23,0.69-0.34,1.09-0.34h3.67
			l-1.15,9.28h7.73l-0.63,5.04h-7.73l-1.95,15.92c-0.11,0.92,0,1.6,0.4,2.12s1.03,0.74,1.78,0.74c0.46,0,0.8,0,1.09-0.11
			s0.63-0.23,0.86-0.34c0.23-0.11,0.4-0.23,0.57-0.34s0.4-0.11,0.57-0.11c0.23,0,0.34,0,0.46,0.11c0.11,0.11,0.29,0.23,0.4,0.46
			l1.72,3.44c-1.15,0.86-2.46,1.49-3.84,1.95s-2.75,0.69-4.18,0.69C249.68,49.96,247.79,49.22,246.59,47.78z"/>
		<path class="st1" d="M291.27,46.07l-0.46,3.38h-3.55h-3.72c-0.86,0-1.49-0.17-1.83-0.57s-0.52-0.92-0.52-1.55l0.23-4.01
			c-1.32,2-2.75,3.67-4.35,4.81c-1.6,1.2-3.44,1.78-5.38,1.78c-1.09,0-2.12-0.23-3.09-0.69s-1.83-1.09-2.52-1.95
			c-0.74-0.86-1.26-1.95-1.66-3.27s-0.63-2.81-0.63-4.58s0.23-3.49,0.69-5.16c0.46-1.66,1.03-3.27,1.83-4.7s1.78-2.81,2.92-4.01
			c1.15-1.2,2.46-2.29,3.89-3.15c1.43-0.86,2.92-1.6,4.58-2.06c1.66-0.46,3.38-0.69,5.21-0.69c1.32,0,2.69,0.11,4.01,0.29
			c1.32,0.17,2.63,0.52,3.9,1.03l-2.86,22.97l0.06-0.06c0.63,0.11,1.09,0.23,1.43,0.29s0.52,0.11,0.57,0.11
			C290.93,44.52,291.38,45.09,291.27,46.07z M283.37,24.76c-0.52-0.06-0.97-0.11-1.43-0.11c-1.6,0-3.04,0.34-4.41,1.09
			c-1.38,0.74-2.52,1.72-3.49,2.92c-0.97,1.26-1.78,2.64-2.35,4.3c-0.57,1.6-0.8,3.38-0.8,5.21c0,2.06,0.29,3.55,0.92,4.53
			c0.63,0.97,1.55,1.43,2.69,1.43c0.8,0,1.55-0.29,2.29-0.8c0.75-0.52,1.43-1.26,2.12-2.23s1.32-2.06,1.89-3.32s1.09-2.63,1.49-4.12
			L283.37,24.76z"/>
	</g>
	<g>
		<path class="st1" d="M285.82,57.58l-0.69,5.8c-0.2,1.67-1.18,2.66-2.85,3.05c-0.79,0.1-0.49,0.2-4.72,0.89l-21.15,40.73h-11.02
			l-11.22-40.73c-4.13-0.79-3.74-0.79-4.53-0.89c-1.57-0.39-2.36-1.38-2.16-3.05l0.79-5.8h3.25h10.04h11.22l-0.69,5.8
			c-0.2,1.67-1.18,2.66-2.85,3.05c-0.59,0.1-0.79,0.1-2.75,0.49l4.72,19.87c0.39,1.57,0.69,3.15,0.89,4.62
			c0.2,1.48,0.29,3.05,0.39,4.53c0.49-1.48,0.98-3.05,1.57-4.53c0.59-1.48,1.28-3.05,2.07-4.62l9.74-19.78
			c-2.46-0.39-2.56-0.49-3.15-0.59c-1.57-0.39-2.36-1.38-2.16-3.05l0.79-5.8h11.71h9.54L285.82,57.58L285.82,57.58z"/>
		<path class="st1" d="M311.99,102.24l-0.69,5.81h-7.48h-12.2l1.28-9.74l3.74-30.99c-1.18-0.2-2.16-0.39-2.85-0.49
			s-1.08-0.2-1.38-0.29c-0.29,0-0.49-0.1-0.59-0.1c-1.57-0.39-2.36-1.38-2.16-3.05l0.79-5.8h7.38h12.2L305,98.31
			c1.18,0.2,2.16,0.39,2.85,0.49s1.08,0.2,1.38,0.29c0.3,0.1,0.59,0.1,0.69,0.1C311.49,99.59,312.18,100.57,311.99,102.24z
			 M312.68,45.87c-0.49,0.89-1.28,1.67-2.07,2.36s-1.67,1.28-2.66,1.67s-2.07,0.59-3.15,0.59s-1.97-0.2-2.85-0.59
			c-0.89-0.39-1.67-0.98-2.26-1.67s-1.08-1.48-1.38-2.36s-0.29-1.87-0.2-2.95s0.49-2.16,0.98-3.15s1.18-1.67,1.97-2.36
			s1.57-1.28,2.56-1.67s1.97-0.69,3.05-0.69s2.16,0.29,3.05,0.69s1.67,0.98,2.26,1.67s1.08,1.38,1.38,2.36
			c0.29,0.98,0.39,2.07,0.29,3.15S313.17,44.98,312.68,45.87z"/>
		<path class="st1" d="M374.37,57.58l-0.69,5.8c-0.2,1.67-1.18,2.66-2.85,3.05c-0.79,0.1-0.49,0.2-4.72,0.89l-21.15,40.73h-11.02
			l-11.22-40.73c-4.13-0.79-3.74-0.79-4.53-0.89c-1.57-0.39-2.36-1.38-2.16-3.05l0.79-5.8h3.25h10.04h11.22l-0.69,5.8
			c-0.2,1.67-1.18,2.66-2.85,3.05c-0.59,0.1-0.79,0.1-2.75,0.49l4.72,19.87c0.39,1.57,0.69,3.15,0.89,4.62
			c0.2,1.48,0.3,3.05,0.39,4.53c0.49-1.48,0.98-3.05,1.57-4.53c0.59-1.48,1.28-3.05,2.07-4.62l9.74-19.78
			c-2.46-0.39-2.56-0.49-3.15-0.59c-1.57-0.39-2.36-1.38-2.16-3.05l0.79-5.8h11.71h9.54L374.37,57.58L374.37,57.58z"/>
		<path class="st1" d="M400.54,102.24l-0.69,5.81h-7.48h-12.2l1.28-9.74l3.74-30.99c-1.18-0.2-2.16-0.39-2.85-0.49
			s-1.08-0.2-1.38-0.29c-0.29,0-0.49-0.1-0.59-0.1c-1.57-0.39-2.36-1.38-2.16-3.05l0.79-5.8h7.38h12.2l-5.02,40.73
			c1.18,0.2,2.16,0.39,2.85,0.49s1.08,0.2,1.38,0.29c0.29,0.1,0.59,0.1,0.69,0.1C400.05,99.59,400.73,100.57,400.54,102.24z
			 M401.22,45.87c-0.49,0.89-1.28,1.67-2.07,2.36s-1.67,1.28-2.66,1.67c-0.98,0.39-2.07,0.59-3.15,0.59s-1.97-0.2-2.85-0.59
			c-0.89-0.39-1.67-0.98-2.26-1.67s-1.08-1.48-1.38-2.36s-0.29-1.87-0.2-2.95s0.49-2.16,0.98-3.15s1.18-1.67,1.97-2.36
			s1.57-1.28,2.56-1.67c0.98-0.39,1.97-0.69,3.05-0.69s2.16,0.29,3.05,0.69s1.67,0.98,2.26,1.67s1.08,1.38,1.38,2.36
			s0.39,2.07,0.29,3.15S401.72,44.98,401.22,45.87z"/>
		<path class="st1" d="M446.29,58.36l-2.66,9.15c-0.2,0.59-0.49,0.98-0.89,1.18c-0.39,0.3-0.79,0.39-1.38,0.39
			c-0.49,0-1.18-0.1-1.97-0.3c-0.79-0.2-1.97-0.39-3.35-0.39c-2.56,0-4.72,0.69-6.69,2.07s-3.74,3.54-5.31,6.2l-2.16,17.51
			l-1.77,13.87h-12.1l1.18-9.74l0.69-5.8l0.49-3.44l2.66-21.74c-4.13-0.79-4.13-0.79-4.92-0.89c-1.57-0.39-2.26-1.38-2.07-3.05
			l0.69-5.8h7.48h7.08c1.28,0,2.16,0.2,2.56,0.69s0.69,1.28,0.69,2.36v6.1c2.17-3.15,4.62-5.61,7.28-7.38s5.41-2.66,8.46-2.66
			C442.75,56.69,444.81,57.18,446.29,58.36z"/>
	</g>
</g>
</svg>
